solid OpenSCAD_Model
  facet normal 1 -0 0
    outer loop
      vertex 20.2 0 150
      vertex 20.2 20.2 0
      vertex 20.2 20.2 150
    endloop
  endfacet
  facet normal 1 0 0
    outer loop
      vertex 20.2 20.2 0
      vertex 20.2 0 150
      vertex 20.2 0 0
    endloop
  endfacet
  facet normal 0 0 1
    outer loop
      vertex 20.2 20.2 150
      vertex 18.21 18.2 150
      vertex 20.2 0 150
    endloop
  endfacet
  facet normal -0 0 1
    outer loop
      vertex 0 20.2 150
      vertex 18.21 18.2 150
      vertex 20.2 20.2 150
    endloop
  endfacet
  facet normal 0 0 1
    outer loop
      vertex 18.21 18.2 150
      vertex 0 20.2 150
      vertex 0 18.2 150
    endloop
  endfacet
  facet normal -0 0 1
    outer loop
      vertex 18.21 2 150
      vertex 20.2 0 150
      vertex 18.21 18.2 150
    endloop
  endfacet
  facet normal 0 0 1
    outer loop
      vertex 0 0 150
      vertex 18.21 2 150
      vertex 0 2 150
    endloop
  endfacet
  facet normal 0 0 1
    outer loop
      vertex 18.21 2 150
      vertex 0 0 150
      vertex 20.2 0 150
    endloop
  endfacet
  facet normal 0 0 -1
    outer loop
      vertex 20.2 0 0
      vertex 18.21 2 0
      vertex 20.2 20.2 0
    endloop
  endfacet
  facet normal 0 0 -1
    outer loop
      vertex 0 0 0
      vertex 18.21 2 0
      vertex 20.2 0 0
    endloop
  endfacet
  facet normal -0 0 -1
    outer loop
      vertex 18.21 2 0
      vertex 0 0 0
      vertex 0 2 0
    endloop
  endfacet
  facet normal 0 0 -1
    outer loop
      vertex 18.21 18.2 0
      vertex 20.2 20.2 0
      vertex 18.21 2 0
    endloop
  endfacet
  facet normal 0 0 -1
    outer loop
      vertex 0 20.2 0
      vertex 18.21 18.2 0
      vertex 0 18.2 0
    endloop
  endfacet
  facet normal 0 0 -1
    outer loop
      vertex 18.21 18.2 0
      vertex 0 20.2 0
      vertex 20.2 20.2 0
    endloop
  endfacet
  facet normal -1 0 0
    outer loop
      vertex 0 18.2 0
      vertex 0 20.2 150
      vertex 0 20.2 0
    endloop
  endfacet
  facet normal -1 -0 0
    outer loop
      vertex 0 20.2 150
      vertex 0 18.2 0
      vertex 0 18.2 150
    endloop
  endfacet
  facet normal -1 0 0
    outer loop
      vertex 0 0 0
      vertex 0 2 150
      vertex 0 2 0
    endloop
  endfacet
  facet normal -1 -0 0
    outer loop
      vertex 0 2 150
      vertex 0 0 0
      vertex 0 0 150
    endloop
  endfacet
  facet normal 0 1 -0
    outer loop
      vertex 20.2 20.2 0
      vertex 0 20.2 150
      vertex 20.2 20.2 150
    endloop
  endfacet
  facet normal 0 1 0
    outer loop
      vertex 0 20.2 150
      vertex 20.2 20.2 0
      vertex 0 20.2 0
    endloop
  endfacet
  facet normal 0 -1 0
    outer loop
      vertex 0 0 0
      vertex 20.2 0 150
      vertex 0 0 150
    endloop
  endfacet
  facet normal 0 -1 -0
    outer loop
      vertex 20.2 0 150
      vertex 0 0 0
      vertex 20.2 0 0
    endloop
  endfacet
  facet normal -1 0 0
    outer loop
      vertex 18.21 2 0
      vertex 18.21 18.2 150
      vertex 18.21 18.2 0
    endloop
  endfacet
  facet normal -1 -0 0
    outer loop
      vertex 18.21 18.2 150
      vertex 18.21 2 0
      vertex 18.21 2 150
    endloop
  endfacet
  facet normal 0 -1 0
    outer loop
      vertex 0 18.2 0
      vertex 18.21 18.2 150
      vertex 0 18.2 150
    endloop
  endfacet
  facet normal 0 -1 -0
    outer loop
      vertex 18.21 18.2 150
      vertex 0 18.2 0
      vertex 18.21 18.2 0
    endloop
  endfacet
  facet normal 0 1 -0
    outer loop
      vertex 18.21 2 0
      vertex 0 2 150
      vertex 18.21 2 150
    endloop
  endfacet
  facet normal 0 1 0
    outer loop
      vertex 0 2 150
      vertex 18.21 2 0
      vertex 0 2 0
    endloop
  endfacet
  facet normal 1 -0 0
    outer loop
      vertex 41.2 11.1 150
      vertex 41.2 13.1 0
      vertex 41.2 13.1 150
    endloop
  endfacet
  facet normal 1 0 0
    outer loop
      vertex 41.2 13.1 0
      vertex 41.2 11.1 150
      vertex 41.2 11.1 0
    endloop
  endfacet
  facet normal 1 -0 0
    outer loop
      vertex 41.2 0 150
      vertex 41.2 2 0
      vertex 41.2 2 150
    endloop
  endfacet
  facet normal 1 0 0
    outer loop
      vertex 41.2 2 0
      vertex 41.2 0 150
      vertex 41.2 0 0
    endloop
  endfacet
  facet normal 0 0 1
    outer loop
      vertex 41.2 13.1 150
      vertex 21.2 11.1 150
      vertex 41.2 11.1 150
    endloop
  endfacet
  facet normal 0 0 1
    outer loop
      vertex 21.2 11.1 150
      vertex 20.2 13.1 150
      vertex 21.2 2 150
    endloop
  endfacet
  facet normal -0 0 1
    outer loop
      vertex 20.2 13.1 150
      vertex 21.2 11.1 150
      vertex 41.2 13.1 150
    endloop
  endfacet
  facet normal -0 0 1
    outer loop
      vertex 21.2 2 150
      vertex 41.2 0 150
      vertex 41.2 2 150
    endloop
  endfacet
  facet normal 0 0 1
    outer loop
      vertex 21.2 2 150
      vertex 20.2 0 150
      vertex 41.2 0 150
    endloop
  endfacet
  facet normal 0 0 1
    outer loop
      vertex 20.2 0 150
      vertex 21.2 2 150
      vertex 20.2 13.1 150
    endloop
  endfacet
  facet normal 0 0 -1
    outer loop
      vertex 41.2 0 0
      vertex 21.2 2 0
      vertex 41.2 2 0
    endloop
  endfacet
  facet normal -0 0 -1
    outer loop
      vertex 21.2 2 0
      vertex 20.2 0 0
      vertex 21.2 11.1 0
    endloop
  endfacet
  facet normal 0 0 -1
    outer loop
      vertex 20.2 0 0
      vertex 21.2 2 0
      vertex 41.2 0 0
    endloop
  endfacet
  facet normal 0 0 -1
    outer loop
      vertex 21.2 11.1 0
      vertex 41.2 13.1 0
      vertex 41.2 11.1 0
    endloop
  endfacet
  facet normal 0 0 -1
    outer loop
      vertex 21.2 11.1 0
      vertex 20.2 13.1 0
      vertex 41.2 13.1 0
    endloop
  endfacet
  facet normal 0 0 -1
    outer loop
      vertex 20.2 13.1 0
      vertex 21.2 11.1 0
      vertex 20.2 0 0
    endloop
  endfacet
  facet normal -1 0 0
    outer loop
      vertex 20.2 0 0
      vertex 20.2 13.1 150
      vertex 20.2 13.1 0
    endloop
  endfacet
  facet normal -1 -0 0
    outer loop
      vertex 20.2 13.1 150
      vertex 20.2 0 0
      vertex 20.2 0 150
    endloop
  endfacet
  facet normal 0 1 -0
    outer loop
      vertex 41.2 13.1 0
      vertex 20.2 13.1 150
      vertex 41.2 13.1 150
    endloop
  endfacet
  facet normal 0 1 0
    outer loop
      vertex 20.2 13.1 150
      vertex 41.2 13.1 0
      vertex 20.2 13.1 0
    endloop
  endfacet
  facet normal 0 -1 0
    outer loop
      vertex 20.2 0 0
      vertex 41.2 0 150
      vertex 20.2 0 150
    endloop
  endfacet
  facet normal 0 -1 -0
    outer loop
      vertex 41.2 0 150
      vertex 20.2 0 0
      vertex 41.2 0 0
    endloop
  endfacet
  facet normal 1 -0 0
    outer loop
      vertex 21.2 2 150
      vertex 21.2 11.1 0
      vertex 21.2 11.1 150
    endloop
  endfacet
  facet normal 1 0 0
    outer loop
      vertex 21.2 11.1 0
      vertex 21.2 2 150
      vertex 21.2 2 0
    endloop
  endfacet
  facet normal 0 -1 0
    outer loop
      vertex 21.2 11.1 0
      vertex 41.2 11.1 150
      vertex 21.2 11.1 150
    endloop
  endfacet
  facet normal 0 -1 -0
    outer loop
      vertex 41.2 11.1 150
      vertex 21.2 11.1 0
      vertex 41.2 11.1 0
    endloop
  endfacet
  facet normal 0 1 -0
    outer loop
      vertex 41.2 2 0
      vertex 21.2 2 150
      vertex 41.2 2 150
    endloop
  endfacet
  facet normal 0 1 0
    outer loop
      vertex 21.2 2 150
      vertex 41.2 2 0
      vertex 21.2 2 0
    endloop
  endfacet
endsolid OpenSCAD_Model
