solid OpenSCAD_Model
  facet normal 0 -1 0
    outer loop
      vertex 4.47736 -4.97261 0
      vertex 5 -4.97261 2
      vertex 4.47736 -4.97261 2
    endloop
  endfacet
  facet normal 0 -1 -0
    outer loop
      vertex 5 -4.97261 2
      vertex 4.47736 -4.97261 0
      vertex 5 -4.97261 0
    endloop
  endfacet
  facet normal -0.951056 -0.309018 0
    outer loop
      vertex 0.432272 -2.03368 0
      vertex 0.109262 -1.03956 2
      vertex 0.109262 -1.03956 0
    endloop
  endfacet
  facet normal -0.951056 -0.309018 0
    outer loop
      vertex 0.109262 -1.03956 2
      vertex 0.432272 -2.03368 0
      vertex 0.432272 -2.03368 2
    endloop
  endfacet
  facet normal -0.74314 0.669136 0
    outer loop
      vertex 0.954914 2.93893 0
      vertex 1.65435 3.71572 2
      vertex 1.65435 3.71572 0
    endloop
  endfacet
  facet normal -0.74314 0.669136 0
    outer loop
      vertex 1.65435 3.71572 2
      vertex 0.954914 2.93893 0
      vertex 0.954914 2.93893 2
    endloop
  endfacet
  facet normal -0.406734 0.913547 0
    outer loop
      vertex 3.45491 4.75528 0
      vertex 2.5 4.33013 2
      vertex 3.45491 4.75528 2
    endloop
  endfacet
  facet normal -0.406734 0.913547 0
    outer loop
      vertex 2.5 4.33013 2
      vertex 3.45491 4.75528 0
      vertex 2.5 4.33013 0
    endloop
  endfacet
  facet normal -0.207913 -0.978147 0
    outer loop
      vertex 3.45491 -4.75528 0
      vertex 4.47736 -4.97261 2
      vertex 3.45491 -4.75528 2
    endloop
  endfacet
  facet normal -0.207913 -0.978147 -0
    outer loop
      vertex 4.47736 -4.97261 2
      vertex 3.45491 -4.75528 0
      vertex 4.47736 -4.97261 0
    endloop
  endfacet
  facet normal 0 0 1
    outer loop
      vertex 3.45491 4.75528 2
      vertex 5 4.97261 2
      vertex 4.47736 4.97261 2
    endloop
  endfacet
  facet normal 0 0 1
    outer loop
      vertex 2.5 4.33013 2
      vertex 5 4.97261 2
      vertex 3.45491 4.75528 2
    endloop
  endfacet
  facet normal 0 0 1
    outer loop
      vertex 5 4.97261 2
      vertex 2.5 4.33013 2
      vertex 5 -4.97261 2
    endloop
  endfacet
  facet normal 0 0 1
    outer loop
      vertex 5 -4.97261 2
      vertex 3.45491 -4.75528 2
      vertex 4.47736 -4.97261 2
    endloop
  endfacet
  facet normal -0 0 1
    outer loop
      vertex 2.5 -4.33013 2
      vertex 5 -4.97261 2
      vertex 2.5 4.33013 2
    endloop
  endfacet
  facet normal 0 0 1
    outer loop
      vertex 5 -4.97261 2
      vertex 2.5 -4.33013 2
      vertex 3.45491 -4.75528 2
    endloop
  endfacet
  facet normal -0 0 1
    outer loop
      vertex 1.65435 3.71572 2
      vertex 2.5 -4.33013 2
      vertex 2.5 4.33013 2
    endloop
  endfacet
  facet normal 0 0 1
    outer loop
      vertex 1.65435 3.71572 2
      vertex 1.65435 -3.71572 2
      vertex 2.5 -4.33013 2
    endloop
  endfacet
  facet normal -0 0 1
    outer loop
      vertex 0.954914 2.93893 2
      vertex 1.65435 -3.71572 2
      vertex 1.65435 3.71572 2
    endloop
  endfacet
  facet normal 0 0 1
    outer loop
      vertex 0.954914 2.93893 2
      vertex 0.954914 -2.93893 2
      vertex 1.65435 -3.71572 2
    endloop
  endfacet
  facet normal -0 0 1
    outer loop
      vertex 0.432272 2.03368 2
      vertex 0.954914 -2.93893 2
      vertex 0.954914 2.93893 2
    endloop
  endfacet
  facet normal 0 0 1
    outer loop
      vertex 0.432272 2.03368 2
      vertex 0.432272 -2.03368 2
      vertex 0.954914 -2.93893 2
    endloop
  endfacet
  facet normal -0 0 1
    outer loop
      vertex 0.109262 1.03956 2
      vertex 0.432272 -2.03368 2
      vertex 0.432272 2.03368 2
    endloop
  endfacet
  facet normal 0 0 1
    outer loop
      vertex 0.109262 1.03956 2
      vertex 0.109262 -1.03956 2
      vertex 0.432272 -2.03368 2
    endloop
  endfacet
  facet normal 0 -0 1
    outer loop
      vertex 0.109262 -1.03956 2
      vertex 0.109262 1.03956 2
      vertex 0 0 2
    endloop
  endfacet
  facet normal 0 0 1
    outer loop
      vertex 5 4.97261 2
      vertex 10 5 2
      vertex 5 5 2
    endloop
  endfacet
  facet normal 0 0 1
    outer loop
      vertex 10 5 2
      vertex 5 4.97261 2
      vertex 10 -5 2
    endloop
  endfacet
  facet normal -0 0 1
    outer loop
      vertex 5 -4.97261 2
      vertex 10 -5 2
      vertex 5 4.97261 2
    endloop
  endfacet
  facet normal 0 0 1
    outer loop
      vertex 10 -5 2
      vertex 5 -4.97261 2
      vertex 5 -5 2
    endloop
  endfacet
  facet normal -0.406734 -0.913547 0
    outer loop
      vertex 2.5 -4.33013 0
      vertex 3.45491 -4.75528 2
      vertex 2.5 -4.33013 2
    endloop
  endfacet
  facet normal -0.406734 -0.913547 -0
    outer loop
      vertex 3.45491 -4.75528 2
      vertex 2.5 -4.33013 0
      vertex 3.45491 -4.75528 0
    endloop
  endfacet
  facet normal 0 1 -0
    outer loop
      vertex 5 4.97261 0
      vertex 4.47736 4.97261 2
      vertex 5 4.97261 2
    endloop
  endfacet
  facet normal 0 1 0
    outer loop
      vertex 4.47736 4.97261 2
      vertex 5 4.97261 0
      vertex 4.47736 4.97261 0
    endloop
  endfacet
  facet normal -0.951056 0.309018 0
    outer loop
      vertex 0.109262 1.03956 0
      vertex 0.432272 2.03368 2
      vertex 0.432272 2.03368 0
    endloop
  endfacet
  facet normal -0.951056 0.309018 0
    outer loop
      vertex 0.432272 2.03368 2
      vertex 0.109262 1.03956 0
      vertex 0.109262 1.03956 2
    endloop
  endfacet
  facet normal -0.587791 -0.809013 0
    outer loop
      vertex 1.65435 -3.71572 0
      vertex 2.5 -4.33013 2
      vertex 1.65435 -3.71572 2
    endloop
  endfacet
  facet normal -0.587791 -0.809013 -0
    outer loop
      vertex 2.5 -4.33013 2
      vertex 1.65435 -3.71572 0
      vertex 2.5 -4.33013 0
    endloop
  endfacet
  facet normal -0.74314 -0.669136 0
    outer loop
      vertex 1.65435 -3.71572 0
      vertex 0.954914 -2.93893 2
      vertex 0.954914 -2.93893 0
    endloop
  endfacet
  facet normal -0.74314 -0.669136 0
    outer loop
      vertex 0.954914 -2.93893 2
      vertex 1.65435 -3.71572 0
      vertex 1.65435 -3.71572 2
    endloop
  endfacet
  facet normal -0.994522 0.104528 0
    outer loop
      vertex 0 0 0
      vertex 0.109262 1.03956 2
      vertex 0.109262 1.03956 0
    endloop
  endfacet
  facet normal -0.994522 0.104528 0
    outer loop
      vertex 0.109262 1.03956 2
      vertex 0 0 0
      vertex 0 0 2
    endloop
  endfacet
  facet normal -0.207913 0.978147 0
    outer loop
      vertex 4.47736 4.97261 0
      vertex 3.45491 4.75528 2
      vertex 4.47736 4.97261 2
    endloop
  endfacet
  facet normal -0.207913 0.978147 0
    outer loop
      vertex 3.45491 4.75528 2
      vertex 4.47736 4.97261 0
      vertex 3.45491 4.75528 0
    endloop
  endfacet
  facet normal -0.587791 0.809013 0
    outer loop
      vertex 2.5 4.33013 0
      vertex 1.65435 3.71572 2
      vertex 2.5 4.33013 2
    endloop
  endfacet
  facet normal -0.587791 0.809013 0
    outer loop
      vertex 1.65435 3.71572 2
      vertex 2.5 4.33013 0
      vertex 1.65435 3.71572 0
    endloop
  endfacet
  facet normal -0.866027 -0.499997 0
    outer loop
      vertex 0.954914 -2.93893 0
      vertex 0.432272 -2.03368 2
      vertex 0.432272 -2.03368 0
    endloop
  endfacet
  facet normal -0.866027 -0.499997 0
    outer loop
      vertex 0.432272 -2.03368 2
      vertex 0.954914 -2.93893 0
      vertex 0.954914 -2.93893 2
    endloop
  endfacet
  facet normal -0.994522 -0.104528 0
    outer loop
      vertex 0.109262 -1.03956 0
      vertex 0 0 2
      vertex 0 0 0
    endloop
  endfacet
  facet normal -0.994522 -0.104528 0
    outer loop
      vertex 0 0 2
      vertex 0.109262 -1.03956 0
      vertex 0.109262 -1.03956 2
    endloop
  endfacet
  facet normal 0 0 -1
    outer loop
      vertex 3.45491 -4.75528 0
      vertex 5 -4.97261 0
      vertex 4.47736 -4.97261 0
    endloop
  endfacet
  facet normal 0 0 -1
    outer loop
      vertex 2.5 -4.33013 0
      vertex 5 -4.97261 0
      vertex 3.45491 -4.75528 0
    endloop
  endfacet
  facet normal 0 0 -1
    outer loop
      vertex 5 -4.97261 0
      vertex 2.5 -4.33013 0
      vertex 5 4.97261 0
    endloop
  endfacet
  facet normal -0 0 -1
    outer loop
      vertex 5 4.97261 0
      vertex 3.45491 4.75528 0
      vertex 4.47736 4.97261 0
    endloop
  endfacet
  facet normal 0 0 -1
    outer loop
      vertex 2.5 4.33013 0
      vertex 5 4.97261 0
      vertex 2.5 -4.33013 0
    endloop
  endfacet
  facet normal 0 0 -1
    outer loop
      vertex 5 4.97261 0
      vertex 2.5 4.33013 0
      vertex 3.45491 4.75528 0
    endloop
  endfacet
  facet normal 0 0 -1
    outer loop
      vertex 1.65435 -3.71572 0
      vertex 2.5 4.33013 0
      vertex 2.5 -4.33013 0
    endloop
  endfacet
  facet normal 0 0 -1
    outer loop
      vertex 1.65435 -3.71572 0
      vertex 1.65435 3.71572 0
      vertex 2.5 4.33013 0
    endloop
  endfacet
  facet normal 0 0 -1
    outer loop
      vertex 0.954914 -2.93893 0
      vertex 1.65435 3.71572 0
      vertex 1.65435 -3.71572 0
    endloop
  endfacet
  facet normal 0 0 -1
    outer loop
      vertex 0.954914 -2.93893 0
      vertex 0.954914 2.93893 0
      vertex 1.65435 3.71572 0
    endloop
  endfacet
  facet normal 0 0 -1
    outer loop
      vertex 0.432272 -2.03368 0
      vertex 0.954914 2.93893 0
      vertex 0.954914 -2.93893 0
    endloop
  endfacet
  facet normal 0 0 -1
    outer loop
      vertex 0.432272 -2.03368 0
      vertex 0.432272 2.03368 0
      vertex 0.954914 2.93893 0
    endloop
  endfacet
  facet normal 0 0 -1
    outer loop
      vertex 0.109262 -1.03956 0
      vertex 0.432272 2.03368 0
      vertex 0.432272 -2.03368 0
    endloop
  endfacet
  facet normal 0 0 -1
    outer loop
      vertex 0.109262 -1.03956 0
      vertex 0.109262 1.03956 0
      vertex 0.432272 2.03368 0
    endloop
  endfacet
  facet normal 0 -0 -1
    outer loop
      vertex 0.109262 1.03956 0
      vertex 0.109262 -1.03956 0
      vertex 0 0 0
    endloop
  endfacet
  facet normal 0 0 -1
    outer loop
      vertex 20.01 -1 0
      vertex 120 1 0
      vertex 120 -1 0
    endloop
  endfacet
  facet normal 0 0 -1
    outer loop
      vertex 20.01 -1 0
      vertex 20.01 1 0
      vertex 120 1 0
    endloop
  endfacet
  facet normal 0 0 -1
    outer loop
      vertex 10.01 -5 0
      vertex 20.01 1 0
      vertex 20.01 -1 0
    endloop
  endfacet
  facet normal 0 0 -1
    outer loop
      vertex 10.01 -5 0
      vertex 10.01 5 0
      vertex 20.01 1 0
    endloop
  endfacet
  facet normal 0 0 -1
    outer loop
      vertex 5 -4.97261 0
      vertex 10.01 -5 0
      vertex 5 -5 0
    endloop
  endfacet
  facet normal 0 0 -1
    outer loop
      vertex 10.01 -5 0
      vertex 5 -4.97261 0
      vertex 10.01 5 0
    endloop
  endfacet
  facet normal 0 0 -1
    outer loop
      vertex 5 4.97261 0
      vertex 10.01 5 0
      vertex 5 -4.97261 0
    endloop
  endfacet
  facet normal -0 0 -1
    outer loop
      vertex 10.01 5 0
      vertex 5 4.97261 0
      vertex 5 5 0
    endloop
  endfacet
  facet normal -0.866027 0.499997 0
    outer loop
      vertex 0.432272 2.03368 0
      vertex 0.954914 2.93893 2
      vertex 0.954914 2.93893 0
    endloop
  endfacet
  facet normal -0.866027 0.499997 0
    outer loop
      vertex 0.954914 2.93893 2
      vertex 0.432272 2.03368 0
      vertex 0.432272 2.03368 2
    endloop
  endfacet
  facet normal -1 0 0
    outer loop
      vertex 5 4.97261 0
      vertex 5 5 2
      vertex 5 5 0
    endloop
  endfacet
  facet normal -1 -0 0
    outer loop
      vertex 5 5 2
      vertex 5 4.97261 0
      vertex 5 4.97261 2
    endloop
  endfacet
  facet normal -1 0 0
    outer loop
      vertex 5 -5 0
      vertex 5 -4.97261 2
      vertex 5 -4.97261 0
    endloop
  endfacet
  facet normal -1 -0 0
    outer loop
      vertex 5 -4.97261 2
      vertex 5 -5 0
      vertex 5 -5 2
    endloop
  endfacet
  facet normal 0 1 -0
    outer loop
      vertex 10.01 5 0
      vertex 10 5 2
      vertex 10.01 5 2
    endloop
  endfacet
  facet normal 0 1 0
    outer loop
      vertex 10 5 2
      vertex 10.01 5 0
      vertex 5 5 2
    endloop
  endfacet
  facet normal 0 1 0
    outer loop
      vertex 5 5 2
      vertex 10.01 5 0
      vertex 5 5 0
    endloop
  endfacet
  facet normal 0 -1 0
    outer loop
      vertex 5 -5 0
      vertex 10 -5 2
      vertex 5 -5 2
    endloop
  endfacet
  facet normal 0 -1 0
    outer loop
      vertex 10.01 -5 0
      vertex 10 -5 2
      vertex 5 -5 0
    endloop
  endfacet
  facet normal 0 -1 0
    outer loop
      vertex 10 -5 2
      vertex 10.01 -5 0
      vertex 10.01 -5 2
    endloop
  endfacet
  facet normal 0.371391 -0.928477 0
    outer loop
      vertex 20.01 -1 0
      vertex 10.01 -5 2
      vertex 10.01 -5 0
    endloop
  endfacet
  facet normal 0.371391 -0.928477 0
    outer loop
      vertex 10.01 -5 2
      vertex 20.01 -1 0
      vertex 20.01 -1 10
    endloop
  endfacet
  facet normal 0 -0.894427 0.447214
    outer loop
      vertex 10.01 -5 2
      vertex 20 -1 10
      vertex 10 -5 2
    endloop
  endfacet
  facet normal 0 -0.894427 0.447214
    outer loop
      vertex 20 -1 10
      vertex 10.01 -5 2
      vertex 20.01 -1 10
    endloop
  endfacet
  facet normal -0.624695 0 0.780869
    outer loop
      vertex 10 5 2
      vertex 20 -1 10
      vertex 20 1 10
    endloop
  endfacet
  facet normal -0.624695 0 0.780869
    outer loop
      vertex 20 -1 10
      vertex 10 5 2
      vertex 10 -5 2
    endloop
  endfacet
  facet normal 0.371391 0.928477 -0
    outer loop
      vertex 20.01 1 0
      vertex 10.01 5 2
      vertex 20.01 1 10
    endloop
  endfacet
  facet normal 0.371391 0.928477 0
    outer loop
      vertex 10.01 5 2
      vertex 20.01 1 0
      vertex 10.01 5 0
    endloop
  endfacet
  facet normal -0 0 1
    outer loop
      vertex 20.01 1 10
      vertex 120 -1 10
      vertex 120 1 10
    endloop
  endfacet
  facet normal 0 0 1
    outer loop
      vertex 20.01 1 10
      vertex 20.01 -1 10
      vertex 120 -1 10
    endloop
  endfacet
  facet normal -0 0 1
    outer loop
      vertex 20 1 10
      vertex 20.01 -1 10
      vertex 20.01 1 10
    endloop
  endfacet
  facet normal 0 0 1
    outer loop
      vertex 20.01 -1 10
      vertex 20 1 10
      vertex 20 -1 10
    endloop
  endfacet
  facet normal 0 0.894427 0.447214
    outer loop
      vertex 10.01 5 2
      vertex 20 1 10
      vertex 20.01 1 10
    endloop
  endfacet
  facet normal 0 0.894427 0.447214
    outer loop
      vertex 20 1 10
      vertex 10.01 5 2
      vertex 10 5 2
    endloop
  endfacet
  facet normal 1 -0 0
    outer loop
      vertex 120 -1 10
      vertex 120 1 0
      vertex 120 1 10
    endloop
  endfacet
  facet normal 1 0 0
    outer loop
      vertex 120 1 0
      vertex 120 -1 10
      vertex 120 -1 0
    endloop
  endfacet
  facet normal 0 1 0
    outer loop
      vertex 104.758 1 6.6827
      vertex 95.8062 1 6.54637
      vertex 94.8581 1 6.6827
    endloop
  endfacet
  facet normal 0 1 -0
    outer loop
      vertex 103.887 1 6.28477
      vertex 95.8062 1 6.54637
      vertex 104.758 1 6.6827
    endloop
  endfacet
  facet normal 0 1 0
    outer loop
      vertex 103.887 1 6.28477
      vertex 96.5301 1 5.91909
      vertex 95.8062 1 6.54637
    endloop
  endfacet
  facet normal 0 1 -0
    outer loop
      vertex 103.369 1 5.47894
      vertex 96.5301 1 5.91909
      vertex 103.887 1 6.28477
    endloop
  endfacet
  facet normal 0 1 0
    outer loop
      vertex 103.369 1 5.47894
      vertex 96.8 1 5
      vertex 96.5301 1 5.91909
    endloop
  endfacet
  facet normal 0 1 -0
    outer loop
      vertex 103.369 1 4.52105
      vertex 96.8 1 5
      vertex 103.369 1 5.47894
    endloop
  endfacet
  facet normal 0 1 0
    outer loop
      vertex 103.369 1 4.52105
      vertex 96.5301 1 4.08091
      vertex 96.8 1 5
    endloop
  endfacet
  facet normal 0 1 0
    outer loop
      vertex 103.887 1 3.71523
      vertex 96.5301 1 4.08091
      vertex 103.369 1 4.52105
    endloop
  endfacet
  facet normal 0 1 0
    outer loop
      vertex 103.887 1 3.71523
      vertex 95.8062 1 3.45362
      vertex 96.5301 1 4.08091
    endloop
  endfacet
  facet normal 0 1 0
    outer loop
      vertex 104.758 1 3.3173
      vertex 95.8062 1 3.45362
      vertex 103.887 1 3.71523
    endloop
  endfacet
  facet normal 0 1 0
    outer loop
      vertex 95.8062 1 3.45362
      vertex 104.758 1 3.3173
      vertex 94.8581 1 3.3173
    endloop
  endfacet
  facet normal 0 1 0
    outer loop
      vertex 120 1 10
      vertex 105.706 1 6.54637
      vertex 104.758 1 6.6827
    endloop
  endfacet
  facet normal 0 1 -0
    outer loop
      vertex 113.787 1 6.28477
      vertex 105.706 1 6.54637
      vertex 114.658 1 6.6827
    endloop
  endfacet
  facet normal 0 1 0
    outer loop
      vertex 113.787 1 6.28477
      vertex 106.43 1 5.91909
      vertex 105.706 1 6.54637
    endloop
  endfacet
  facet normal 0 1 -0
    outer loop
      vertex 113.269 1 5.47894
      vertex 106.43 1 5.91909
      vertex 113.787 1 6.28477
    endloop
  endfacet
  facet normal 0 1 0
    outer loop
      vertex 113.269 1 5.47894
      vertex 106.7 1 5
      vertex 106.43 1 5.91909
    endloop
  endfacet
  facet normal 0 1 -0
    outer loop
      vertex 113.269 1 4.52105
      vertex 106.7 1 5
      vertex 113.269 1 5.47894
    endloop
  endfacet
  facet normal 0 1 0
    outer loop
      vertex 113.269 1 4.52105
      vertex 106.43 1 4.08091
      vertex 106.7 1 5
    endloop
  endfacet
  facet normal 0 1 0
    outer loop
      vertex 113.787 1 3.71523
      vertex 106.43 1 4.08091
      vertex 113.269 1 4.52105
    endloop
  endfacet
  facet normal 0 1 0
    outer loop
      vertex 113.787 1 3.71523
      vertex 105.706 1 3.45362
      vertex 106.43 1 4.08091
    endloop
  endfacet
  facet normal 0 1 0
    outer loop
      vertex 114.658 1 3.3173
      vertex 105.706 1 3.45362
      vertex 113.787 1 3.71523
    endloop
  endfacet
  facet normal 0 1 0
    outer loop
      vertex 120 1 0
      vertex 105.706 1 3.45362
      vertex 114.658 1 3.3173
    endloop
  endfacet
  facet normal 0 1 0
    outer loop
      vertex 105.706 1 6.54637
      vertex 120 1 10
      vertex 114.658 1 6.6827
    endloop
  endfacet
  facet normal 0 1 0
    outer loop
      vertex 120 1 10
      vertex 115.606 1 6.54637
      vertex 114.658 1 6.6827
    endloop
  endfacet
  facet normal 0 1 0
    outer loop
      vertex 120 1 10
      vertex 116.33 1 5.91909
      vertex 115.606 1 6.54637
    endloop
  endfacet
  facet normal 0 1 0
    outer loop
      vertex 120 1 10
      vertex 116.6 1 5
      vertex 116.33 1 5.91909
    endloop
  endfacet
  facet normal 0 1 -0
    outer loop
      vertex 120 1 0
      vertex 116.6 1 5
      vertex 120 1 10
    endloop
  endfacet
  facet normal 0 1 0
    outer loop
      vertex 105.706 1 3.45362
      vertex 120 1 0
      vertex 104.758 1 3.3173
    endloop
  endfacet
  facet normal 0 1 0
    outer loop
      vertex 104.758 1 3.3173
      vertex 120 1 0
      vertex 94.8581 1 3.3173
    endloop
  endfacet
  facet normal 0 1 0
    outer loop
      vertex 115.606 1 3.45362
      vertex 120 1 0
      vertex 114.658 1 3.3173
    endloop
  endfacet
  facet normal 0 1 0
    outer loop
      vertex 116.33 1 4.08091
      vertex 120 1 0
      vertex 115.606 1 3.45362
    endloop
  endfacet
  facet normal 0 1 0
    outer loop
      vertex 116.6 1 5
      vertex 120 1 0
      vertex 116.33 1 4.08091
    endloop
  endfacet
  facet normal 0 1 0
    outer loop
      vertex 94.8581 1 6.6827
      vertex 120 1 10
      vertex 104.758 1 6.6827
    endloop
  endfacet
  facet normal 0 1 0
    outer loop
      vertex 120 1 10
      vertex 94.8581 1 6.6827
      vertex 20.01 1 10
    endloop
  endfacet
  facet normal 0 1 -0
    outer loop
      vertex 93.9867 1 6.28477
      vertex 20.01 1 10
      vertex 94.8581 1 6.6827
    endloop
  endfacet
  facet normal 0 1 -0
    outer loop
      vertex 93.4689 1 5.47894
      vertex 20.01 1 10
      vertex 93.9867 1 6.28477
    endloop
  endfacet
  facet normal 0 1 -0
    outer loop
      vertex 93.4689 1 4.52105
      vertex 20.01 1 10
      vertex 93.4689 1 5.47894
    endloop
  endfacet
  facet normal 0 1 0
    outer loop
      vertex 20.01 1 0
      vertex 93.4689 1 4.52105
      vertex 93.9867 1 3.71523
    endloop
  endfacet
  facet normal 0 1 0
    outer loop
      vertex 20.01 1 0
      vertex 93.9867 1 3.71523
      vertex 94.8581 1 3.3173
    endloop
  endfacet
  facet normal 0 1 0
    outer loop
      vertex 20.01 1 0
      vertex 94.8581 1 3.3173
      vertex 120 1 0
    endloop
  endfacet
  facet normal 0 1 0
    outer loop
      vertex 93.4689 1 4.52105
      vertex 20.01 1 0
      vertex 20.01 1 10
    endloop
  endfacet
  facet normal 0 -1 0
    outer loop
      vertex 120 -1 10
      vertex 105.706 -1 6.54637
      vertex 114.658 -1 6.6827
    endloop
  endfacet
  facet normal 0 -1 0
    outer loop
      vertex 105.706 -1 6.54637
      vertex 113.787 -1 6.28477
      vertex 114.658 -1 6.6827
    endloop
  endfacet
  facet normal 0 -1 0
    outer loop
      vertex 106.43 -1 5.91909
      vertex 113.787 -1 6.28477
      vertex 105.706 -1 6.54637
    endloop
  endfacet
  facet normal 0 -1 0
    outer loop
      vertex 106.43 -1 5.91909
      vertex 113.269 -1 5.47894
      vertex 113.787 -1 6.28477
    endloop
  endfacet
  facet normal 0 -1 0
    outer loop
      vertex 106.7 -1 5
      vertex 113.269 -1 5.47894
      vertex 106.43 -1 5.91909
    endloop
  endfacet
  facet normal 0 -1 0
    outer loop
      vertex 106.7 -1 5
      vertex 113.269 -1 4.52105
      vertex 113.269 -1 5.47894
    endloop
  endfacet
  facet normal 0 -1 0
    outer loop
      vertex 106.43 -1 4.08091
      vertex 113.269 -1 4.52105
      vertex 106.7 -1 5
    endloop
  endfacet
  facet normal 0 -1 0
    outer loop
      vertex 106.43 -1 4.08091
      vertex 113.787 -1 3.71523
      vertex 113.269 -1 4.52105
    endloop
  endfacet
  facet normal 0 -1 0
    outer loop
      vertex 105.706 -1 3.45362
      vertex 113.787 -1 3.71523
      vertex 106.43 -1 4.08091
    endloop
  endfacet
  facet normal 0 -1 0
    outer loop
      vertex 120 -1 0
      vertex 105.706 -1 3.45362
      vertex 104.758 -1 3.3173
    endloop
  endfacet
  facet normal 0 -1 0
    outer loop
      vertex 105.706 -1 3.45362
      vertex 114.658 -1 3.3173
      vertex 113.787 -1 3.71523
    endloop
  endfacet
  facet normal 0 -1 0
    outer loop
      vertex 95.8062 -1 6.54637
      vertex 104.758 -1 6.6827
      vertex 94.8581 -1 6.6827
    endloop
  endfacet
  facet normal 0 -1 0
    outer loop
      vertex 95.8062 -1 6.54637
      vertex 103.887 -1 6.28477
      vertex 104.758 -1 6.6827
    endloop
  endfacet
  facet normal 0 -1 0
    outer loop
      vertex 96.5301 -1 5.91909
      vertex 103.887 -1 6.28477
      vertex 95.8062 -1 6.54637
    endloop
  endfacet
  facet normal 0 -1 0
    outer loop
      vertex 96.5301 -1 5.91909
      vertex 103.369 -1 5.47894
      vertex 103.887 -1 6.28477
    endloop
  endfacet
  facet normal 0 -1 0
    outer loop
      vertex 96.8 -1 5
      vertex 103.369 -1 5.47894
      vertex 96.5301 -1 5.91909
    endloop
  endfacet
  facet normal 0 -1 0
    outer loop
      vertex 96.8 -1 5
      vertex 103.369 -1 4.52105
      vertex 103.369 -1 5.47894
    endloop
  endfacet
  facet normal 0 -1 0
    outer loop
      vertex 96.5301 -1 4.08091
      vertex 103.369 -1 4.52105
      vertex 96.8 -1 5
    endloop
  endfacet
  facet normal 0 -1 0
    outer loop
      vertex 96.5301 -1 4.08091
      vertex 103.887 -1 3.71523
      vertex 103.369 -1 4.52105
    endloop
  endfacet
  facet normal 0 -1 0
    outer loop
      vertex 95.8062 -1 3.45362
      vertex 103.887 -1 3.71523
      vertex 96.5301 -1 4.08091
    endloop
  endfacet
  facet normal 0 -1 0
    outer loop
      vertex 104.758 -1 3.3173
      vertex 95.8062 -1 3.45362
      vertex 94.8581 -1 3.3173
    endloop
  endfacet
  facet normal 0 -1 0
    outer loop
      vertex 95.8062 -1 3.45362
      vertex 104.758 -1 3.3173
      vertex 103.887 -1 3.71523
    endloop
  endfacet
  facet normal 0 -1 0
    outer loop
      vertex 20.01 -1 10
      vertex 94.8581 -1 6.6827
      vertex 120 -1 10
    endloop
  endfacet
  facet normal 0 -1 0
    outer loop
      vertex 20.01 -1 10
      vertex 93.9867 -1 6.28477
      vertex 94.8581 -1 6.6827
    endloop
  endfacet
  facet normal 0 -1 0
    outer loop
      vertex 20.01 -1 10
      vertex 93.4689 -1 5.47894
      vertex 93.9867 -1 6.28477
    endloop
  endfacet
  facet normal 0 -1 0
    outer loop
      vertex 20.01 -1 10
      vertex 93.4689 -1 4.52105
      vertex 93.4689 -1 5.47894
    endloop
  endfacet
  facet normal 0 -1 0
    outer loop
      vertex 20.01 -1 0
      vertex 93.4689 -1 4.52105
      vertex 20.01 -1 10
    endloop
  endfacet
  facet normal 0 -1 -0
    outer loop
      vertex 93.4689 -1 4.52105
      vertex 20.01 -1 0
      vertex 93.9867 -1 3.71523
    endloop
  endfacet
  facet normal 0 -1 0
    outer loop
      vertex 120 -1 0
      vertex 104.758 -1 3.3173
      vertex 94.8581 -1 3.3173
    endloop
  endfacet
  facet normal 0 -1 0
    outer loop
      vertex 120 -1 0
      vertex 94.8581 -1 3.3173
      vertex 20.01 -1 0
    endloop
  endfacet
  facet normal 0 -1 -0
    outer loop
      vertex 93.9867 -1 3.71523
      vertex 20.01 -1 0
      vertex 94.8581 -1 3.3173
    endloop
  endfacet
  facet normal 0 -1 0
    outer loop
      vertex 104.758 -1 6.6827
      vertex 120 -1 10
      vertex 94.8581 -1 6.6827
    endloop
  endfacet
  facet normal 0 -1 0
    outer loop
      vertex 105.706 -1 6.54637
      vertex 120 -1 10
      vertex 104.758 -1 6.6827
    endloop
  endfacet
  facet normal 0 -1 0
    outer loop
      vertex 115.606 -1 6.54637
      vertex 120 -1 10
      vertex 114.658 -1 6.6827
    endloop
  endfacet
  facet normal 0 -1 0
    outer loop
      vertex 116.33 -1 5.91909
      vertex 120 -1 10
      vertex 115.606 -1 6.54637
    endloop
  endfacet
  facet normal 0 -1 0
    outer loop
      vertex 116.6 -1 5
      vertex 120 -1 10
      vertex 116.33 -1 5.91909
    endloop
  endfacet
  facet normal 0 -1 0
    outer loop
      vertex 120 -1 0
      vertex 116.6 -1 5
      vertex 116.33 -1 4.08091
    endloop
  endfacet
  facet normal 0 -1 0
    outer loop
      vertex 116.6 -1 5
      vertex 120 -1 0
      vertex 120 -1 10
    endloop
  endfacet
  facet normal 0 -1 0
    outer loop
      vertex 115.606 -1 3.45362
      vertex 120 -1 0
      vertex 116.33 -1 4.08091
    endloop
  endfacet
  facet normal 0 -1 0
    outer loop
      vertex 114.658 -1 3.3173
      vertex 120 -1 0
      vertex 115.606 -1 3.45362
    endloop
  endfacet
  facet normal 0 -1 0
    outer loop
      vertex 105.706 -1 3.45362
      vertex 120 -1 0
      vertex 114.658 -1 3.3173
    endloop
  endfacet
  facet normal 0.841289 0 -0.540585
    outer loop
      vertex 93.9867 -1 6.28477
      vertex 93.4689 1 5.47894
      vertex 93.9867 1 6.28477
    endloop
  endfacet
  facet normal 0.841289 0 -0.540585
    outer loop
      vertex 93.4689 1 5.47894
      vertex 93.9867 -1 6.28477
      vertex 93.4689 -1 5.47894
    endloop
  endfacet
  facet normal -0.654877 0 0.755736
    outer loop
      vertex 95.8062 1 3.45362
      vertex 96.5301 -1 4.08091
      vertex 96.5301 1 4.08091
    endloop
  endfacet
  facet normal -0.654877 0 0.755736
    outer loop
      vertex 96.5301 -1 4.08091
      vertex 95.8062 1 3.45362
      vertex 95.8062 -1 3.45362
    endloop
  endfacet
  facet normal -0.959484 0 0.281762
    outer loop
      vertex 96.5301 -1 4.08091
      vertex 96.8 1 5
      vertex 96.5301 1 4.08091
    endloop
  endfacet
  facet normal -0.959484 0 0.281762
    outer loop
      vertex 96.8 1 5
      vertex 96.5301 -1 4.08091
      vertex 96.8 -1 5
    endloop
  endfacet
  facet normal -0.142319 0 0.989821
    outer loop
      vertex 94.8581 1 3.3173
      vertex 95.8062 -1 3.45362
      vertex 95.8062 1 3.45362
    endloop
  endfacet
  facet normal -0.142319 0 0.989821
    outer loop
      vertex 95.8062 -1 3.45362
      vertex 94.8581 1 3.3173
      vertex 94.8581 -1 3.3173
    endloop
  endfacet
  facet normal 0.415393 0 -0.909642
    outer loop
      vertex 93.9867 -1 6.28477
      vertex 94.8581 1 6.6827
      vertex 94.8581 -1 6.6827
    endloop
  endfacet
  facet normal 0.415393 0 -0.909642
    outer loop
      vertex 94.8581 1 6.6827
      vertex 93.9867 -1 6.28477
      vertex 93.9867 1 6.28477
    endloop
  endfacet
  facet normal -0.959484 0 -0.281762
    outer loop
      vertex 96.8 -1 5
      vertex 96.5301 1 5.91909
      vertex 96.8 1 5
    endloop
  endfacet
  facet normal -0.959484 -0 -0.281762
    outer loop
      vertex 96.5301 1 5.91909
      vertex 96.8 -1 5
      vertex 96.5301 -1 5.91909
    endloop
  endfacet
  facet normal 0.841286 -0 0.54059
    outer loop
      vertex 93.4689 -1 4.52105
      vertex 93.9867 1 3.71523
      vertex 93.4689 1 4.52105
    endloop
  endfacet
  facet normal 0.841286 0 0.54059
    outer loop
      vertex 93.9867 1 3.71523
      vertex 93.4689 -1 4.52105
      vertex 93.9867 -1 3.71523
    endloop
  endfacet
  facet normal 0.415393 0 0.909642
    outer loop
      vertex 93.9867 1 3.71523
      vertex 94.8581 -1 3.3173
      vertex 94.8581 1 3.3173
    endloop
  endfacet
  facet normal 0.415393 0 0.909642
    outer loop
      vertex 94.8581 -1 3.3173
      vertex 93.9867 1 3.71523
      vertex 93.9867 -1 3.71523
    endloop
  endfacet
  facet normal 1 -0 0
    outer loop
      vertex 93.4689 -1 5.47894
      vertex 93.4689 1 4.52105
      vertex 93.4689 1 5.47894
    endloop
  endfacet
  facet normal 1 0 0
    outer loop
      vertex 93.4689 1 4.52105
      vertex 93.4689 -1 5.47894
      vertex 93.4689 -1 4.52105
    endloop
  endfacet
  facet normal -0.654871 0 -0.755741
    outer loop
      vertex 95.8062 -1 6.54637
      vertex 96.5301 1 5.91909
      vertex 96.5301 -1 5.91909
    endloop
  endfacet
  facet normal -0.654871 0 -0.755741
    outer loop
      vertex 96.5301 1 5.91909
      vertex 95.8062 -1 6.54637
      vertex 95.8062 1 6.54637
    endloop
  endfacet
  facet normal -0.142329 0 -0.989819
    outer loop
      vertex 94.8581 -1 6.6827
      vertex 95.8062 1 6.54637
      vertex 95.8062 -1 6.54637
    endloop
  endfacet
  facet normal -0.142329 0 -0.989819
    outer loop
      vertex 95.8062 1 6.54637
      vertex 94.8581 -1 6.6827
      vertex 94.8581 1 6.6827
    endloop
  endfacet
  facet normal 0.841194 0 -0.540733
    outer loop
      vertex 103.887 -1 6.28477
      vertex 103.369 1 5.47894
      vertex 103.887 1 6.28477
    endloop
  endfacet
  facet normal 0.841194 0 -0.540733
    outer loop
      vertex 103.369 1 5.47894
      vertex 103.887 -1 6.28477
      vertex 103.369 -1 5.47894
    endloop
  endfacet
  facet normal -0.654825 0 0.75578
    outer loop
      vertex 105.706 1 3.45362
      vertex 106.43 -1 4.08091
      vertex 106.43 1 4.08091
    endloop
  endfacet
  facet normal -0.654825 0 0.75578
    outer loop
      vertex 106.43 -1 4.08091
      vertex 105.706 1 3.45362
      vertex 105.706 -1 3.45362
    endloop
  endfacet
  facet normal -0.959456 0 0.281858
    outer loop
      vertex 106.43 -1 4.08091
      vertex 106.7 1 5
      vertex 106.43 1 4.08091
    endloop
  endfacet
  facet normal -0.959456 0 0.281858
    outer loop
      vertex 106.7 1 5
      vertex 106.43 -1 4.08091
      vertex 106.7 -1 5
    endloop
  endfacet
  facet normal -0.142333 0 0.989819
    outer loop
      vertex 104.758 1 3.3173
      vertex 105.706 -1 3.45362
      vertex 105.706 1 3.45362
    endloop
  endfacet
  facet normal -0.142333 0 0.989819
    outer loop
      vertex 105.706 -1 3.45362
      vertex 104.758 1 3.3173
      vertex 104.758 -1 3.3173
    endloop
  endfacet
  facet normal 0.415551 0 0.90957
    outer loop
      vertex 103.887 1 3.71523
      vertex 104.758 -1 3.3173
      vertex 104.758 1 3.3173
    endloop
  endfacet
  facet normal 0.415551 0 0.90957
    outer loop
      vertex 104.758 -1 3.3173
      vertex 103.887 1 3.71523
      vertex 103.887 -1 3.71523
    endloop
  endfacet
  facet normal -0.959456 0 -0.281858
    outer loop
      vertex 106.7 -1 5
      vertex 106.43 1 5.91909
      vertex 106.7 1 5
    endloop
  endfacet
  facet normal -0.959456 -0 -0.281858
    outer loop
      vertex 106.43 1 5.91909
      vertex 106.7 -1 5
      vertex 106.43 -1 5.91909
    endloop
  endfacet
  facet normal 0.415551 0 -0.90957
    outer loop
      vertex 103.887 -1 6.28477
      vertex 104.758 1 6.6827
      vertex 104.758 -1 6.6827
    endloop
  endfacet
  facet normal 0.415551 0 -0.90957
    outer loop
      vertex 104.758 1 6.6827
      vertex 103.887 -1 6.28477
      vertex 103.887 1 6.28477
    endloop
  endfacet
  facet normal -0.142344 0 -0.989817
    outer loop
      vertex 104.758 -1 6.6827
      vertex 105.706 1 6.54637
      vertex 105.706 -1 6.54637
    endloop
  endfacet
  facet normal -0.142344 0 -0.989817
    outer loop
      vertex 105.706 1 6.54637
      vertex 104.758 -1 6.6827
      vertex 104.758 1 6.6827
    endloop
  endfacet
  facet normal -0.654819 0 -0.755786
    outer loop
      vertex 105.706 -1 6.54637
      vertex 106.43 1 5.91909
      vertex 106.43 -1 5.91909
    endloop
  endfacet
  facet normal -0.654819 0 -0.755786
    outer loop
      vertex 106.43 1 5.91909
      vertex 105.706 -1 6.54637
      vertex 105.706 1 6.54637
    endloop
  endfacet
  facet normal 1 -0 0
    outer loop
      vertex 103.369 -1 5.47894
      vertex 103.369 1 4.52105
      vertex 103.369 1 5.47894
    endloop
  endfacet
  facet normal 1 0 0
    outer loop
      vertex 103.369 1 4.52105
      vertex 103.369 -1 5.47894
      vertex 103.369 -1 4.52105
    endloop
  endfacet
  facet normal 0.841191 -0 0.540738
    outer loop
      vertex 103.369 -1 4.52105
      vertex 103.887 1 3.71523
      vertex 103.369 1 4.52105
    endloop
  endfacet
  facet normal 0.841191 0 0.540738
    outer loop
      vertex 103.887 1 3.71523
      vertex 103.369 -1 4.52105
      vertex 103.887 -1 3.71523
    endloop
  endfacet
  facet normal 0.415551 0 0.90957
    outer loop
      vertex 113.787 1 3.71523
      vertex 114.658 -1 3.3173
      vertex 114.658 1 3.3173
    endloop
  endfacet
  facet normal 0.415551 0 0.90957
    outer loop
      vertex 114.658 -1 3.3173
      vertex 113.787 1 3.71523
      vertex 113.787 -1 3.71523
    endloop
  endfacet
  facet normal 0.841194 0 -0.540733
    outer loop
      vertex 113.787 -1 6.28477
      vertex 113.269 1 5.47894
      vertex 113.787 1 6.28477
    endloop
  endfacet
  facet normal 0.841194 0 -0.540733
    outer loop
      vertex 113.269 1 5.47894
      vertex 113.787 -1 6.28477
      vertex 113.269 -1 5.47894
    endloop
  endfacet
  facet normal -0.654825 0 0.75578
    outer loop
      vertex 115.606 1 3.45362
      vertex 116.33 -1 4.08091
      vertex 116.33 1 4.08091
    endloop
  endfacet
  facet normal -0.654825 0 0.75578
    outer loop
      vertex 116.33 -1 4.08091
      vertex 115.606 1 3.45362
      vertex 115.606 -1 3.45362
    endloop
  endfacet
  facet normal -0.959456 0 0.281858
    outer loop
      vertex 116.33 -1 4.08091
      vertex 116.6 1 5
      vertex 116.33 1 4.08091
    endloop
  endfacet
  facet normal -0.959456 0 0.281858
    outer loop
      vertex 116.6 1 5
      vertex 116.33 -1 4.08091
      vertex 116.6 -1 5
    endloop
  endfacet
  facet normal -0.142333 0 0.989819
    outer loop
      vertex 114.658 1 3.3173
      vertex 115.606 -1 3.45362
      vertex 115.606 1 3.45362
    endloop
  endfacet
  facet normal -0.142333 0 0.989819
    outer loop
      vertex 115.606 -1 3.45362
      vertex 114.658 1 3.3173
      vertex 114.658 -1 3.3173
    endloop
  endfacet
  facet normal -0.959456 0 -0.281858
    outer loop
      vertex 116.6 -1 5
      vertex 116.33 1 5.91909
      vertex 116.6 1 5
    endloop
  endfacet
  facet normal -0.959456 -0 -0.281858
    outer loop
      vertex 116.33 1 5.91909
      vertex 116.6 -1 5
      vertex 116.33 -1 5.91909
    endloop
  endfacet
  facet normal -0.654819 0 -0.755786
    outer loop
      vertex 115.606 -1 6.54637
      vertex 116.33 1 5.91909
      vertex 116.33 -1 5.91909
    endloop
  endfacet
  facet normal -0.654819 0 -0.755786
    outer loop
      vertex 116.33 1 5.91909
      vertex 115.606 -1 6.54637
      vertex 115.606 1 6.54637
    endloop
  endfacet
  facet normal 1 -0 0
    outer loop
      vertex 113.269 -1 5.47894
      vertex 113.269 1 4.52105
      vertex 113.269 1 5.47894
    endloop
  endfacet
  facet normal 1 0 0
    outer loop
      vertex 113.269 1 4.52105
      vertex 113.269 -1 5.47894
      vertex 113.269 -1 4.52105
    endloop
  endfacet
  facet normal 0.415551 0 -0.90957
    outer loop
      vertex 113.787 -1 6.28477
      vertex 114.658 1 6.6827
      vertex 114.658 -1 6.6827
    endloop
  endfacet
  facet normal 0.415551 0 -0.90957
    outer loop
      vertex 114.658 1 6.6827
      vertex 113.787 -1 6.28477
      vertex 113.787 1 6.28477
    endloop
  endfacet
  facet normal 0.841191 -0 0.540738
    outer loop
      vertex 113.269 -1 4.52105
      vertex 113.787 1 3.71523
      vertex 113.269 1 4.52105
    endloop
  endfacet
  facet normal 0.841191 0 0.540738
    outer loop
      vertex 113.787 1 3.71523
      vertex 113.269 -1 4.52105
      vertex 113.787 -1 3.71523
    endloop
  endfacet
  facet normal -0.142344 0 -0.989817
    outer loop
      vertex 114.658 -1 6.6827
      vertex 115.606 1 6.54637
      vertex 115.606 -1 6.54637
    endloop
  endfacet
  facet normal -0.142344 0 -0.989817
    outer loop
      vertex 115.606 1 6.54637
      vertex 114.658 -1 6.6827
      vertex 114.658 1 6.6827
    endloop
  endfacet
endsolid OpenSCAD_Model
