solid OpenSCAD_Model
  facet normal 1 -0 0
    outer loop
      vertex 58.5 0 10.8
      vertex 58.5 3.6 1.2
      vertex 58.5 3.6 10.8
    endloop
  endfacet
  facet normal 1 0 0
    outer loop
      vertex 58.5 3.6 1.2
      vertex 58.5 0 10.8
      vertex 58.5 0 1.2
    endloop
  endfacet
  facet normal 0 0 1
    outer loop
      vertex 35.75 7.2 10.8
      vertex 29.25 7.2 10.8
      vertex 35.75 3.6 10.8
    endloop
  endfacet
  facet normal -0 0 1
    outer loop
      vertex 35.75 3.6 10.8
      vertex 58.5 0 10.8
      vertex 58.5 3.6 10.8
    endloop
  endfacet
  facet normal 0 0 1
    outer loop
      vertex 29.25 3.6 10.8
      vertex 35.75 3.6 10.8
      vertex 29.25 7.2 10.8
    endloop
  endfacet
  facet normal -0 0 1
    outer loop
      vertex 29.25 3.6 10.8
      vertex 58.5 0 10.8
      vertex 35.75 3.6 10.8
    endloop
  endfacet
  facet normal 0 0 1
    outer loop
      vertex 6.5 0 10.8
      vertex 29.25 3.6 10.8
      vertex 6.5 3.6 10.8
    endloop
  endfacet
  facet normal 0 0 1
    outer loop
      vertex 29.25 3.6 10.8
      vertex 6.5 0 10.8
      vertex 58.5 0 10.8
    endloop
  endfacet
  facet normal 0 0 -1
    outer loop
      vertex 58.5 0 1.2
      vertex 35.75 3.6 1.2
      vertex 58.5 3.6 1.2
    endloop
  endfacet
  facet normal 0 0 -1
    outer loop
      vertex 35.75 3.6 1.2
      vertex 29.25 3.6 1.2
      vertex 35.75 7.2 1.2
    endloop
  endfacet
  facet normal 0 0 -1
    outer loop
      vertex 58.5 0 1.2
      vertex 29.25 3.6 1.2
      vertex 35.75 3.6 1.2
    endloop
  endfacet
  facet normal 0 0 -1
    outer loop
      vertex 6.5 0 1.2
      vertex 29.25 3.6 1.2
      vertex 58.5 0 1.2
    endloop
  endfacet
  facet normal -0 0 -1
    outer loop
      vertex 29.25 3.6 1.2
      vertex 6.5 0 1.2
      vertex 6.5 3.6 1.2
    endloop
  endfacet
  facet normal -0 0 -1
    outer loop
      vertex 35.75 7.2 1.2
      vertex 29.25 3.6 1.2
      vertex 29.25 7.2 1.2
    endloop
  endfacet
  facet normal -1 0 0
    outer loop
      vertex 6.5 0 1.2
      vertex 6.5 3.6 10.8
      vertex 6.5 3.6 1.2
    endloop
  endfacet
  facet normal -1 -0 0
    outer loop
      vertex 6.5 3.6 10.8
      vertex 6.5 0 1.2
      vertex 6.5 0 10.8
    endloop
  endfacet
  facet normal 0 1 0
    outer loop
      vertex 29.25 3.6 10.8
      vertex 13 3.6 9.15
      vertex 6.5 3.6 10.8
    endloop
  endfacet
  facet normal 0 1 0
    outer loop
      vertex 29.25 3.6 10.8
      vertex 13.9734 3.6 8.99583
      vertex 13 3.6 9.15
    endloop
  endfacet
  facet normal 0 1 0
    outer loop
      vertex 29.25 3.6 10.8
      vertex 14.8515 3.6 8.5484
      vertex 13.9734 3.6 8.99583
    endloop
  endfacet
  facet normal 0 1 0
    outer loop
      vertex 29.25 3.6 10.8
      vertex 15.5484 3.6 7.85152
      vertex 14.8515 3.6 8.5484
    endloop
  endfacet
  facet normal 0 1 0
    outer loop
      vertex 29.25 3.6 10.8
      vertex 15.9958 3.6 6.9734
      vertex 15.5484 3.6 7.85152
    endloop
  endfacet
  facet normal 0 1 0
    outer loop
      vertex 29.25 3.6 10.8
      vertex 16.15 3.6 6
      vertex 15.9958 3.6 6.9734
    endloop
  endfacet
  facet normal 0 1 -0
    outer loop
      vertex 29.25 3.6 1.2
      vertex 16.15 3.6 6
      vertex 29.25 3.6 10.8
    endloop
  endfacet
  facet normal 0 1 0
    outer loop
      vertex 16.15 3.6 6
      vertex 29.25 3.6 1.2
      vertex 15.9958 3.6 5.0266
    endloop
  endfacet
  facet normal 0 1 0
    outer loop
      vertex 15.9958 3.6 5.0266
      vertex 29.25 3.6 1.2
      vertex 15.5484 3.6 4.14848
    endloop
  endfacet
  facet normal 0 1 0
    outer loop
      vertex 13.9734 3.6 3.00417
      vertex 29.25 3.6 1.2
      vertex 13 3.6 2.85
    endloop
  endfacet
  facet normal 0 1 0
    outer loop
      vertex 14.8515 3.6 3.4516
      vertex 29.25 3.6 1.2
      vertex 13.9734 3.6 3.00417
    endloop
  endfacet
  facet normal 0 1 0
    outer loop
      vertex 15.5484 3.6 4.14848
      vertex 29.25 3.6 1.2
      vertex 14.8515 3.6 3.4516
    endloop
  endfacet
  facet normal 0 1 -0
    outer loop
      vertex 12.0266 3.6 8.99583
      vertex 6.5 3.6 10.8
      vertex 13 3.6 9.15
    endloop
  endfacet
  facet normal 0 1 -0
    outer loop
      vertex 11.1485 3.6 8.5484
      vertex 6.5 3.6 10.8
      vertex 12.0266 3.6 8.99583
    endloop
  endfacet
  facet normal 0 1 -0
    outer loop
      vertex 10.4516 3.6 7.85152
      vertex 6.5 3.6 10.8
      vertex 11.1485 3.6 8.5484
    endloop
  endfacet
  facet normal 0 1 -0
    outer loop
      vertex 10.0042 3.6 6.9734
      vertex 6.5 3.6 10.8
      vertex 10.4516 3.6 7.85152
    endloop
  endfacet
  facet normal 0 1 -0
    outer loop
      vertex 9.85 3.6 6
      vertex 6.5 3.6 10.8
      vertex 10.0042 3.6 6.9734
    endloop
  endfacet
  facet normal 0 1 0
    outer loop
      vertex 6.5 3.6 1.2
      vertex 9.85 3.6 6
      vertex 10.0042 3.6 5.0266
    endloop
  endfacet
  facet normal 0 1 0
    outer loop
      vertex 6.5 3.6 1.2
      vertex 10.0042 3.6 5.0266
      vertex 10.4516 3.6 4.14848
    endloop
  endfacet
  facet normal 0 1 0
    outer loop
      vertex 9.85 3.6 6
      vertex 6.5 3.6 1.2
      vertex 6.5 3.6 10.8
    endloop
  endfacet
  facet normal 0 1 0
    outer loop
      vertex 11.1485 3.6 3.4516
      vertex 6.5 3.6 1.2
      vertex 10.4516 3.6 4.14848
    endloop
  endfacet
  facet normal 0 1 0
    outer loop
      vertex 12.0266 3.6 3.00417
      vertex 6.5 3.6 1.2
      vertex 11.1485 3.6 3.4516
    endloop
  endfacet
  facet normal 0 1 0
    outer loop
      vertex 13 3.6 2.85
      vertex 6.5 3.6 1.2
      vertex 12.0266 3.6 3.00417
    endloop
  endfacet
  facet normal 0 1 0
    outer loop
      vertex 6.5 3.6 1.2
      vertex 13 3.6 2.85
      vertex 29.25 3.6 1.2
    endloop
  endfacet
  facet normal 0 1 0
    outer loop
      vertex 58.5 3.6 10.8
      vertex 52 3.6 9.15
      vertex 35.75 3.6 10.8
    endloop
  endfacet
  facet normal 0 1 0
    outer loop
      vertex 58.5 3.6 10.8
      vertex 52.9734 3.6 8.99583
      vertex 52 3.6 9.15
    endloop
  endfacet
  facet normal 0 1 0
    outer loop
      vertex 58.5 3.6 10.8
      vertex 53.8515 3.6 8.5484
      vertex 52.9734 3.6 8.99583
    endloop
  endfacet
  facet normal 0 1 0
    outer loop
      vertex 58.5 3.6 10.8
      vertex 54.5484 3.6 7.85152
      vertex 53.8515 3.6 8.5484
    endloop
  endfacet
  facet normal 0 1 0
    outer loop
      vertex 58.5 3.6 10.8
      vertex 54.9958 3.6 6.9734
      vertex 54.5484 3.6 7.85152
    endloop
  endfacet
  facet normal 0 1 0
    outer loop
      vertex 58.5 3.6 10.8
      vertex 55.15 3.6 6
      vertex 54.9958 3.6 6.9734
    endloop
  endfacet
  facet normal 0 1 -0
    outer loop
      vertex 58.5 3.6 1.2
      vertex 55.15 3.6 6
      vertex 58.5 3.6 10.8
    endloop
  endfacet
  facet normal 0 1 0
    outer loop
      vertex 55.15 3.6 6
      vertex 58.5 3.6 1.2
      vertex 54.9958 3.6 5.0266
    endloop
  endfacet
  facet normal 0 1 0
    outer loop
      vertex 52.9734 3.6 3.00417
      vertex 58.5 3.6 1.2
      vertex 52 3.6 2.85
    endloop
  endfacet
  facet normal 0 1 0
    outer loop
      vertex 53.8515 3.6 3.4516
      vertex 58.5 3.6 1.2
      vertex 52.9734 3.6 3.00417
    endloop
  endfacet
  facet normal 0 1 0
    outer loop
      vertex 54.5484 3.6 4.14848
      vertex 58.5 3.6 1.2
      vertex 53.8515 3.6 3.4516
    endloop
  endfacet
  facet normal 0 1 0
    outer loop
      vertex 54.9958 3.6 5.0266
      vertex 58.5 3.6 1.2
      vertex 54.5484 3.6 4.14848
    endloop
  endfacet
  facet normal 0 1 -0
    outer loop
      vertex 51.0266 3.6 8.99583
      vertex 35.75 3.6 10.8
      vertex 52 3.6 9.15
    endloop
  endfacet
  facet normal 0 1 -0
    outer loop
      vertex 50.1485 3.6 8.5484
      vertex 35.75 3.6 10.8
      vertex 51.0266 3.6 8.99583
    endloop
  endfacet
  facet normal 0 1 -0
    outer loop
      vertex 49.4516 3.6 7.85152
      vertex 35.75 3.6 10.8
      vertex 50.1485 3.6 8.5484
    endloop
  endfacet
  facet normal 0 1 -0
    outer loop
      vertex 49.0042 3.6 6.9734
      vertex 35.75 3.6 10.8
      vertex 49.4516 3.6 7.85152
    endloop
  endfacet
  facet normal 0 1 -0
    outer loop
      vertex 48.85 3.6 6
      vertex 35.75 3.6 10.8
      vertex 49.0042 3.6 6.9734
    endloop
  endfacet
  facet normal 0 1 0
    outer loop
      vertex 35.75 3.6 1.2
      vertex 48.85 3.6 6
      vertex 49.0042 3.6 5.0266
    endloop
  endfacet
  facet normal 0 1 0
    outer loop
      vertex 35.75 3.6 1.2
      vertex 49.0042 3.6 5.0266
      vertex 49.4516 3.6 4.14848
    endloop
  endfacet
  facet normal 0 1 0
    outer loop
      vertex 35.75 3.6 1.2
      vertex 49.4516 3.6 4.14848
      vertex 50.1485 3.6 3.4516
    endloop
  endfacet
  facet normal 0 1 0
    outer loop
      vertex 35.75 3.6 1.2
      vertex 52 3.6 2.85
      vertex 58.5 3.6 1.2
    endloop
  endfacet
  facet normal 0 1 0
    outer loop
      vertex 48.85 3.6 6
      vertex 35.75 3.6 1.2
      vertex 35.75 3.6 10.8
    endloop
  endfacet
  facet normal 0 1 0
    outer loop
      vertex 51.0266 3.6 3.00417
      vertex 35.75 3.6 1.2
      vertex 50.1485 3.6 3.4516
    endloop
  endfacet
  facet normal 0 1 0
    outer loop
      vertex 52 3.6 2.85
      vertex 35.75 3.6 1.2
      vertex 51.0266 3.6 3.00417
    endloop
  endfacet
  facet normal 0 -1 0
    outer loop
      vertex 51.0266 0 8.99583
      vertex 58.5 0 10.8
      vertex 13.9734 0 8.99583
    endloop
  endfacet
  facet normal 0 -1 0
    outer loop
      vertex 58.5 0 10.8
      vertex 51.0266 0 8.99583
      vertex 52 0 9.15
    endloop
  endfacet
  facet normal 0 -1 0
    outer loop
      vertex 14.8515 0 8.5484
      vertex 51.0266 0 8.99583
      vertex 13.9734 0 8.99583
    endloop
  endfacet
  facet normal 0 -1 0
    outer loop
      vertex 14.8515 0 8.5484
      vertex 50.1485 0 8.5484
      vertex 51.0266 0 8.99583
    endloop
  endfacet
  facet normal 0 -1 0
    outer loop
      vertex 15.5484 0 7.85152
      vertex 50.1485 0 8.5484
      vertex 14.8515 0 8.5484
    endloop
  endfacet
  facet normal 0 -1 0
    outer loop
      vertex 15.5484 0 7.85152
      vertex 49.4516 0 7.85152
      vertex 50.1485 0 8.5484
    endloop
  endfacet
  facet normal 0 -1 0
    outer loop
      vertex 15.9958 0 6.9734
      vertex 49.4516 0 7.85152
      vertex 15.5484 0 7.85152
    endloop
  endfacet
  facet normal 0 -1 0
    outer loop
      vertex 15.9958 0 6.9734
      vertex 49.0042 0 6.9734
      vertex 49.4516 0 7.85152
    endloop
  endfacet
  facet normal 0 -1 0
    outer loop
      vertex 16.15 0 6
      vertex 49.0042 0 6.9734
      vertex 15.9958 0 6.9734
    endloop
  endfacet
  facet normal 0 -1 0
    outer loop
      vertex 16.15 0 6
      vertex 48.85 0 6
      vertex 49.0042 0 6.9734
    endloop
  endfacet
  facet normal 0 -1 0
    outer loop
      vertex 15.9958 0 5.0266
      vertex 48.85 0 6
      vertex 16.15 0 6
    endloop
  endfacet
  facet normal 0 -1 0
    outer loop
      vertex 15.9958 0 5.0266
      vertex 49.0042 0 5.0266
      vertex 48.85 0 6
    endloop
  endfacet
  facet normal 0 -1 0
    outer loop
      vertex 15.5484 0 4.14848
      vertex 49.0042 0 5.0266
      vertex 15.9958 0 5.0266
    endloop
  endfacet
  facet normal 0 -1 0
    outer loop
      vertex 15.5484 0 4.14848
      vertex 49.4516 0 4.14848
      vertex 49.0042 0 5.0266
    endloop
  endfacet
  facet normal 0 -1 0
    outer loop
      vertex 14.8515 0 3.4516
      vertex 49.4516 0 4.14848
      vertex 15.5484 0 4.14848
    endloop
  endfacet
  facet normal 0 -1 0
    outer loop
      vertex 14.8515 0 3.4516
      vertex 50.1485 0 3.4516
      vertex 49.4516 0 4.14848
    endloop
  endfacet
  facet normal 0 -1 0
    outer loop
      vertex 13.9734 0 3.00417
      vertex 50.1485 0 3.4516
      vertex 14.8515 0 3.4516
    endloop
  endfacet
  facet normal 0 -1 0
    outer loop
      vertex 13.9734 0 3.00417
      vertex 51.0266 0 3.00417
      vertex 50.1485 0 3.4516
    endloop
  endfacet
  facet normal 0 -1 0
    outer loop
      vertex 6.5 0 1.2
      vertex 13.9734 0 3.00417
      vertex 13 0 2.85
    endloop
  endfacet
  facet normal 0 -1 -0
    outer loop
      vertex 13.9734 0 3.00417
      vertex 6.5 0 1.2
      vertex 51.0266 0 3.00417
    endloop
  endfacet
  facet normal 0 -1 0
    outer loop
      vertex 13.9734 0 8.99583
      vertex 6.5 0 10.8
      vertex 13 0 9.15
    endloop
  endfacet
  facet normal 0 -1 0
    outer loop
      vertex 6.5 0 10.8
      vertex 12.0266 0 8.99583
      vertex 13 0 9.15
    endloop
  endfacet
  facet normal 0 -1 0
    outer loop
      vertex 6.5 0 10.8
      vertex 11.1485 0 8.5484
      vertex 12.0266 0 8.99583
    endloop
  endfacet
  facet normal 0 -1 0
    outer loop
      vertex 6.5 0 10.8
      vertex 10.4516 0 7.85152
      vertex 11.1485 0 8.5484
    endloop
  endfacet
  facet normal 0 -1 0
    outer loop
      vertex 6.5 0 10.8
      vertex 10.0042 0 6.9734
      vertex 10.4516 0 7.85152
    endloop
  endfacet
  facet normal 0 -1 0
    outer loop
      vertex 6.5 0 10.8
      vertex 9.85 0 6
      vertex 10.0042 0 6.9734
    endloop
  endfacet
  facet normal 0 -1 0
    outer loop
      vertex 6.5 0 1.2
      vertex 9.85 0 6
      vertex 6.5 0 10.8
    endloop
  endfacet
  facet normal 0 -1 -0
    outer loop
      vertex 9.85 0 6
      vertex 6.5 0 1.2
      vertex 10.0042 0 5.0266
    endloop
  endfacet
  facet normal 0 -1 0
    outer loop
      vertex 58.5 0 1.2
      vertex 51.0266 0 3.00417
      vertex 6.5 0 1.2
    endloop
  endfacet
  facet normal 0 -1 -0
    outer loop
      vertex 12.0266 0 3.00417
      vertex 6.5 0 1.2
      vertex 13 0 2.85
    endloop
  endfacet
  facet normal 0 -1 -0
    outer loop
      vertex 11.1485 0 3.4516
      vertex 6.5 0 1.2
      vertex 12.0266 0 3.00417
    endloop
  endfacet
  facet normal 0 -1 -0
    outer loop
      vertex 10.4516 0 4.14848
      vertex 6.5 0 1.2
      vertex 11.1485 0 3.4516
    endloop
  endfacet
  facet normal 0 -1 -0
    outer loop
      vertex 10.0042 0 5.0266
      vertex 6.5 0 1.2
      vertex 10.4516 0 4.14848
    endloop
  endfacet
  facet normal 0 -1 0
    outer loop
      vertex 6.5 0 10.8
      vertex 13.9734 0 8.99583
      vertex 58.5 0 10.8
    endloop
  endfacet
  facet normal 0 -1 0
    outer loop
      vertex 52.9734 0 8.99583
      vertex 58.5 0 10.8
      vertex 52 0 9.15
    endloop
  endfacet
  facet normal 0 -1 0
    outer loop
      vertex 53.8515 0 8.5484
      vertex 58.5 0 10.8
      vertex 52.9734 0 8.99583
    endloop
  endfacet
  facet normal 0 -1 0
    outer loop
      vertex 54.5484 0 7.85152
      vertex 58.5 0 10.8
      vertex 53.8515 0 8.5484
    endloop
  endfacet
  facet normal 0 -1 0
    outer loop
      vertex 54.9958 0 6.9734
      vertex 58.5 0 10.8
      vertex 54.5484 0 7.85152
    endloop
  endfacet
  facet normal 0 -1 0
    outer loop
      vertex 55.15 0 6
      vertex 58.5 0 10.8
      vertex 54.9958 0 6.9734
    endloop
  endfacet
  facet normal 0 -1 0
    outer loop
      vertex 58.5 0 1.2
      vertex 55.15 0 6
      vertex 54.9958 0 5.0266
    endloop
  endfacet
  facet normal 0 -1 0
    outer loop
      vertex 58.5 0 1.2
      vertex 54.9958 0 5.0266
      vertex 54.5484 0 4.14848
    endloop
  endfacet
  facet normal 0 -1 0
    outer loop
      vertex 55.15 0 6
      vertex 58.5 0 1.2
      vertex 58.5 0 10.8
    endloop
  endfacet
  facet normal 0 -1 0
    outer loop
      vertex 53.8515 0 3.4516
      vertex 58.5 0 1.2
      vertex 54.5484 0 4.14848
    endloop
  endfacet
  facet normal 0 -1 0
    outer loop
      vertex 52.9734 0 3.00417
      vertex 58.5 0 1.2
      vertex 53.8515 0 3.4516
    endloop
  endfacet
  facet normal 0 -1 0
    outer loop
      vertex 52 0 2.85
      vertex 58.5 0 1.2
      vertex 52.9734 0 3.00417
    endloop
  endfacet
  facet normal 0 -1 0
    outer loop
      vertex 51.0266 0 3.00417
      vertex 58.5 0 1.2
      vertex 52 0 2.85
    endloop
  endfacet
  facet normal 1 -0 0
    outer loop
      vertex 35.75 3.6 10.8
      vertex 35.75 7.2 1.2
      vertex 35.75 7.2 10.8
    endloop
  endfacet
  facet normal 1 0 0
    outer loop
      vertex 35.75 7.2 1.2
      vertex 35.75 3.6 10.8
      vertex 35.75 3.6 1.2
    endloop
  endfacet
  facet normal -1 0 0
    outer loop
      vertex 29.25 3.6 1.2
      vertex 29.25 7.2 10.8
      vertex 29.25 7.2 1.2
    endloop
  endfacet
  facet normal -1 -0 0
    outer loop
      vertex 29.25 7.2 10.8
      vertex 29.25 3.6 1.2
      vertex 29.25 3.6 10.8
    endloop
  endfacet
  facet normal 0 1 -0
    outer loop
      vertex 35.75 7.2 1.2
      vertex 29.25 7.2 10.8
      vertex 35.75 7.2 10.8
    endloop
  endfacet
  facet normal 0 1 0
    outer loop
      vertex 29.25 7.2 10.8
      vertex 35.75 7.2 1.2
      vertex 29.25 7.2 1.2
    endloop
  endfacet
  facet normal -0.891017 0 0.453971
    outer loop
      vertex 15.5484 0 4.14848
      vertex 15.9958 3.6 5.0266
      vertex 15.5484 3.6 4.14848
    endloop
  endfacet
  facet normal -0.891017 0 0.453971
    outer loop
      vertex 15.9958 3.6 5.0266
      vertex 15.5484 0 4.14848
      vertex 15.9958 0 5.0266
    endloop
  endfacet
  facet normal -0.987684 0 0.156463
    outer loop
      vertex 15.9958 0 5.0266
      vertex 16.15 3.6 6
      vertex 15.9958 3.6 5.0266
    endloop
  endfacet
  facet normal -0.987684 0 0.156463
    outer loop
      vertex 16.15 3.6 6
      vertex 15.9958 0 5.0266
      vertex 16.15 0 6
    endloop
  endfacet
  facet normal -0.987684 0 -0.156463
    outer loop
      vertex 16.15 0 6
      vertex 15.9958 3.6 6.9734
      vertex 16.15 3.6 6
    endloop
  endfacet
  facet normal -0.987684 -0 -0.156463
    outer loop
      vertex 15.9958 3.6 6.9734
      vertex 16.15 0 6
      vertex 15.9958 0 6.9734
    endloop
  endfacet
  facet normal -0.156433 0 -0.987689
    outer loop
      vertex 13 0 9.15
      vertex 13.9734 3.6 8.99583
      vertex 13.9734 0 8.99583
    endloop
  endfacet
  facet normal -0.156433 0 -0.987689
    outer loop
      vertex 13.9734 3.6 8.99583
      vertex 13 0 9.15
      vertex 13 3.6 9.15
    endloop
  endfacet
  facet normal -0.707097 0 -0.707117
    outer loop
      vertex 15.5484 0 7.85152
      vertex 14.8515 3.6 8.5484
      vertex 15.5484 3.6 7.85152
    endloop
  endfacet
  facet normal -0.707097 -0 -0.707117
    outer loop
      vertex 14.8515 3.6 8.5484
      vertex 15.5484 0 7.85152
      vertex 14.8515 0 8.5484
    endloop
  endfacet
  facet normal 0.707097 -0 0.707117
    outer loop
      vertex 10.4516 0 4.14848
      vertex 11.1485 3.6 3.4516
      vertex 10.4516 3.6 4.14848
    endloop
  endfacet
  facet normal 0.707097 0 0.707117
    outer loop
      vertex 11.1485 3.6 3.4516
      vertex 10.4516 0 4.14848
      vertex 11.1485 0 3.4516
    endloop
  endfacet
  facet normal 0.707097 0 -0.707117
    outer loop
      vertex 11.1485 0 8.5484
      vertex 10.4516 3.6 7.85152
      vertex 11.1485 3.6 8.5484
    endloop
  endfacet
  facet normal 0.707097 0 -0.707117
    outer loop
      vertex 10.4516 3.6 7.85152
      vertex 11.1485 0 8.5484
      vertex 10.4516 0 7.85152
    endloop
  endfacet
  facet normal 0.454003 0 -0.891
    outer loop
      vertex 11.1485 0 8.5484
      vertex 12.0266 3.6 8.99583
      vertex 12.0266 0 8.99583
    endloop
  endfacet
  facet normal 0.454003 0 -0.891
    outer loop
      vertex 12.0266 3.6 8.99583
      vertex 11.1485 0 8.5484
      vertex 11.1485 3.6 8.5484
    endloop
  endfacet
  facet normal -0.156433 0 0.987689
    outer loop
      vertex 13 3.6 2.85
      vertex 13.9734 0 3.00417
      vertex 13.9734 3.6 3.00417
    endloop
  endfacet
  facet normal -0.156433 0 0.987689
    outer loop
      vertex 13.9734 0 3.00417
      vertex 13 3.6 2.85
      vertex 13 0 2.85
    endloop
  endfacet
  facet normal 0.156433 0 -0.987689
    outer loop
      vertex 12.0266 0 8.99583
      vertex 13 3.6 9.15
      vertex 13 0 9.15
    endloop
  endfacet
  facet normal 0.156433 0 -0.987689
    outer loop
      vertex 13 3.6 9.15
      vertex 12.0266 0 8.99583
      vertex 12.0266 3.6 8.99583
    endloop
  endfacet
  facet normal -0.891017 0 -0.453971
    outer loop
      vertex 15.9958 0 6.9734
      vertex 15.5484 3.6 7.85152
      vertex 15.9958 3.6 6.9734
    endloop
  endfacet
  facet normal -0.891017 -0 -0.453971
    outer loop
      vertex 15.5484 3.6 7.85152
      vertex 15.9958 0 6.9734
      vertex 15.5484 0 7.85152
    endloop
  endfacet
  facet normal 0.891017 0 -0.453971
    outer loop
      vertex 10.4516 0 7.85152
      vertex 10.0042 3.6 6.9734
      vertex 10.4516 3.6 7.85152
    endloop
  endfacet
  facet normal 0.891017 0 -0.453971
    outer loop
      vertex 10.0042 3.6 6.9734
      vertex 10.4516 0 7.85152
      vertex 10.0042 0 6.9734
    endloop
  endfacet
  facet normal 0.891017 -0 0.453971
    outer loop
      vertex 10.0042 0 5.0266
      vertex 10.4516 3.6 4.14848
      vertex 10.0042 3.6 5.0266
    endloop
  endfacet
  facet normal 0.891017 0 0.453971
    outer loop
      vertex 10.4516 3.6 4.14848
      vertex 10.0042 0 5.0266
      vertex 10.4516 0 4.14848
    endloop
  endfacet
  facet normal 0.987684 -0 0.156463
    outer loop
      vertex 9.85 0 6
      vertex 10.0042 3.6 5.0266
      vertex 9.85 3.6 6
    endloop
  endfacet
  facet normal 0.987684 0 0.156463
    outer loop
      vertex 10.0042 3.6 5.0266
      vertex 9.85 0 6
      vertex 10.0042 0 5.0266
    endloop
  endfacet
  facet normal 0.156433 0 0.987689
    outer loop
      vertex 12.0266 3.6 3.00417
      vertex 13 0 2.85
      vertex 13 3.6 2.85
    endloop
  endfacet
  facet normal 0.156433 0 0.987689
    outer loop
      vertex 13 0 2.85
      vertex 12.0266 3.6 3.00417
      vertex 12.0266 0 3.00417
    endloop
  endfacet
  facet normal 0.454003 0 0.891
    outer loop
      vertex 11.1485 3.6 3.4516
      vertex 12.0266 0 3.00417
      vertex 12.0266 3.6 3.00417
    endloop
  endfacet
  facet normal 0.454003 0 0.891
    outer loop
      vertex 12.0266 0 3.00417
      vertex 11.1485 3.6 3.4516
      vertex 11.1485 0 3.4516
    endloop
  endfacet
  facet normal -0.454003 0 -0.891
    outer loop
      vertex 13.9734 0 8.99583
      vertex 14.8515 3.6 8.5484
      vertex 14.8515 0 8.5484
    endloop
  endfacet
  facet normal -0.454003 0 -0.891
    outer loop
      vertex 14.8515 3.6 8.5484
      vertex 13.9734 0 8.99583
      vertex 13.9734 3.6 8.99583
    endloop
  endfacet
  facet normal -0.707097 0 0.707117
    outer loop
      vertex 14.8515 0 3.4516
      vertex 15.5484 3.6 4.14848
      vertex 14.8515 3.6 3.4516
    endloop
  endfacet
  facet normal -0.707097 0 0.707117
    outer loop
      vertex 15.5484 3.6 4.14848
      vertex 14.8515 0 3.4516
      vertex 15.5484 0 4.14848
    endloop
  endfacet
  facet normal 0.987684 0 -0.156463
    outer loop
      vertex 10.0042 0 6.9734
      vertex 9.85 3.6 6
      vertex 10.0042 3.6 6.9734
    endloop
  endfacet
  facet normal 0.987684 0 -0.156463
    outer loop
      vertex 9.85 3.6 6
      vertex 10.0042 0 6.9734
      vertex 9.85 0 6
    endloop
  endfacet
  facet normal -0.454003 0 0.891
    outer loop
      vertex 13.9734 3.6 3.00417
      vertex 14.8515 0 3.4516
      vertex 14.8515 3.6 3.4516
    endloop
  endfacet
  facet normal -0.454003 0 0.891
    outer loop
      vertex 14.8515 0 3.4516
      vertex 13.9734 3.6 3.00417
      vertex 13.9734 0 3.00417
    endloop
  endfacet
  facet normal -0.891017 0 0.453971
    outer loop
      vertex 54.5484 0 4.14848
      vertex 54.9958 3.6 5.0266
      vertex 54.5484 3.6 4.14848
    endloop
  endfacet
  facet normal -0.891017 0 0.453971
    outer loop
      vertex 54.9958 3.6 5.0266
      vertex 54.5484 0 4.14848
      vertex 54.9958 0 5.0266
    endloop
  endfacet
  facet normal -0.987684 0 0.156463
    outer loop
      vertex 54.9958 0 5.0266
      vertex 55.15 3.6 6
      vertex 54.9958 3.6 5.0266
    endloop
  endfacet
  facet normal -0.987684 0 0.156463
    outer loop
      vertex 55.15 3.6 6
      vertex 54.9958 0 5.0266
      vertex 55.15 0 6
    endloop
  endfacet
  facet normal -0.987684 0 -0.156463
    outer loop
      vertex 55.15 0 6
      vertex 54.9958 3.6 6.9734
      vertex 55.15 3.6 6
    endloop
  endfacet
  facet normal -0.987684 -0 -0.156463
    outer loop
      vertex 54.9958 3.6 6.9734
      vertex 55.15 0 6
      vertex 54.9958 0 6.9734
    endloop
  endfacet
  facet normal -0.156433 0 -0.987689
    outer loop
      vertex 52 0 9.15
      vertex 52.9734 3.6 8.99583
      vertex 52.9734 0 8.99583
    endloop
  endfacet
  facet normal -0.156433 0 -0.987689
    outer loop
      vertex 52.9734 3.6 8.99583
      vertex 52 0 9.15
      vertex 52 3.6 9.15
    endloop
  endfacet
  facet normal -0.707097 0 -0.707117
    outer loop
      vertex 54.5484 0 7.85152
      vertex 53.8515 3.6 8.5484
      vertex 54.5484 3.6 7.85152
    endloop
  endfacet
  facet normal -0.707097 -0 -0.707117
    outer loop
      vertex 53.8515 3.6 8.5484
      vertex 54.5484 0 7.85152
      vertex 53.8515 0 8.5484
    endloop
  endfacet
  facet normal 0.707097 0 0.707117
    outer loop
      vertex 49.4516 3.6 4.14848
      vertex 50.1485 0 3.4516
      vertex 50.1485 3.6 3.4516
    endloop
  endfacet
  facet normal 0.707097 0 0.707117
    outer loop
      vertex 50.1485 0 3.4516
      vertex 49.4516 3.6 4.14848
      vertex 49.4516 0 4.14848
    endloop
  endfacet
  facet normal 0.707097 0 -0.707117
    outer loop
      vertex 49.4516 0 7.85152
      vertex 50.1485 3.6 8.5484
      vertex 50.1485 0 8.5484
    endloop
  endfacet
  facet normal 0.707097 0 -0.707117
    outer loop
      vertex 50.1485 3.6 8.5484
      vertex 49.4516 0 7.85152
      vertex 49.4516 3.6 7.85152
    endloop
  endfacet
  facet normal 0.454003 0 -0.891
    outer loop
      vertex 50.1485 0 8.5484
      vertex 51.0266 3.6 8.99583
      vertex 51.0266 0 8.99583
    endloop
  endfacet
  facet normal 0.454003 0 -0.891
    outer loop
      vertex 51.0266 3.6 8.99583
      vertex 50.1485 0 8.5484
      vertex 50.1485 3.6 8.5484
    endloop
  endfacet
  facet normal 0.156433 0 -0.987689
    outer loop
      vertex 51.0266 0 8.99583
      vertex 52 3.6 9.15
      vertex 52 0 9.15
    endloop
  endfacet
  facet normal 0.156433 0 -0.987689
    outer loop
      vertex 52 3.6 9.15
      vertex 51.0266 0 8.99583
      vertex 51.0266 3.6 8.99583
    endloop
  endfacet
  facet normal -0.891017 0 -0.453971
    outer loop
      vertex 54.9958 0 6.9734
      vertex 54.5484 3.6 7.85152
      vertex 54.9958 3.6 6.9734
    endloop
  endfacet
  facet normal -0.891017 -0 -0.453971
    outer loop
      vertex 54.5484 3.6 7.85152
      vertex 54.9958 0 6.9734
      vertex 54.5484 0 7.85152
    endloop
  endfacet
  facet normal 0.891017 0 -0.453971
    outer loop
      vertex 49.4516 0 7.85152
      vertex 49.0042 3.6 6.9734
      vertex 49.4516 3.6 7.85152
    endloop
  endfacet
  facet normal 0.891017 0 -0.453971
    outer loop
      vertex 49.0042 3.6 6.9734
      vertex 49.4516 0 7.85152
      vertex 49.0042 0 6.9734
    endloop
  endfacet
  facet normal 0.891017 -0 0.453971
    outer loop
      vertex 49.0042 0 5.0266
      vertex 49.4516 3.6 4.14848
      vertex 49.0042 3.6 5.0266
    endloop
  endfacet
  facet normal 0.891017 0 0.453971
    outer loop
      vertex 49.4516 3.6 4.14848
      vertex 49.0042 0 5.0266
      vertex 49.4516 0 4.14848
    endloop
  endfacet
  facet normal 0.987684 -0 0.156463
    outer loop
      vertex 48.85 0 6
      vertex 49.0042 3.6 5.0266
      vertex 48.85 3.6 6
    endloop
  endfacet
  facet normal 0.987684 0 0.156463
    outer loop
      vertex 49.0042 3.6 5.0266
      vertex 48.85 0 6
      vertex 49.0042 0 5.0266
    endloop
  endfacet
  facet normal 0.156433 0 0.987689
    outer loop
      vertex 51.0266 3.6 3.00417
      vertex 52 0 2.85
      vertex 52 3.6 2.85
    endloop
  endfacet
  facet normal 0.156433 0 0.987689
    outer loop
      vertex 52 0 2.85
      vertex 51.0266 3.6 3.00417
      vertex 51.0266 0 3.00417
    endloop
  endfacet
  facet normal -0.156433 0 0.987689
    outer loop
      vertex 52 3.6 2.85
      vertex 52.9734 0 3.00417
      vertex 52.9734 3.6 3.00417
    endloop
  endfacet
  facet normal -0.156433 0 0.987689
    outer loop
      vertex 52.9734 0 3.00417
      vertex 52 3.6 2.85
      vertex 52 0 2.85
    endloop
  endfacet
  facet normal 0.454003 0 0.891
    outer loop
      vertex 50.1485 3.6 3.4516
      vertex 51.0266 0 3.00417
      vertex 51.0266 3.6 3.00417
    endloop
  endfacet
  facet normal 0.454003 0 0.891
    outer loop
      vertex 51.0266 0 3.00417
      vertex 50.1485 3.6 3.4516
      vertex 50.1485 0 3.4516
    endloop
  endfacet
  facet normal -0.454003 0 -0.891
    outer loop
      vertex 52.9734 0 8.99583
      vertex 53.8515 3.6 8.5484
      vertex 53.8515 0 8.5484
    endloop
  endfacet
  facet normal -0.454003 0 -0.891
    outer loop
      vertex 53.8515 3.6 8.5484
      vertex 52.9734 0 8.99583
      vertex 52.9734 3.6 8.99583
    endloop
  endfacet
  facet normal -0.707097 0 0.707117
    outer loop
      vertex 53.8515 0 3.4516
      vertex 54.5484 3.6 4.14848
      vertex 53.8515 3.6 3.4516
    endloop
  endfacet
  facet normal -0.707097 0 0.707117
    outer loop
      vertex 54.5484 3.6 4.14848
      vertex 53.8515 0 3.4516
      vertex 54.5484 0 4.14848
    endloop
  endfacet
  facet normal 0.987684 0 -0.156463
    outer loop
      vertex 49.0042 0 6.9734
      vertex 48.85 3.6 6
      vertex 49.0042 3.6 6.9734
    endloop
  endfacet
  facet normal 0.987684 0 -0.156463
    outer loop
      vertex 48.85 3.6 6
      vertex 49.0042 0 6.9734
      vertex 48.85 0 6
    endloop
  endfacet
  facet normal -0.454003 0 0.891
    outer loop
      vertex 52.9734 3.6 3.00417
      vertex 53.8515 0 3.4516
      vertex 53.8515 3.6 3.4516
    endloop
  endfacet
  facet normal -0.454003 0 0.891
    outer loop
      vertex 53.8515 0 3.4516
      vertex 52.9734 3.6 3.00417
      vertex 52.9734 0 3.00417
    endloop
  endfacet
endsolid OpenSCAD_Model
