solid OpenSCAD_Model
  facet normal 0 0 1
    outer loop
      vertex 0 31 30
      vertex -5 15.5 30
      vertex 0 0 30
    endloop
  endfacet
  facet normal 0 0 1
    outer loop
      vertex 0 31 30
      vertex -5.02558 16.2324 30
      vertex -5 15.5 30
    endloop
  endfacet
  facet normal 0 0 1
    outer loop
      vertex 0 31 30
      vertex -5.10219 16.9613 30
      vertex -5.02558 16.2324 30
    endloop
  endfacet
  facet normal 0 0 1
    outer loop
      vertex 0 31 30
      vertex -5.22945 17.6831 30
      vertex -5.10219 16.9613 30
    endloop
  endfacet
  facet normal 0 0 1
    outer loop
      vertex 0 31 30
      vertex -5.40675 18.3942 30
      vertex -5.22945 17.6831 30
    endloop
  endfacet
  facet normal 0 0 1
    outer loop
      vertex 0 31 30
      vertex -5.63323 19.0912 30
      vertex -5.40675 18.3942 30
    endloop
  endfacet
  facet normal 0 0 1
    outer loop
      vertex 0 31 30
      vertex -5.90777 19.7707 30
      vertex -5.63323 19.0912 30
    endloop
  endfacet
  facet normal 0 0 1
    outer loop
      vertex 0 31 30
      vertex -6.22905 20.4295 30
      vertex -5.90777 19.7707 30
    endloop
  endfacet
  facet normal 0 0 1
    outer loop
      vertex 0 31 30
      vertex -6.59549 21.0642 30
      vertex -6.22905 20.4295 30
    endloop
  endfacet
  facet normal 0 0 1
    outer loop
      vertex 0 31 30
      vertex -7.00532 21.6717 30
      vertex -6.59549 21.0642 30
    endloop
  endfacet
  facet normal 0 0 1
    outer loop
      vertex 0 31 30
      vertex -7.45653 22.2493 30
      vertex -7.00532 21.6717 30
    endloop
  endfacet
  facet normal 0 0 1
    outer loop
      vertex 0 31 30
      vertex -7.94693 22.7939 30
      vertex -7.45653 22.2493 30
    endloop
  endfacet
  facet normal 0 0 1
    outer loop
      vertex 0 31 30
      vertex -8.47413 23.303 30
      vertex -7.94693 22.7939 30
    endloop
  endfacet
  facet normal 0 0 1
    outer loop
      vertex 0 31 30
      vertex -9.03555 23.7741 30
      vertex -8.47413 23.303 30
    endloop
  endfacet
  facet normal 0 0 1
    outer loop
      vertex 0 31 30
      vertex -9.62847 24.2049 30
      vertex -9.03555 23.7741 30
    endloop
  endfacet
  facet normal 0 0 1
    outer loop
      vertex 0 31 30
      vertex -10.25 24.5933 30
      vertex -9.62847 24.2049 30
    endloop
  endfacet
  facet normal 0 0 1
    outer loop
      vertex 0 31 30
      vertex -10.8971 24.9373 30
      vertex -10.25 24.5933 30
    endloop
  endfacet
  facet normal 0 0 1
    outer loop
      vertex 0 31 30
      vertex -11.5666 25.2354 30
      vertex -10.8971 24.9373 30
    endloop
  endfacet
  facet normal 0 0 1
    outer loop
      vertex 0 31 30
      vertex -12.2553 25.4861 30
      vertex -11.5666 25.2354 30
    endloop
  endfacet
  facet normal 0 0 1
    outer loop
      vertex 0 31 30
      vertex -12.9598 25.6881 30
      vertex -12.2553 25.4861 30
    endloop
  endfacet
  facet normal 0 0 1
    outer loop
      vertex 0 31 30
      vertex -13.6767 25.8405 30
      vertex -12.9598 25.6881 30
    endloop
  endfacet
  facet normal 0 0 1
    outer loop
      vertex 0 31 30
      vertex -14.4025 25.9425 30
      vertex -13.6767 25.8405 30
    endloop
  endfacet
  facet normal 0 0 1
    outer loop
      vertex 0 31 30
      vertex -15.1336 25.9936 30
      vertex -14.4025 25.9425 30
    endloop
  endfacet
  facet normal -0 0 1
    outer loop
      vertex -90 31 30
      vertex -15.1336 25.9936 30
      vertex 0 31 30
    endloop
  endfacet
  facet normal 0 0 1
    outer loop
      vertex -15.1336 25.9936 30
      vertex -90 31 30
      vertex -90 25.9936 30
    endloop
  endfacet
  facet normal -0 0 1
    outer loop
      vertex -5.02558 14.7676 30
      vertex 0 0 30
      vertex -5 15.5 30
    endloop
  endfacet
  facet normal -0 0 1
    outer loop
      vertex -5.10219 14.0387 30
      vertex 0 0 30
      vertex -5.02558 14.7676 30
    endloop
  endfacet
  facet normal -0 0 1
    outer loop
      vertex -5.22945 13.3169 30
      vertex 0 0 30
      vertex -5.10219 14.0387 30
    endloop
  endfacet
  facet normal -0 0 1
    outer loop
      vertex -5.40675 12.6058 30
      vertex 0 0 30
      vertex -5.22945 13.3169 30
    endloop
  endfacet
  facet normal -0 0 1
    outer loop
      vertex -5.63323 11.9088 30
      vertex 0 0 30
      vertex -5.40675 12.6058 30
    endloop
  endfacet
  facet normal -0 0 1
    outer loop
      vertex -5.90777 11.2293 30
      vertex 0 0 30
      vertex -5.63323 11.9088 30
    endloop
  endfacet
  facet normal -0 0 1
    outer loop
      vertex -6.22905 10.5705 30
      vertex 0 0 30
      vertex -5.90777 11.2293 30
    endloop
  endfacet
  facet normal -0 0 1
    outer loop
      vertex -6.59549 9.93585 30
      vertex 0 0 30
      vertex -6.22905 10.5705 30
    endloop
  endfacet
  facet normal -0 0 1
    outer loop
      vertex -7.00532 9.32825 30
      vertex 0 0 30
      vertex -6.59549 9.93585 30
    endloop
  endfacet
  facet normal -0 0 1
    outer loop
      vertex -7.45653 8.75073 30
      vertex 0 0 30
      vertex -7.00532 9.32825 30
    endloop
  endfacet
  facet normal -0 0 1
    outer loop
      vertex -7.94693 8.20609 30
      vertex 0 0 30
      vertex -7.45653 8.75073 30
    endloop
  endfacet
  facet normal -0 0 1
    outer loop
      vertex -8.47413 7.69698 30
      vertex 0 0 30
      vertex -7.94693 8.20609 30
    endloop
  endfacet
  facet normal -0 0 1
    outer loop
      vertex -9.03555 7.22589 30
      vertex 0 0 30
      vertex -8.47413 7.69698 30
    endloop
  endfacet
  facet normal -0 0 1
    outer loop
      vertex -9.62847 6.7951 30
      vertex 0 0 30
      vertex -9.03555 7.22589 30
    endloop
  endfacet
  facet normal -0 0 1
    outer loop
      vertex -10.25 6.40673 30
      vertex 0 0 30
      vertex -9.62847 6.7951 30
    endloop
  endfacet
  facet normal -0 0 1
    outer loop
      vertex -10.8971 6.06266 30
      vertex 0 0 30
      vertex -10.25 6.40673 30
    endloop
  endfacet
  facet normal -0 0 1
    outer loop
      vertex -11.5666 5.76457 30
      vertex 0 0 30
      vertex -10.8971 6.06266 30
    endloop
  endfacet
  facet normal -0 0 1
    outer loop
      vertex -12.2553 5.51391 30
      vertex 0 0 30
      vertex -11.5666 5.76457 30
    endloop
  endfacet
  facet normal -0 0 1
    outer loop
      vertex -12.9598 5.31189 30
      vertex 0 0 30
      vertex -12.2553 5.51391 30
    endloop
  endfacet
  facet normal -0 0 1
    outer loop
      vertex -13.6767 5.15952 30
      vertex 0 0 30
      vertex -12.9598 5.31189 30
    endloop
  endfacet
  facet normal -0 0 1
    outer loop
      vertex -14.4025 5.05752 30
      vertex 0 0 30
      vertex -13.6767 5.15952 30
    endloop
  endfacet
  facet normal -0 0 1
    outer loop
      vertex -15.1336 5.0064 30
      vertex 0 0 30
      vertex -14.4025 5.05752 30
    endloop
  endfacet
  facet normal 0 0 1
    outer loop
      vertex -90 0 30
      vertex -15.1336 5.0064 30
      vertex -90 5.0064 30
    endloop
  endfacet
  facet normal 0 0 1
    outer loop
      vertex -15.1336 5.0064 30
      vertex -90 0 30
      vertex 0 0 30
    endloop
  endfacet
  facet normal -1 0 0
    outer loop
      vertex -90 25.9936 0
      vertex -90 31 30
      vertex -90 31 0
    endloop
  endfacet
  facet normal -1 -0 0
    outer loop
      vertex -90 31 30
      vertex -90 25.9936 0
      vertex -90 25.9936 30
    endloop
  endfacet
  facet normal -1 0 0
    outer loop
      vertex -90 0 0
      vertex -90 5.0064 30
      vertex -90 5.0064 0
    endloop
  endfacet
  facet normal -1 -0 0
    outer loop
      vertex -90 5.0064 30
      vertex -90 0 0
      vertex -90 0 30
    endloop
  endfacet
  facet normal 1 -0 0
    outer loop
      vertex 0 0 30
      vertex 0 31 0
      vertex 0 31 30
    endloop
  endfacet
  facet normal 1 0 0
    outer loop
      vertex 0 31 0
      vertex 0 0 30
      vertex 0 0 0
    endloop
  endfacet
  facet normal 0 0 -1
    outer loop
      vertex 0 0 0
      vertex -5 15.5 0
      vertex 0 31 0
    endloop
  endfacet
  facet normal 0 0 -1
    outer loop
      vertex 0 0 0
      vertex -5.02558 14.7676 0
      vertex -5 15.5 0
    endloop
  endfacet
  facet normal 0 0 -1
    outer loop
      vertex 0 0 0
      vertex -5.10219 14.0387 0
      vertex -5.02558 14.7676 0
    endloop
  endfacet
  facet normal 0 0 -1
    outer loop
      vertex 0 0 0
      vertex -5.22945 13.3169 0
      vertex -5.10219 14.0387 0
    endloop
  endfacet
  facet normal 0 0 -1
    outer loop
      vertex 0 0 0
      vertex -5.40675 12.6058 0
      vertex -5.22945 13.3169 0
    endloop
  endfacet
  facet normal 0 0 -1
    outer loop
      vertex 0 0 0
      vertex -5.63323 11.9088 0
      vertex -5.40675 12.6058 0
    endloop
  endfacet
  facet normal 0 0 -1
    outer loop
      vertex 0 0 0
      vertex -5.90777 11.2293 0
      vertex -5.63323 11.9088 0
    endloop
  endfacet
  facet normal 0 0 -1
    outer loop
      vertex 0 0 0
      vertex -6.22905 10.5705 0
      vertex -5.90777 11.2293 0
    endloop
  endfacet
  facet normal 0 0 -1
    outer loop
      vertex 0 0 0
      vertex -6.59549 9.93585 0
      vertex -6.22905 10.5705 0
    endloop
  endfacet
  facet normal 0 0 -1
    outer loop
      vertex 0 0 0
      vertex -7.00532 9.32825 0
      vertex -6.59549 9.93585 0
    endloop
  endfacet
  facet normal 0 0 -1
    outer loop
      vertex 0 0 0
      vertex -7.45653 8.75073 0
      vertex -7.00532 9.32825 0
    endloop
  endfacet
  facet normal 0 0 -1
    outer loop
      vertex 0 0 0
      vertex -7.94693 8.20609 0
      vertex -7.45653 8.75073 0
    endloop
  endfacet
  facet normal 0 0 -1
    outer loop
      vertex 0 0 0
      vertex -8.47413 7.69698 0
      vertex -7.94693 8.20609 0
    endloop
  endfacet
  facet normal 0 0 -1
    outer loop
      vertex 0 0 0
      vertex -9.03555 7.22589 0
      vertex -8.47413 7.69698 0
    endloop
  endfacet
  facet normal 0 0 -1
    outer loop
      vertex 0 0 0
      vertex -9.62847 6.7951 0
      vertex -9.03555 7.22589 0
    endloop
  endfacet
  facet normal 0 0 -1
    outer loop
      vertex 0 0 0
      vertex -10.25 6.40673 0
      vertex -9.62847 6.7951 0
    endloop
  endfacet
  facet normal 0 0 -1
    outer loop
      vertex 0 0 0
      vertex -10.8971 6.06266 0
      vertex -10.25 6.40673 0
    endloop
  endfacet
  facet normal 0 0 -1
    outer loop
      vertex 0 0 0
      vertex -11.5666 5.76457 0
      vertex -10.8971 6.06266 0
    endloop
  endfacet
  facet normal 0 0 -1
    outer loop
      vertex 0 0 0
      vertex -12.2553 5.51391 0
      vertex -11.5666 5.76457 0
    endloop
  endfacet
  facet normal 0 0 -1
    outer loop
      vertex 0 0 0
      vertex -12.9598 5.31189 0
      vertex -12.2553 5.51391 0
    endloop
  endfacet
  facet normal 0 0 -1
    outer loop
      vertex 0 0 0
      vertex -13.6767 5.15952 0
      vertex -12.9598 5.31189 0
    endloop
  endfacet
  facet normal 0 0 -1
    outer loop
      vertex 0 0 0
      vertex -14.4025 5.05752 0
      vertex -13.6767 5.15952 0
    endloop
  endfacet
  facet normal 0 0 -1
    outer loop
      vertex 0 0 0
      vertex -15.1336 5.0064 0
      vertex -14.4025 5.05752 0
    endloop
  endfacet
  facet normal 0 0 -1
    outer loop
      vertex -90 0 0
      vertex -15.1336 5.0064 0
      vertex 0 0 0
    endloop
  endfacet
  facet normal -0 0 -1
    outer loop
      vertex -15.1336 5.0064 0
      vertex -90 0 0
      vertex -90 5.0064 0
    endloop
  endfacet
  facet normal 0 0 -1
    outer loop
      vertex -5.02558 16.2324 0
      vertex 0 31 0
      vertex -5 15.5 0
    endloop
  endfacet
  facet normal 0 0 -1
    outer loop
      vertex -5.10219 16.9613 0
      vertex 0 31 0
      vertex -5.02558 16.2324 0
    endloop
  endfacet
  facet normal 0 0 -1
    outer loop
      vertex -5.22945 17.6831 0
      vertex 0 31 0
      vertex -5.10219 16.9613 0
    endloop
  endfacet
  facet normal 0 0 -1
    outer loop
      vertex -5.40675 18.3942 0
      vertex 0 31 0
      vertex -5.22945 17.6831 0
    endloop
  endfacet
  facet normal 0 0 -1
    outer loop
      vertex -5.63323 19.0912 0
      vertex 0 31 0
      vertex -5.40675 18.3942 0
    endloop
  endfacet
  facet normal 0 0 -1
    outer loop
      vertex -5.90777 19.7707 0
      vertex 0 31 0
      vertex -5.63323 19.0912 0
    endloop
  endfacet
  facet normal 0 0 -1
    outer loop
      vertex -6.22905 20.4295 0
      vertex 0 31 0
      vertex -5.90777 19.7707 0
    endloop
  endfacet
  facet normal 0 0 -1
    outer loop
      vertex -6.59549 21.0642 0
      vertex 0 31 0
      vertex -6.22905 20.4295 0
    endloop
  endfacet
  facet normal 0 0 -1
    outer loop
      vertex -7.00532 21.6717 0
      vertex 0 31 0
      vertex -6.59549 21.0642 0
    endloop
  endfacet
  facet normal 0 0 -1
    outer loop
      vertex -7.45653 22.2493 0
      vertex 0 31 0
      vertex -7.00532 21.6717 0
    endloop
  endfacet
  facet normal 0 0 -1
    outer loop
      vertex -7.94693 22.7939 0
      vertex 0 31 0
      vertex -7.45653 22.2493 0
    endloop
  endfacet
  facet normal 0 0 -1
    outer loop
      vertex -8.47413 23.303 0
      vertex 0 31 0
      vertex -7.94693 22.7939 0
    endloop
  endfacet
  facet normal 0 0 -1
    outer loop
      vertex -9.03555 23.7741 0
      vertex 0 31 0
      vertex -8.47413 23.303 0
    endloop
  endfacet
  facet normal 0 0 -1
    outer loop
      vertex -9.62847 24.2049 0
      vertex 0 31 0
      vertex -9.03555 23.7741 0
    endloop
  endfacet
  facet normal 0 0 -1
    outer loop
      vertex -10.25 24.5933 0
      vertex 0 31 0
      vertex -9.62847 24.2049 0
    endloop
  endfacet
  facet normal 0 0 -1
    outer loop
      vertex -10.8971 24.9373 0
      vertex 0 31 0
      vertex -10.25 24.5933 0
    endloop
  endfacet
  facet normal 0 0 -1
    outer loop
      vertex -11.5666 25.2354 0
      vertex 0 31 0
      vertex -10.8971 24.9373 0
    endloop
  endfacet
  facet normal 0 0 -1
    outer loop
      vertex -12.2553 25.4861 0
      vertex 0 31 0
      vertex -11.5666 25.2354 0
    endloop
  endfacet
  facet normal 0 0 -1
    outer loop
      vertex -12.9598 25.6881 0
      vertex 0 31 0
      vertex -12.2553 25.4861 0
    endloop
  endfacet
  facet normal 0 0 -1
    outer loop
      vertex -13.6767 25.8405 0
      vertex 0 31 0
      vertex -12.9598 25.6881 0
    endloop
  endfacet
  facet normal 0 0 -1
    outer loop
      vertex -14.4025 25.9425 0
      vertex 0 31 0
      vertex -13.6767 25.8405 0
    endloop
  endfacet
  facet normal 0 0 -1
    outer loop
      vertex -15.1336 25.9936 0
      vertex 0 31 0
      vertex -14.4025 25.9425 0
    endloop
  endfacet
  facet normal 0 0 -1
    outer loop
      vertex -90 31 0
      vertex -15.1336 25.9936 0
      vertex -90 25.9936 0
    endloop
  endfacet
  facet normal 0 0 -1
    outer loop
      vertex -15.1336 25.9936 0
      vertex -90 31 0
      vertex 0 31 0
    endloop
  endfacet
  facet normal 0 1 -0
    outer loop
      vertex 0 31 0
      vertex -90 31 30
      vertex 0 31 30
    endloop
  endfacet
  facet normal 0 1 0
    outer loop
      vertex -90 31 30
      vertex 0 31 0
      vertex -90 31 0
    endloop
  endfacet
  facet normal 0 -1 0
    outer loop
      vertex -90 0 0
      vertex 0 0 30
      vertex -90 0 30
    endloop
  endfacet
  facet normal 0 -1 -0
    outer loop
      vertex 0 0 30
      vertex -90 0 0
      vertex 0 0 0
    endloop
  endfacet
  facet normal -0.743118 -0.669161 0
    outer loop
      vertex -7.45653 22.2493 0
      vertex -7.94693 22.7939 30
      vertex -7.94693 22.7939 0
    endloop
  endfacet
  facet normal -0.743118 -0.669161 0
    outer loop
      vertex -7.94693 22.7939 30
      vertex -7.45653 22.2493 0
      vertex -7.45653 22.2493 30
    endloop
  endfacet
  facet normal -0.788009 0.615663 0
    outer loop
      vertex -7.45653 8.75073 0
      vertex -7.00532 9.32825 30
      vertex -7.00532 9.32825 0
    endloop
  endfacet
  facet normal -0.788009 0.615663 0
    outer loop
      vertex -7.00532 9.32825 30
      vertex -7.45653 8.75073 0
      vertex -7.45653 8.75073 30
    endloop
  endfacet
  facet normal -0.406747 0.913541 0
    outer loop
      vertex -10.8971 6.06266 0
      vertex -11.5666 5.76457 30
      vertex -10.8971 6.06266 30
    endloop
  endfacet
  facet normal -0.406747 0.913541 0
    outer loop
      vertex -11.5666 5.76457 30
      vertex -10.8971 6.06266 0
      vertex -11.5666 5.76457 0
    endloop
  endfacet
  facet normal -0.275622 -0.961266 0
    outer loop
      vertex -12.9598 25.6881 0
      vertex -12.2553 25.4861 30
      vertex -12.9598 25.6881 30
    endloop
  endfacet
  facet normal -0.275622 -0.961266 -0
    outer loop
      vertex -12.2553 25.4861 30
      vertex -12.9598 25.6881 0
      vertex -12.2553 25.4861 0
    endloop
  endfacet
  facet normal -0.139167 -0.990269 0
    outer loop
      vertex -14.4025 25.9425 0
      vertex -13.6767 25.8405 30
      vertex -14.4025 25.9425 30
    endloop
  endfacet
  facet normal -0.139167 -0.990269 -0
    outer loop
      vertex -13.6767 25.8405 30
      vertex -14.4025 25.9425 0
      vertex -13.6767 25.8405 0
    endloop
  endfacet
  facet normal 0 -1 0
    outer loop
      vertex -90 25.9936 0
      vertex -15.1336 25.9936 30
      vertex -90 25.9936 30
    endloop
  endfacet
  facet normal 0 -1 -0
    outer loop
      vertex -15.1336 25.9936 30
      vertex -90 25.9936 0
      vertex -15.1336 25.9936 0
    endloop
  endfacet
  facet normal 0 1 -0
    outer loop
      vertex -15.1336 5.0064 0
      vertex -90 5.0064 30
      vertex -15.1336 5.0064 30
    endloop
  endfacet
  facet normal 0 1 0
    outer loop
      vertex -90 5.0064 30
      vertex -15.1336 5.0064 0
      vertex -90 5.0064 0
    endloop
  endfacet
  facet normal -0.0697517 0.997564 0
    outer loop
      vertex -14.4025 5.05752 0
      vertex -15.1336 5.0064 30
      vertex -14.4025 5.05752 30
    endloop
  endfacet
  facet normal -0.0697517 0.997564 0
    outer loop
      vertex -15.1336 5.0064 30
      vertex -14.4025 5.05752 0
      vertex -15.1336 5.0064 0
    endloop
  endfacet
  facet normal -0.743142 0.669134 0
    outer loop
      vertex -7.94693 8.20609 0
      vertex -7.45653 8.75073 30
      vertex -7.45653 8.75073 0
    endloop
  endfacet
  facet normal -0.743142 0.669134 0
    outer loop
      vertex -7.45653 8.75073 30
      vertex -7.94693 8.20609 0
      vertex -7.94693 8.20609 30
    endloop
  endfacet
  facet normal -0.529944 -0.848033 0
    outer loop
      vertex -10.25 24.5933 0
      vertex -9.62847 24.2049 30
      vertex -10.25 24.5933 30
    endloop
  endfacet
  facet normal -0.529944 -0.848033 -0
    outer loop
      vertex -9.62847 24.2049 30
      vertex -10.25 24.5933 0
      vertex -9.62847 24.2049 0
    endloop
  endfacet
  facet normal -0.927182 -0.374611 0
    outer loop
      vertex -5.63323 19.0912 0
      vertex -5.90777 19.7707 30
      vertex -5.90777 19.7707 0
    endloop
  endfacet
  facet normal -0.927182 -0.374611 0
    outer loop
      vertex -5.90777 19.7707 30
      vertex -5.63323 19.0912 0
      vertex -5.63323 19.0912 30
    endloop
  endfacet
  facet normal -0.0697246 -0.997566 0
    outer loop
      vertex -15.1336 25.9936 0
      vertex -14.4025 25.9425 30
      vertex -15.1336 25.9936 30
    endloop
  endfacet
  facet normal -0.0697246 -0.997566 -0
    outer loop
      vertex -14.4025 25.9425 30
      vertex -15.1336 25.9936 0
      vertex -14.4025 25.9425 0
    endloop
  endfacet
  facet normal -0.999391 -0.034905 0
    outer loop
      vertex -5 15.5 0
      vertex -5.02558 16.2324 30
      vertex -5.02558 16.2324 0
    endloop
  endfacet
  facet normal -0.999391 -0.034905 0
    outer loop
      vertex -5.02558 16.2324 30
      vertex -5 15.5 0
      vertex -5 15.5 30
    endloop
  endfacet
  facet normal -0.994522 -0.104528 0
    outer loop
      vertex -5.02558 16.2324 0
      vertex -5.10219 16.9613 30
      vertex -5.10219 16.9613 0
    endloop
  endfacet
  facet normal -0.994522 -0.104528 0
    outer loop
      vertex -5.10219 16.9613 30
      vertex -5.02558 16.2324 0
      vertex -5.02558 16.2324 30
    endloop
  endfacet
  facet normal -0.139167 0.990269 0
    outer loop
      vertex -13.6767 5.15952 0
      vertex -14.4025 5.05752 30
      vertex -13.6767 5.15952 30
    endloop
  endfacet
  facet normal -0.139167 0.990269 0
    outer loop
      vertex -14.4025 5.05752 30
      vertex -13.6767 5.15952 0
      vertex -14.4025 5.05752 0
    endloop
  endfacet
  facet normal -0.970295 0.241926 0
    outer loop
      vertex -5.40675 12.6058 0
      vertex -5.22945 13.3169 30
      vertex -5.22945 13.3169 0
    endloop
  endfacet
  facet normal -0.970295 0.241926 0
    outer loop
      vertex -5.22945 13.3169 30
      vertex -5.40675 12.6058 0
      vertex -5.40675 12.6058 30
    endloop
  endfacet
  facet normal -0.984811 0.173631 0
    outer loop
      vertex -5.22945 13.3169 0
      vertex -5.10219 14.0387 30
      vertex -5.10219 14.0387 0
    endloop
  endfacet
  facet normal -0.984811 0.173631 0
    outer loop
      vertex -5.10219 14.0387 30
      vertex -5.22945 13.3169 0
      vertex -5.22945 13.3169 30
    endloop
  endfacet
  facet normal -0.342061 -0.939678 0
    outer loop
      vertex -12.2553 25.4861 0
      vertex -11.5666 25.2354 30
      vertex -12.2553 25.4861 30
    endloop
  endfacet
  facet normal -0.342061 -0.939678 -0
    outer loop
      vertex -11.5666 25.2354 30
      vertex -12.2553 25.4861 0
      vertex -11.5666 25.2354 0
    endloop
  endfacet
  facet normal -0.342013 0.939695 0
    outer loop
      vertex -11.5666 5.76457 0
      vertex -12.2553 5.51391 30
      vertex -11.5666 5.76457 30
    endloop
  endfacet
  facet normal -0.342013 0.939695 0
    outer loop
      vertex -12.2553 5.51391 30
      vertex -11.5666 5.76457 0
      vertex -12.2553 5.51391 0
    endloop
  endfacet
  facet normal -0.64279 0.766043 0
    outer loop
      vertex -8.47413 7.69698 0
      vertex -9.03555 7.22589 30
      vertex -8.47413 7.69698 30
    endloop
  endfacet
  facet normal -0.64279 0.766043 0
    outer loop
      vertex -9.03555 7.22589 30
      vertex -8.47413 7.69698 0
      vertex -9.03555 7.22589 0
    endloop
  endfacet
  facet normal -0.207935 -0.978143 0
    outer loop
      vertex -13.6767 25.8405 0
      vertex -12.9598 25.6881 30
      vertex -13.6767 25.8405 30
    endloop
  endfacet
  facet normal -0.207935 -0.978143 -0
    outer loop
      vertex -12.9598 25.6881 30
      vertex -13.6767 25.8405 0
      vertex -12.9598 25.6881 0
    endloop
  endfacet
  facet normal -0.694651 -0.719347 0
    outer loop
      vertex -8.47413 23.303 0
      vertex -7.94693 22.7939 30
      vertex -8.47413 23.303 30
    endloop
  endfacet
  facet normal -0.694651 -0.719347 -0
    outer loop
      vertex -7.94693 22.7939 30
      vertex -8.47413 23.303 0
      vertex -7.94693 22.7939 0
    endloop
  endfacet
  facet normal -0.275647 0.961259 0
    outer loop
      vertex -12.2553 5.51391 0
      vertex -12.9598 5.31189 30
      vertex -12.2553 5.51391 30
    endloop
  endfacet
  facet normal -0.275647 0.961259 0
    outer loop
      vertex -12.9598 5.31189 30
      vertex -12.2553 5.51391 0
      vertex -12.9598 5.31189 0
    endloop
  endfacet
  facet normal -0.469472 0.882947 0
    outer loop
      vertex -10.25 6.40673 0
      vertex -10.8971 6.06266 30
      vertex -10.25 6.40673 30
    endloop
  endfacet
  facet normal -0.469472 0.882947 0
    outer loop
      vertex -10.8971 6.06266 30
      vertex -10.25 6.40673 0
      vertex -10.8971 6.06266 0
    endloop
  endfacet
  facet normal -0.898815 0.438329 0
    outer loop
      vertex -6.22905 10.5705 0
      vertex -5.90777 11.2293 30
      vertex -5.90777 11.2293 0
    endloop
  endfacet
  facet normal -0.898815 0.438329 0
    outer loop
      vertex -5.90777 11.2293 30
      vertex -6.22905 10.5705 0
      vertex -6.22905 10.5705 30
    endloop
  endfacet
  facet normal -0.587793 0.809012 0
    outer loop
      vertex -9.03555 7.22589 0
      vertex -9.62847 6.7951 30
      vertex -9.03555 7.22589 30
    endloop
  endfacet
  facet normal -0.587793 0.809012 0
    outer loop
      vertex -9.62847 6.7951 30
      vertex -9.03555 7.22589 0
      vertex -9.62847 6.7951 0
    endloop
  endfacet
  facet normal -0.951052 0.309031 0
    outer loop
      vertex -5.63323 11.9088 0
      vertex -5.40675 12.6058 30
      vertex -5.40675 12.6058 0
    endloop
  endfacet
  facet normal -0.951052 0.309031 0
    outer loop
      vertex -5.40675 12.6058 30
      vertex -5.63323 11.9088 0
      vertex -5.63323 11.9088 30
    endloop
  endfacet
  facet normal -0.788051 -0.61561 0
    outer loop
      vertex -7.00532 21.6717 0
      vertex -7.45653 22.2493 30
      vertex -7.45653 22.2493 0
    endloop
  endfacet
  facet normal -0.788051 -0.61561 0
    outer loop
      vertex -7.45653 22.2493 30
      vertex -7.00532 21.6717 0
      vertex -7.00532 21.6717 30
    endloop
  endfacet
  facet normal -0.994522 0.104528 0
    outer loop
      vertex -5.10219 14.0387 0
      vertex -5.02558 14.7676 30
      vertex -5.02558 14.7676 0
    endloop
  endfacet
  facet normal -0.994522 0.104528 0
    outer loop
      vertex -5.02558 14.7676 30
      vertex -5.10219 14.0387 0
      vertex -5.10219 14.0387 30
    endloop
  endfacet
  facet normal -0.207896 0.978151 0
    outer loop
      vertex -12.9598 5.31189 0
      vertex -13.6767 5.15952 30
      vertex -12.9598 5.31189 30
    endloop
  endfacet
  facet normal -0.207896 0.978151 0
    outer loop
      vertex -13.6767 5.15952 30
      vertex -12.9598 5.31189 0
      vertex -13.6767 5.15952 0
    endloop
  endfacet
  facet normal -0.406759 -0.913536 0
    outer loop
      vertex -11.5666 25.2354 0
      vertex -10.8971 24.9373 30
      vertex -11.5666 25.2354 30
    endloop
  endfacet
  facet normal -0.406759 -0.913536 -0
    outer loop
      vertex -10.8971 24.9373 30
      vertex -11.5666 25.2354 0
      vertex -10.8971 24.9373 0
    endloop
  endfacet
  facet normal -0.469398 -0.882987 0
    outer loop
      vertex -10.8971 24.9373 0
      vertex -10.25 24.5933 30
      vertex -10.8971 24.9373 30
    endloop
  endfacet
  facet normal -0.469398 -0.882987 -0
    outer loop
      vertex -10.25 24.5933 30
      vertex -10.8971 24.9373 0
      vertex -10.25 24.5933 0
    endloop
  endfacet
  facet normal -0.984811 -0.173631 0
    outer loop
      vertex -5.10219 16.9613 0
      vertex -5.22945 17.6831 30
      vertex -5.22945 17.6831 0
    endloop
  endfacet
  facet normal -0.984811 -0.173631 0
    outer loop
      vertex -5.22945 17.6831 30
      vertex -5.10219 16.9613 0
      vertex -5.10219 16.9613 30
    endloop
  endfacet
  facet normal -0.529914 0.848051 0
    outer loop
      vertex -9.62847 6.7951 0
      vertex -10.25 6.40673 30
      vertex -9.62847 6.7951 30
    endloop
  endfacet
  facet normal -0.529914 0.848051 0
    outer loop
      vertex -10.25 6.40673 30
      vertex -9.62847 6.7951 0
      vertex -10.25 6.40673 0
    endloop
  endfacet
  facet normal -0.970295 -0.241926 0
    outer loop
      vertex -5.22945 17.6831 0
      vertex -5.40675 18.3942 30
      vertex -5.40675 18.3942 0
    endloop
  endfacet
  facet normal -0.970295 -0.241926 0
    outer loop
      vertex -5.40675 18.3942 30
      vertex -5.22945 17.6831 0
      vertex -5.22945 17.6831 30
    endloop
  endfacet
  facet normal -0.694658 0.719341 0
    outer loop
      vertex -7.94693 8.20609 0
      vertex -8.47413 7.69698 30
      vertex -7.94693 8.20609 30
    endloop
  endfacet
  facet normal -0.694658 0.719341 0
    outer loop
      vertex -8.47413 7.69698 30
      vertex -7.94693 8.20609 0
      vertex -8.47413 7.69698 0
    endloop
  endfacet
  facet normal -0.999391 0.034905 0
    outer loop
      vertex -5.02558 14.7676 0
      vertex -5 15.5 30
      vertex -5 15.5 0
    endloop
  endfacet
  facet normal -0.999391 0.034905 0
    outer loop
      vertex -5 15.5 30
      vertex -5.02558 14.7676 0
      vertex -5.02558 14.7676 30
    endloop
  endfacet
  facet normal -0.927182 0.374611 0
    outer loop
      vertex -5.90777 11.2293 0
      vertex -5.63323 11.9088 30
      vertex -5.63323 11.9088 0
    endloop
  endfacet
  facet normal -0.927182 0.374611 0
    outer loop
      vertex -5.63323 11.9088 30
      vertex -5.90777 11.2293 0
      vertex -5.90777 11.2293 30
    endloop
  endfacet
  facet normal -0.642798 -0.766036 0
    outer loop
      vertex -9.03555 23.7741 0
      vertex -8.47413 23.303 30
      vertex -9.03555 23.7741 30
    endloop
  endfacet
  facet normal -0.642798 -0.766036 -0
    outer loop
      vertex -8.47413 23.303 30
      vertex -9.03555 23.7741 0
      vertex -8.47413 23.303 0
    endloop
  endfacet
  facet normal -0.898815 -0.438329 0
    outer loop
      vertex -5.90777 19.7707 0
      vertex -6.22905 20.4295 30
      vertex -6.22905 20.4295 0
    endloop
  endfacet
  facet normal -0.898815 -0.438329 0
    outer loop
      vertex -6.22905 20.4295 30
      vertex -5.90777 19.7707 0
      vertex -5.90777 19.7707 30
    endloop
  endfacet
  facet normal -0.587802 -0.809005 0
    outer loop
      vertex -9.62847 24.2049 0
      vertex -9.03555 23.7741 30
      vertex -9.62847 24.2049 30
    endloop
  endfacet
  facet normal -0.587802 -0.809005 -0
    outer loop
      vertex -9.03555 23.7741 30
      vertex -9.62847 24.2049 0
      vertex -9.03555 23.7741 0
    endloop
  endfacet
  facet normal -0.829038 0.559192 0
    outer loop
      vertex -7.00532 9.32825 0
      vertex -6.59549 9.93585 30
      vertex -6.59549 9.93585 0
    endloop
  endfacet
  facet normal -0.829038 0.559192 0
    outer loop
      vertex -6.59549 9.93585 30
      vertex -7.00532 9.32825 0
      vertex -7.00532 9.32825 30
    endloop
  endfacet
  facet normal -0.828996 -0.559255 0
    outer loop
      vertex -6.59549 21.0642 0
      vertex -7.00532 21.6717 30
      vertex -7.00532 21.6717 0
    endloop
  endfacet
  facet normal -0.828996 -0.559255 0
    outer loop
      vertex -7.00532 21.6717 30
      vertex -6.59549 21.0642 0
      vertex -6.59549 21.0642 30
    endloop
  endfacet
  facet normal -0.866011 0.500025 0
    outer loop
      vertex -6.59549 9.93585 0
      vertex -6.22905 10.5705 30
      vertex -6.22905 10.5705 0
    endloop
  endfacet
  facet normal -0.866011 0.500025 0
    outer loop
      vertex -6.22905 10.5705 30
      vertex -6.59549 9.93585 0
      vertex -6.59549 9.93585 30
    endloop
  endfacet
  facet normal -0.866028 -0.499996 0
    outer loop
      vertex -6.22905 20.4295 0
      vertex -6.59549 21.0642 30
      vertex -6.59549 21.0642 0
    endloop
  endfacet
  facet normal -0.866028 -0.499996 0
    outer loop
      vertex -6.59549 21.0642 30
      vertex -6.22905 20.4295 0
      vertex -6.22905 20.4295 30
    endloop
  endfacet
  facet normal -0.951052 -0.309031 0
    outer loop
      vertex -5.40675 18.3942 0
      vertex -5.63323 19.0912 30
      vertex -5.63323 19.0912 0
    endloop
  endfacet
  facet normal -0.951052 -0.309031 0
    outer loop
      vertex -5.63323 19.0912 30
      vertex -5.40675 18.3942 0
      vertex -5.40675 18.3942 30
    endloop
  endfacet
endsolid OpenSCAD_Model
