solid OpenSCAD_Model
  facet normal 0 0 1
    outer loop
      vertex 0 25 20
      vertex -4 12.5 20
      vertex 0 0 20
    endloop
  endfacet
  facet normal 0 0 1
    outer loop
      vertex 0 25 20
      vertex -4.13111 13.7475 20
      vertex -4 12.5 20
    endloop
  endfacet
  facet normal 0 0 1
    outer loop
      vertex 0 25 20
      vertex -4.51873 14.9404 20
      vertex -4.13111 13.7475 20
    endloop
  endfacet
  facet normal 0 0 1
    outer loop
      vertex 0 25 20
      vertex -5.1459 16.0267 20
      vertex -4.51873 14.9404 20
    endloop
  endfacet
  facet normal 0 0 1
    outer loop
      vertex 0 25 20
      vertex -5.98522 16.9589 20
      vertex -5.1459 16.0267 20
    endloop
  endfacet
  facet normal 0 0 1
    outer loop
      vertex 0 25 20
      vertex -7 17.6962 20
      vertex -5.98522 16.9589 20
    endloop
  endfacet
  facet normal 0 0 1
    outer loop
      vertex 0 25 20
      vertex -8.1459 18.2063 20
      vertex -7 17.6962 20
    endloop
  endfacet
  facet normal 0 0 1
    outer loop
      vertex 0 25 20
      vertex -9.37283 18.4671 20
      vertex -8.1459 18.2063 20
    endloop
  endfacet
  facet normal -0 0 1
    outer loop
      vertex -70 25 20
      vertex -9.37283 18.4671 20
      vertex 0 25 20
    endloop
  endfacet
  facet normal 0 0 1
    outer loop
      vertex -9.37283 18.4671 20
      vertex -70 25 20
      vertex -70 18.4671 20
    endloop
  endfacet
  facet normal -0 0 1
    outer loop
      vertex -4.13111 11.2525 20
      vertex 0 0 20
      vertex -4 12.5 20
    endloop
  endfacet
  facet normal -0 0 1
    outer loop
      vertex -4.51873 10.0596 20
      vertex 0 0 20
      vertex -4.13111 11.2525 20
    endloop
  endfacet
  facet normal -0 0 1
    outer loop
      vertex -5.1459 8.97329 20
      vertex 0 0 20
      vertex -4.51873 10.0596 20
    endloop
  endfacet
  facet normal -0 0 1
    outer loop
      vertex -5.98522 8.04113 20
      vertex 0 0 20
      vertex -5.1459 8.97329 20
    endloop
  endfacet
  facet normal -0 0 1
    outer loop
      vertex -7 7.30385 20
      vertex 0 0 20
      vertex -5.98522 8.04113 20
    endloop
  endfacet
  facet normal -0 0 1
    outer loop
      vertex -8.1459 6.79366 20
      vertex 0 0 20
      vertex -7 7.30385 20
    endloop
  endfacet
  facet normal -0 0 1
    outer loop
      vertex -9.37283 6.53287 20
      vertex 0 0 20
      vertex -8.1459 6.79366 20
    endloop
  endfacet
  facet normal 0 0 1
    outer loop
      vertex -70 0 20
      vertex -9.37283 6.53287 20
      vertex -70 6.53287 20
    endloop
  endfacet
  facet normal 0 0 1
    outer loop
      vertex -9.37283 6.53287 20
      vertex -70 0 20
      vertex 0 0 20
    endloop
  endfacet
  facet normal -1 0 0
    outer loop
      vertex -70 18.4671 0
      vertex -70 25 20
      vertex -70 25 0
    endloop
  endfacet
  facet normal -1 -0 0
    outer loop
      vertex -70 25 20
      vertex -70 18.4671 0
      vertex -70 18.4671 20
    endloop
  endfacet
  facet normal -1 0 0
    outer loop
      vertex -70 0 0
      vertex -70 6.53287 20
      vertex -70 6.53287 0
    endloop
  endfacet
  facet normal -1 -0 0
    outer loop
      vertex -70 6.53287 20
      vertex -70 0 0
      vertex -70 0 20
    endloop
  endfacet
  facet normal 1 -0 0
    outer loop
      vertex 0 0 20
      vertex 0 25 0
      vertex 0 25 20
    endloop
  endfacet
  facet normal 1 0 0
    outer loop
      vertex 0 25 0
      vertex 0 0 20
      vertex 0 0 0
    endloop
  endfacet
  facet normal 0 0 -1
    outer loop
      vertex 0 0 0
      vertex -4 12.5 0
      vertex 0 25 0
    endloop
  endfacet
  facet normal 0 0 -1
    outer loop
      vertex 0 0 0
      vertex -4.13111 11.2525 0
      vertex -4 12.5 0
    endloop
  endfacet
  facet normal 0 0 -1
    outer loop
      vertex 0 0 0
      vertex -4.51873 10.0596 0
      vertex -4.13111 11.2525 0
    endloop
  endfacet
  facet normal 0 0 -1
    outer loop
      vertex 0 0 0
      vertex -5.1459 8.97329 0
      vertex -4.51873 10.0596 0
    endloop
  endfacet
  facet normal 0 0 -1
    outer loop
      vertex 0 0 0
      vertex -5.98522 8.04113 0
      vertex -5.1459 8.97329 0
    endloop
  endfacet
  facet normal 0 0 -1
    outer loop
      vertex 0 0 0
      vertex -7 7.30385 0
      vertex -5.98522 8.04113 0
    endloop
  endfacet
  facet normal 0 0 -1
    outer loop
      vertex 0 0 0
      vertex -8.1459 6.79366 0
      vertex -7 7.30385 0
    endloop
  endfacet
  facet normal 0 0 -1
    outer loop
      vertex 0 0 0
      vertex -9.37283 6.53287 0
      vertex -8.1459 6.79366 0
    endloop
  endfacet
  facet normal 0 0 -1
    outer loop
      vertex -70 0 0
      vertex -9.37283 6.53287 0
      vertex 0 0 0
    endloop
  endfacet
  facet normal -0 0 -1
    outer loop
      vertex -9.37283 6.53287 0
      vertex -70 0 0
      vertex -70 6.53287 0
    endloop
  endfacet
  facet normal 0 0 -1
    outer loop
      vertex -4.13111 13.7475 0
      vertex 0 25 0
      vertex -4 12.5 0
    endloop
  endfacet
  facet normal 0 0 -1
    outer loop
      vertex -4.51873 14.9404 0
      vertex 0 25 0
      vertex -4.13111 13.7475 0
    endloop
  endfacet
  facet normal 0 0 -1
    outer loop
      vertex -5.1459 16.0267 0
      vertex 0 25 0
      vertex -4.51873 14.9404 0
    endloop
  endfacet
  facet normal 0 0 -1
    outer loop
      vertex -5.98522 16.9589 0
      vertex 0 25 0
      vertex -5.1459 16.0267 0
    endloop
  endfacet
  facet normal 0 0 -1
    outer loop
      vertex -7 17.6962 0
      vertex 0 25 0
      vertex -5.98522 16.9589 0
    endloop
  endfacet
  facet normal 0 0 -1
    outer loop
      vertex -8.1459 18.2063 0
      vertex 0 25 0
      vertex -7 17.6962 0
    endloop
  endfacet
  facet normal 0 0 -1
    outer loop
      vertex -9.37283 18.4671 0
      vertex 0 25 0
      vertex -8.1459 18.2063 0
    endloop
  endfacet
  facet normal 0 0 -1
    outer loop
      vertex -70 25 0
      vertex -9.37283 18.4671 0
      vertex -70 18.4671 0
    endloop
  endfacet
  facet normal 0 0 -1
    outer loop
      vertex -9.37283 18.4671 0
      vertex -70 25 0
      vertex 0 25 0
    endloop
  endfacet
  facet normal 0 1 -0
    outer loop
      vertex 0 25 0
      vertex -70 25 20
      vertex 0 25 20
    endloop
  endfacet
  facet normal 0 1 0
    outer loop
      vertex -70 25 20
      vertex 0 25 0
      vertex -70 25 0
    endloop
  endfacet
  facet normal 0 -1 0
    outer loop
      vertex -70 0 0
      vertex 0 0 20
      vertex -70 0 20
    endloop
  endfacet
  facet normal 0 -1 -0
    outer loop
      vertex 0 0 20
      vertex -70 0 0
      vertex 0 0 0
    endloop
  endfacet
  facet normal 0 -1 0
    outer loop
      vertex -70 18.4671 0
      vertex -9.37283 18.4671 20
      vertex -70 18.4671 20
    endloop
  endfacet
  facet normal 0 -1 -0
    outer loop
      vertex -9.37283 18.4671 20
      vertex -70 18.4671 0
      vertex -9.37283 18.4671 0
    endloop
  endfacet
  facet normal -0.587785 0.809017 0
    outer loop
      vertex -5.98522 8.04113 0
      vertex -7 7.30385 20
      vertex -5.98522 8.04113 20
    endloop
  endfacet
  facet normal -0.587785 0.809017 0
    outer loop
      vertex -7 7.30385 20
      vertex -5.98522 8.04113 0
      vertex -7 7.30385 0
    endloop
  endfacet
  facet normal 0 1 -0
    outer loop
      vertex -9.37283 6.53287 0
      vertex -70 6.53287 20
      vertex -9.37283 6.53287 20
    endloop
  endfacet
  facet normal 0 1 0
    outer loop
      vertex -70 6.53287 20
      vertex -9.37283 6.53287 0
      vertex -70 6.53287 0
    endloop
  endfacet
  facet normal -0.866027 -0.499997 0
    outer loop
      vertex -4.51873 14.9404 0
      vertex -5.1459 16.0267 20
      vertex -5.1459 16.0267 0
    endloop
  endfacet
  facet normal -0.866027 -0.499997 0
    outer loop
      vertex -5.1459 16.0267 20
      vertex -4.51873 14.9404 0
      vertex -4.51873 14.9404 20
    endloop
  endfacet
  facet normal -0.587795 -0.80901 0
    outer loop
      vertex -7 17.6962 0
      vertex -5.98522 16.9589 20
      vertex -7 17.6962 20
    endloop
  endfacet
  facet normal -0.587795 -0.80901 -0
    outer loop
      vertex -5.98522 16.9589 20
      vertex -7 17.6962 0
      vertex -5.98522 16.9589 0
    endloop
  endfacet
  facet normal -0.951051 0.309034 0
    outer loop
      vertex -4.51873 10.0596 0
      vertex -4.13111 11.2525 20
      vertex -4.13111 11.2525 0
    endloop
  endfacet
  facet normal -0.951051 0.309034 0
    outer loop
      vertex -4.13111 11.2525 20
      vertex -4.51873 10.0596 0
      vertex -4.51873 10.0596 20
    endloop
  endfacet
  facet normal -0.207918 -0.978146 0
    outer loop
      vertex -9.37283 18.4671 0
      vertex -8.1459 18.2063 20
      vertex -9.37283 18.4671 20
    endloop
  endfacet
  facet normal -0.207918 -0.978146 -0
    outer loop
      vertex -8.1459 18.2063 20
      vertex -9.37283 18.4671 0
      vertex -8.1459 18.2063 0
    endloop
  endfacet
  facet normal -0.866029 0.499993 0
    outer loop
      vertex -5.1459 8.97329 0
      vertex -4.51873 10.0596 20
      vertex -4.51873 10.0596 0
    endloop
  endfacet
  facet normal -0.866029 0.499993 0
    outer loop
      vertex -4.51873 10.0596 20
      vertex -5.1459 8.97329 0
      vertex -5.1459 8.97329 20
    endloop
  endfacet
  facet normal -0.994523 0.104523 0
    outer loop
      vertex -4.13111 11.2525 0
      vertex -4 12.5 20
      vertex -4 12.5 0
    endloop
  endfacet
  facet normal -0.994523 0.104523 0
    outer loop
      vertex -4 12.5 20
      vertex -4.13111 11.2525 0
      vertex -4.13111 11.2525 20
    endloop
  endfacet
  facet normal -0.951051 -0.309034 0
    outer loop
      vertex -4.13111 13.7475 0
      vertex -4.51873 14.9404 20
      vertex -4.51873 14.9404 0
    endloop
  endfacet
  facet normal -0.951051 -0.309034 0
    outer loop
      vertex -4.51873 14.9404 20
      vertex -4.13111 13.7475 0
      vertex -4.13111 13.7475 20
    endloop
  endfacet
  facet normal -0.743145 0.66913 0
    outer loop
      vertex -5.98522 8.04113 0
      vertex -5.1459 8.97329 20
      vertex -5.1459 8.97329 0
    endloop
  endfacet
  facet normal -0.743145 0.66913 0
    outer loop
      vertex -5.1459 8.97329 20
      vertex -5.98522 8.04113 0
      vertex -5.98522 8.04113 20
    endloop
  endfacet
  facet normal -0.994523 -0.104523 0
    outer loop
      vertex -4 12.5 0
      vertex -4.13111 13.7475 20
      vertex -4.13111 13.7475 0
    endloop
  endfacet
  facet normal -0.994523 -0.104523 0
    outer loop
      vertex -4.13111 13.7475 20
      vertex -4 12.5 0
      vertex -4 12.5 20
    endloop
  endfacet
  facet normal -0.743159 -0.669114 0
    outer loop
      vertex -5.1459 16.0267 0
      vertex -5.98522 16.9589 20
      vertex -5.98522 16.9589 0
    endloop
  endfacet
  facet normal -0.743159 -0.669114 0
    outer loop
      vertex -5.98522 16.9589 20
      vertex -5.1459 16.0267 0
      vertex -5.1459 16.0267 20
    endloop
  endfacet
  facet normal -0.406738 0.913545 0
    outer loop
      vertex -7 7.30385 0
      vertex -8.1459 6.79366 20
      vertex -7 7.30385 20
    endloop
  endfacet
  facet normal -0.406738 0.913545 0
    outer loop
      vertex -8.1459 6.79366 20
      vertex -7 7.30385 0
      vertex -8.1459 6.79366 0
    endloop
  endfacet
  facet normal -0.20791 0.978148 0
    outer loop
      vertex -8.1459 6.79366 0
      vertex -9.37283 6.53287 20
      vertex -8.1459 6.79366 20
    endloop
  endfacet
  facet normal -0.20791 0.978148 0
    outer loop
      vertex -9.37283 6.53287 20
      vertex -8.1459 6.79366 0
      vertex -9.37283 6.53287 0
    endloop
  endfacet
  facet normal -0.406678 -0.913571 0
    outer loop
      vertex -8.1459 18.2063 0
      vertex -7 17.6962 20
      vertex -8.1459 18.2063 20
    endloop
  endfacet
  facet normal -0.406678 -0.913571 -0
    outer loop
      vertex -7 17.6962 20
      vertex -8.1459 18.2063 0
      vertex -7 17.6962 0
    endloop
  endfacet
endsolid OpenSCAD_Model
