solid OpenSCAD_Model
  facet normal 0 0 -1
    outer loop
      vertex 31.5 0 0
      vertex 1.5 1.5 0
      vertex 31.5 1.5 0
    endloop
  endfacet
  facet normal 0 0 -1
    outer loop
      vertex 6.2 21.97 0
      vertex 31.5 21.97 0
      vertex 31.5 20.47 0
    endloop
  endfacet
  facet normal 0 0 -1
    outer loop
      vertex 0 36.97 0
      vertex 1.5 21.97 0
      vertex 1.5 20.47 0
    endloop
  endfacet
  facet normal 0 0 -1
    outer loop
      vertex 6.2 21.97 0
      vertex 4.7 36.97 0
      vertex 6.2 36.97 0
    endloop
  endfacet
  facet normal 0 0 -1
    outer loop
      vertex 6.2 21.97 0
      vertex 4.7 21.97 0
      vertex 4.7 36.97 0
    endloop
  endfacet
  facet normal 0 0 -1
    outer loop
      vertex 0 0 0
      vertex 1.5 20.47 0
      vertex 1.5 1.5 0
    endloop
  endfacet
  facet normal 0 0 -1
    outer loop
      vertex 1.5 21.97 0
      vertex 0 36.97 0
      vertex 1.5 36.97 0
    endloop
  endfacet
  facet normal -0 0 -1
    outer loop
      vertex 1.5 20.47 0
      vertex 0 0 0
      vertex 0 36.97 0
    endloop
  endfacet
  facet normal 0 0 -1
    outer loop
      vertex 31.5 0 0
      vertex 0 0 0
      vertex 1.5 1.5 0
    endloop
  endfacet
  facet normal 0 0 -1
    outer loop
      vertex 1.5 20.47 0
      vertex 4.7 21.97 0
      vertex 6.2 21.97 0
    endloop
  endfacet
  facet normal 0 0 -1
    outer loop
      vertex 1.5 20.47 0
      vertex 1.5 21.97 0
      vertex 4.7 21.97 0
    endloop
  endfacet
  facet normal 0 -0 -1
    outer loop
      vertex 6.2 21.97 0
      vertex 31.5 20.47 0
      vertex 1.5 20.47 0
    endloop
  endfacet
  facet normal 0 0 1
    outer loop
      vertex 31.5 1.5 20
      vertex 1.5 1.5 20
      vertex 31.5 0 20
    endloop
  endfacet
  facet normal 0 -0 1
    outer loop
      vertex 31.5 20.47 20
      vertex 31.5 21.97 20
      vertex 6.2 21.97 20
    endloop
  endfacet
  facet normal 0 -0 1
    outer loop
      vertex 1.5 20.47 20
      vertex 1.5 21.97 20
      vertex 0 36.97 20
    endloop
  endfacet
  facet normal 0 0 1
    outer loop
      vertex 6.2 36.97 20
      vertex 4.7 36.97 20
      vertex 6.2 21.97 20
    endloop
  endfacet
  facet normal 0 0 1
    outer loop
      vertex 4.7 36.97 20
      vertex 4.7 21.97 20
      vertex 6.2 21.97 20
    endloop
  endfacet
  facet normal 0 -0 1
    outer loop
      vertex 1.5 1.5 20
      vertex 1.5 20.47 20
      vertex 0 0 20
    endloop
  endfacet
  facet normal 0 0 1
    outer loop
      vertex 1.5 36.97 20
      vertex 0 36.97 20
      vertex 1.5 21.97 20
    endloop
  endfacet
  facet normal 0 0 1
    outer loop
      vertex 0 36.97 20
      vertex 0 0 20
      vertex 1.5 20.47 20
    endloop
  endfacet
  facet normal 0 0 1
    outer loop
      vertex 1.5 1.5 20
      vertex 0 0 20
      vertex 31.5 0 20
    endloop
  endfacet
  facet normal 0 0 1
    outer loop
      vertex 6.2 21.97 20
      vertex 4.7 21.97 20
      vertex 1.5 20.47 20
    endloop
  endfacet
  facet normal 0 0 1
    outer loop
      vertex 4.7 21.97 20
      vertex 1.5 21.97 20
      vertex 1.5 20.47 20
    endloop
  endfacet
  facet normal 0 0 1
    outer loop
      vertex 1.5 20.47 20
      vertex 31.5 20.47 20
      vertex 6.2 21.97 20
    endloop
  endfacet
  facet normal 0 1 0
    outer loop
      vertex 6.2 21.97 0
      vertex 31.5 21.97 20
      vertex 31.5 21.97 0
    endloop
  endfacet
  facet normal 0 1 0
    outer loop
      vertex 6.2 21.97 0
      vertex 6.2 21.97 20
      vertex 31.5 21.97 20
    endloop
  endfacet
  facet normal 1 0 0
    outer loop
      vertex 6.2 36.97 0
      vertex 6.2 21.97 20
      vertex 6.2 21.97 0
    endloop
  endfacet
  facet normal 1 0 -0
    outer loop
      vertex 6.2 36.97 0
      vertex 6.2 36.97 20
      vertex 6.2 21.97 20
    endloop
  endfacet
  facet normal 0 1 0
    outer loop
      vertex 4.7 36.97 0
      vertex 6.2 36.97 20
      vertex 6.2 36.97 0
    endloop
  endfacet
  facet normal 0 1 0
    outer loop
      vertex 4.7 36.97 0
      vertex 4.7 36.97 20
      vertex 6.2 36.97 20
    endloop
  endfacet
  facet normal -1 0 0
    outer loop
      vertex 4.7 21.97 0
      vertex 4.7 36.97 20
      vertex 4.7 36.97 0
    endloop
  endfacet
  facet normal -1 0 0
    outer loop
      vertex 4.7 21.97 0
      vertex 4.7 21.97 20
      vertex 4.7 36.97 20
    endloop
  endfacet
  facet normal 0 1 0
    outer loop
      vertex 1.5 21.97 0
      vertex 4.7 21.97 20
      vertex 4.7 21.97 0
    endloop
  endfacet
  facet normal 0 1 0
    outer loop
      vertex 1.5 21.97 0
      vertex 1.5 21.97 20
      vertex 4.7 21.97 20
    endloop
  endfacet
  facet normal 1 0 0
    outer loop
      vertex 1.5 36.97 0
      vertex 1.5 21.97 20
      vertex 1.5 21.97 0
    endloop
  endfacet
  facet normal 1 0 -0
    outer loop
      vertex 1.5 36.97 0
      vertex 1.5 36.97 20
      vertex 1.5 21.97 20
    endloop
  endfacet
  facet normal 0 1 0
    outer loop
      vertex 0 36.97 0
      vertex 1.5 36.97 20
      vertex 1.5 36.97 0
    endloop
  endfacet
  facet normal 0 1 0
    outer loop
      vertex 0 36.97 0
      vertex 0 36.97 20
      vertex 1.5 36.97 20
    endloop
  endfacet
  facet normal -1 0 0
    outer loop
      vertex 0 0 0
      vertex 0 36.97 20
      vertex 0 36.97 0
    endloop
  endfacet
  facet normal -1 0 0
    outer loop
      vertex 0 0 0
      vertex 0 0 20
      vertex 0 36.97 20
    endloop
  endfacet
  facet normal 0 -1 0
    outer loop
      vertex 31.5 0 0
      vertex 0 0 20
      vertex 0 0 0
    endloop
  endfacet
  facet normal 0 -1 0
    outer loop
      vertex 31.5 0 0
      vertex 31.5 0 20
      vertex 0 0 20
    endloop
  endfacet
  facet normal 1 0 0
    outer loop
      vertex 31.5 1.5 0
      vertex 31.5 0 20
      vertex 31.5 0 0
    endloop
  endfacet
  facet normal 1 0 -0
    outer loop
      vertex 31.5 1.5 0
      vertex 31.5 1.5 20
      vertex 31.5 0 20
    endloop
  endfacet
  facet normal 0 1 0
    outer loop
      vertex 1.5 1.5 0
      vertex 31.5 1.5 20
      vertex 31.5 1.5 0
    endloop
  endfacet
  facet normal 0 1 0
    outer loop
      vertex 1.5 1.5 0
      vertex 1.5 1.5 20
      vertex 31.5 1.5 20
    endloop
  endfacet
  facet normal 1 0 0
    outer loop
      vertex 1.5 20.47 0
      vertex 1.5 1.5 20
      vertex 1.5 1.5 0
    endloop
  endfacet
  facet normal 1 0 -0
    outer loop
      vertex 1.5 20.47 0
      vertex 1.5 20.47 20
      vertex 1.5 1.5 20
    endloop
  endfacet
  facet normal 0 -1 0
    outer loop
      vertex 31.5 20.47 0
      vertex 1.5 20.47 20
      vertex 1.5 20.47 0
    endloop
  endfacet
  facet normal 0 -1 0
    outer loop
      vertex 31.5 20.47 0
      vertex 31.5 20.47 20
      vertex 1.5 20.47 20
    endloop
  endfacet
  facet normal 1 0 0
    outer loop
      vertex 31.5 21.97 0
      vertex 31.5 20.47 20
      vertex 31.5 20.47 0
    endloop
  endfacet
  facet normal 1 0 -0
    outer loop
      vertex 31.5 21.97 0
      vertex 31.5 21.97 20
      vertex 31.5 20.47 20
    endloop
  endfacet
endsolid OpenSCAD_Model
