solid OpenSCAD_Model
  facet normal 1 0 0
    outer loop
      vertex 19.1 0 50.01
      vertex 19.1 19.1 110.01
      vertex 19.1 1.4 110.01
    endloop
  endfacet
  facet normal 1 0 0
    outer loop
      vertex 19.1 19.1 110.01
      vertex 19.1 0 50.01
      vertex 19.1 19.1 0
    endloop
  endfacet
  facet normal 1 0 0
    outer loop
      vertex 19.1 19.1 0
      vertex 19.1 0 50.01
      vertex 19.1 0 0
    endloop
  endfacet
  facet normal 0 0 -1
    outer loop
      vertex 0 0 0
      vertex 19.1 19.1 0
      vertex 19.1 0 0
    endloop
  endfacet
  facet normal -0 0 -1
    outer loop
      vertex 19.1 19.1 0
      vertex 0 0 0
      vertex 0 19.1 0
    endloop
  endfacet
  facet normal -1 0 0
    outer loop
      vertex 0 0 0
      vertex 0 19.1 50.01
      vertex 0 19.1 0
    endloop
  endfacet
  facet normal -1 -0 0
    outer loop
      vertex 0 19.1 50.01
      vertex 0 0 0
      vertex 0 0 50.01
    endloop
  endfacet
  facet normal 0 1 0
    outer loop
      vertex 19.1 19.1 110.01
      vertex 0 19.1 50.01
      vertex 1.4 19.1 110.01
    endloop
  endfacet
  facet normal 0 1 -0
    outer loop
      vertex 19.1 19.1 0
      vertex 0 19.1 50.01
      vertex 19.1 19.1 110.01
    endloop
  endfacet
  facet normal 0 1 0
    outer loop
      vertex 0 19.1 50.01
      vertex 19.1 19.1 0
      vertex 0 19.1 0
    endloop
  endfacet
  facet normal 0 -1 0
    outer loop
      vertex 0 0 0
      vertex 19.1 0 50.01
      vertex 0 0 50.01
    endloop
  endfacet
  facet normal 0 -1 -0
    outer loop
      vertex 19.1 0 50.01
      vertex 0 0 0
      vertex 19.1 0 0
    endloop
  endfacet
  facet normal -0.999728 0 0.023327
    outer loop
      vertex 0 19.1 50.01
      vertex 1.4 17.7 110.01
      vertex 1.4 19.1 110.01
    endloop
  endfacet
  facet normal -0.999728 0 0.023327
    outer loop
      vertex 0 19.1 50.01
      vertex 1.4 1.4 110.01
      vertex 1.4 17.7 110.01
    endloop
  endfacet
  facet normal -0.999728 0 0.023327
    outer loop
      vertex 1.4 1.4 110.01
      vertex 0 19.1 50.01
      vertex 0 0 50.01
    endloop
  endfacet
  facet normal 0 0 1
    outer loop
      vertex 19.1 19.1 110.01
      vertex 17.7 17.7 110.01
      vertex 19.1 1.4 110.01
    endloop
  endfacet
  facet normal -0 0 1
    outer loop
      vertex 1.4 19.1 110.01
      vertex 17.7 17.7 110.01
      vertex 19.1 19.1 110.01
    endloop
  endfacet
  facet normal 0 0 1
    outer loop
      vertex 17.7 17.7 110.01
      vertex 1.4 19.1 110.01
      vertex 1.4 17.7 110.01
    endloop
  endfacet
  facet normal 0 0 1
    outer loop
      vertex 19.1 1.4 110.01
      vertex 17.7 17.7 110.01
      vertex 17.7 1.4 110.01
    endloop
  endfacet
  facet normal 0 -0.999728 0.023327
    outer loop
      vertex 19.1 0 50.01
      vertex 17.7 1.4 110.01
      vertex 1.4 1.4 110.01
    endloop
  endfacet
  facet normal 0 -0.999728 0.023327
    outer loop
      vertex 19.1 0 50.01
      vertex 1.4 1.4 110.01
      vertex 0 0 50.01
    endloop
  endfacet
  facet normal 0 -0.999728 0.023327
    outer loop
      vertex 17.7 1.4 110.01
      vertex 19.1 0 50.01
      vertex 19.1 1.4 110.01
    endloop
  endfacet
  facet normal -1 0 0
    outer loop
      vertex 17.7 1.4 49.99
      vertex 17.7 17.7 110.01
      vertex 17.7 17.7 49.99
    endloop
  endfacet
  facet normal -1 -0 0
    outer loop
      vertex 17.7 17.7 110.01
      vertex 17.7 1.4 49.99
      vertex 17.7 1.4 110.01
    endloop
  endfacet
  facet normal -0 0 1
    outer loop
      vertex 1.4 17.7 49.99
      vertex 17.7 1.4 49.99
      vertex 17.7 17.7 49.99
    endloop
  endfacet
  facet normal 0 0 1
    outer loop
      vertex 17.7 1.4 49.99
      vertex 1.4 17.7 49.99
      vertex 1.4 1.4 49.99
    endloop
  endfacet
  facet normal 1 -0 0
    outer loop
      vertex 1.4 1.4 110.01
      vertex 1.4 17.7 49.99
      vertex 1.4 17.7 110.01
    endloop
  endfacet
  facet normal 1 0 0
    outer loop
      vertex 1.4 17.7 49.99
      vertex 1.4 1.4 110.01
      vertex 1.4 1.4 49.99
    endloop
  endfacet
  facet normal 0 -1 0
    outer loop
      vertex 1.4 17.7 49.99
      vertex 17.7 17.7 110.01
      vertex 1.4 17.7 110.01
    endloop
  endfacet
  facet normal 0 -1 -0
    outer loop
      vertex 17.7 17.7 110.01
      vertex 1.4 17.7 49.99
      vertex 17.7 17.7 49.99
    endloop
  endfacet
  facet normal 0 1 -0
    outer loop
      vertex 17.7 1.4 49.99
      vertex 1.4 1.4 110.01
      vertex 17.7 1.4 110.01
    endloop
  endfacet
  facet normal 0 1 0
    outer loop
      vertex 1.4 1.4 110.01
      vertex 17.7 1.4 49.99
      vertex 1.4 1.4 49.99
    endloop
  endfacet
endsolid OpenSCAD_Model
