solid OpenSCAD_Model
  facet normal 0.991445 0.130525 0
    outer loop
      vertex 37.8554 3.31192 118
      vertex 37.4227 6.59863 0
      vertex 37.4227 6.59863 118
    endloop
  endfacet
  facet normal 0.991445 0.130525 0
    outer loop
      vertex 37.4227 6.59863 0
      vertex 37.8554 3.31192 118
      vertex 37.8554 3.31192 0
    endloop
  endfacet
  facet normal 0.999048 0.0436189 0
    outer loop
      vertex 38 0 118
      vertex 37.8554 3.31192 0
      vertex 37.8554 3.31192 118
    endloop
  endfacet
  facet normal 0.999048 0.0436189 0
    outer loop
      vertex 37.8554 3.31192 0
      vertex 38 0 118
      vertex 38 0 0
    endloop
  endfacet
  facet normal 0.975982 0.217853 0
    outer loop
      vertex 37.4147 6.63447 118
      vertex 37.4227 6.59863 118
      vertex 37.4147 6.63447 3
    endloop
  endfacet
  facet normal 0.9763 0.21642 0
    outer loop
      vertex 37.4147 6.63447 3
      vertex 36.7052 9.83512 0
      vertex 36.7052 9.83512 3
    endloop
  endfacet
  facet normal 0.976297 0.216436 1.77694e-05
    outer loop
      vertex 37.4147 6.63447 3
      vertex 37.4227 6.59863 0
      vertex 36.7052 9.83512 0
    endloop
  endfacet
  facet normal 0.975982 0.217853 -0
    outer loop
      vertex 37.4227 6.59863 0
      vertex 37.4147 6.63447 3
      vertex 37.4227 6.59863 118
    endloop
  endfacet
  facet normal 0.300713 -0.953715 0
    outer loop
      vertex 9.83512 -36.7052 0
      vertex 12.9968 -35.7083 118
      vertex 9.83512 -36.7052 118
    endloop
  endfacet
  facet normal 0.300713 -0.953715 0
    outer loop
      vertex 12.9968 -35.7083 118
      vertex 9.83512 -36.7052 0
      vertex 12.9968 -35.7083 0
    endloop
  endfacet
  facet normal 0.0436189 0.999048 -0
    outer loop
      vertex 3.31192 37.8554 0
      vertex 0 38 118
      vertex 3.31192 37.8554 118
    endloop
  endfacet
  facet normal 0.0436189 0.999048 0
    outer loop
      vertex 0 38 118
      vertex 3.31192 37.8554 0
      vertex 0 38 0
    endloop
  endfacet
  facet normal 0.953711 0.300724 -0
    outer loop
      vertex 36.0934 11.7755 3
      vertex 35.7083 12.9968 118
      vertex 36.0934 11.7755 118
    endloop
  endfacet
  facet normal 0.953711 0.300724 0
    outer loop
      vertex 35.7083 12.9968 118
      vertex 36.0934 11.7755 3
      vertex 35.7083 12.9968 0
    endloop
  endfacet
  facet normal 0.953717 0.300706 -0
    outer loop
      vertex 36.7052 9.83512 0
      vertex 36.0934 11.7755 3
      vertex 36.7052 9.83512 3
    endloop
  endfacet
  facet normal 0.953715 0.300713 -4.92672e-06
    outer loop
      vertex 36.0934 11.7755 3
      vertex 36.7052 9.83512 0
      vertex 35.7083 12.9968 0
    endloop
  endfacet
  facet normal 0.130525 -0.991445 0
    outer loop
      vertex 3.31192 -37.8554 0
      vertex 6.59863 -37.4227 118
      vertex 3.31192 -37.8554 118
    endloop
  endfacet
  facet normal 0.130525 -0.991445 0
    outer loop
      vertex 6.59863 -37.4227 118
      vertex 3.31192 -37.8554 0
      vertex 6.59863 -37.4227 0
    endloop
  endfacet
  facet normal -0.461742 -0.887014 0
    outer loop
      vertex -19 -32.909 0
      vertex -16.0595 -34.4397 118
      vertex -19 -32.909 118
    endloop
  endfacet
  facet normal -0.461742 -0.887014 -0
    outer loop
      vertex -16.0595 -34.4397 118
      vertex -19 -32.909 0
      vertex -16.0595 -34.4397 0
    endloop
  endfacet
  facet normal -0.0436189 0.999048 0
    outer loop
      vertex 0 38 0
      vertex -3.31192 37.8554 118
      vertex 0 38 118
    endloop
  endfacet
  facet normal -0.0436189 0.999048 0
    outer loop
      vertex -3.31192 37.8554 118
      vertex 0 38 0
      vertex -3.31192 37.8554 0
    endloop
  endfacet
  facet normal 0.923881 0.38268 0
    outer loop
      vertex 35.7083 12.9968 118
      vertex 34.4397 16.0595 0
      vertex 34.4397 16.0595 118
    endloop
  endfacet
  facet normal 0.923881 0.38268 0
    outer loop
      vertex 34.4397 16.0595 0
      vertex 35.7083 12.9968 118
      vertex 35.7083 12.9968 0
    endloop
  endfacet
  facet normal 0.991445 -0.130525 0
    outer loop
      vertex 37.4227 -6.59863 118
      vertex 37.8554 -3.31192 0
      vertex 37.8554 -3.31192 118
    endloop
  endfacet
  facet normal 0.991445 -0.130525 0
    outer loop
      vertex 37.8554 -3.31192 0
      vertex 37.4227 -6.59863 118
      vertex 37.4227 -6.59863 0
    endloop
  endfacet
  facet normal -0.461742 0.887014 0
    outer loop
      vertex -16.0595 34.4397 0
      vertex -19 32.909 118
      vertex -16.0595 34.4397 118
    endloop
  endfacet
  facet normal -0.461742 0.887014 0
    outer loop
      vertex -19 32.909 118
      vertex -16.0595 34.4397 0
      vertex -19 32.909 0
    endloop
  endfacet
  facet normal 0.216436 -0.976297 0
    outer loop
      vertex 6.59863 -37.4227 0
      vertex 9.83512 -36.7052 118
      vertex 6.59863 -37.4227 118
    endloop
  endfacet
  facet normal 0.216436 -0.976297 0
    outer loop
      vertex 9.83512 -36.7052 118
      vertex 6.59863 -37.4227 0
      vertex 9.83512 -36.7052 0
    endloop
  endfacet
  facet normal 0.461742 -0.887014 0
    outer loop
      vertex 16.0595 -34.4397 0
      vertex 19 -32.909 118
      vertex 16.0595 -34.4397 118
    endloop
  endfacet
  facet normal 0.461742 -0.887014 0
    outer loop
      vertex 19 -32.909 118
      vertex 16.0595 -34.4397 0
      vertex 19 -32.909 0
    endloop
  endfacet
  facet normal 0.887014 -0.461742 0
    outer loop
      vertex 32.909 -19 118
      vertex 34.4397 -16.0595 0
      vertex 34.4397 -16.0595 118
    endloop
  endfacet
  facet normal 0.887014 -0.461742 0
    outer loop
      vertex 34.4397 -16.0595 0
      vertex 32.909 -19 118
      vertex 32.909 -19 0
    endloop
  endfacet
  facet normal -0.300713 0.953715 0
    outer loop
      vertex -9.83512 36.7052 0
      vertex -12.9968 35.7083 118
      vertex -9.83512 36.7052 118
    endloop
  endfacet
  facet normal -0.300713 0.953715 0
    outer loop
      vertex -12.9968 35.7083 118
      vertex -9.83512 36.7052 0
      vertex -12.9968 35.7083 0
    endloop
  endfacet
  facet normal -0.923881 -0.38268 0
    outer loop
      vertex -34.4397 -16.0595 0
      vertex -35.7083 -12.9968 118
      vertex -35.7083 -12.9968 0
    endloop
  endfacet
  facet normal -0.923881 -0.38268 0
    outer loop
      vertex -35.7083 -12.9968 118
      vertex -34.4397 -16.0595 0
      vertex -34.4397 -16.0595 118
    endloop
  endfacet
  facet normal 0.793349 -0.608767 0
    outer loop
      vertex 29.1097 -24.4259 118
      vertex 31.1278 -21.7959 0
      vertex 31.1278 -21.7959 118
    endloop
  endfacet
  facet normal 0.793349 -0.608767 0
    outer loop
      vertex 31.1278 -21.7959 0
      vertex 29.1097 -24.4259 118
      vertex 29.1097 -24.4259 0
    endloop
  endfacet
  facet normal 0.216436 0.976297 -0
    outer loop
      vertex 9.83512 36.7052 0
      vertex 6.59863 37.4227 118
      vertex 9.83512 36.7052 118
    endloop
  endfacet
  facet normal 0.216436 0.976297 0
    outer loop
      vertex 6.59863 37.4227 118
      vertex 9.83512 36.7052 0
      vertex 6.59863 37.4227 0
    endloop
  endfacet
  facet normal 0.923881 -0.38268 0
    outer loop
      vertex 34.4397 -16.0595 118
      vertex 35.7083 -12.9968 0
      vertex 35.7083 -12.9968 118
    endloop
  endfacet
  facet normal 0.923881 -0.38268 0
    outer loop
      vertex 35.7083 -12.9968 0
      vertex 34.4397 -16.0595 118
      vertex 34.4397 -16.0595 0
    endloop
  endfacet
  facet normal -0.953715 0.300713 0
    outer loop
      vertex -36.7052 9.83512 0
      vertex -35.7083 12.9968 118
      vertex -35.7083 12.9968 0
    endloop
  endfacet
  facet normal -0.953715 0.300713 0
    outer loop
      vertex -35.7083 12.9968 118
      vertex -36.7052 9.83512 0
      vertex -36.7052 9.83512 118
    endloop
  endfacet
  facet normal 0.537303 0.843389 -0
    outer loop
      vertex 21.7959 31.1278 0
      vertex 19 32.909 118
      vertex 21.7959 31.1278 118
    endloop
  endfacet
  facet normal 0.537303 0.843389 0
    outer loop
      vertex 19 32.909 118
      vertex 21.7959 31.1278 0
      vertex 19 32.909 0
    endloop
  endfacet
  facet normal 0.976297 -0.216436 0
    outer loop
      vertex 36.7052 -9.83512 118
      vertex 37.4227 -6.59863 0
      vertex 37.4227 -6.59863 118
    endloop
  endfacet
  facet normal 0.976297 -0.216436 0
    outer loop
      vertex 37.4227 -6.59863 0
      vertex 36.7052 -9.83512 118
      vertex 36.7052 -9.83512 0
    endloop
  endfacet
  facet normal -0.537303 0.843389 0
    outer loop
      vertex -19 32.909 0
      vertex -21.7959 31.1278 118
      vertex -19 32.909 118
    endloop
  endfacet
  facet normal -0.537303 0.843389 0
    outer loop
      vertex -21.7959 31.1278 118
      vertex -19 32.909 0
      vertex -21.7959 31.1278 0
    endloop
  endfacet
  facet normal 0.130525 0.991445 -0
    outer loop
      vertex 6.59863 37.4227 0
      vertex 3.31192 37.8554 118
      vertex 6.59863 37.4227 118
    endloop
  endfacet
  facet normal 0.130525 0.991445 0
    outer loop
      vertex 3.31192 37.8554 118
      vertex 6.59863 37.4227 0
      vertex 3.31192 37.8554 0
    endloop
  endfacet
  facet normal -0.608767 0.793349 0
    outer loop
      vertex -21.7959 31.1278 0
      vertex -24.4259 29.1097 118
      vertex -21.7959 31.1278 118
    endloop
  endfacet
  facet normal -0.608767 0.793349 0
    outer loop
      vertex -24.4259 29.1097 118
      vertex -21.7959 31.1278 0
      vertex -24.4259 29.1097 0
    endloop
  endfacet
  facet normal -0.793349 -0.608767 0
    outer loop
      vertex -29.1097 -24.4259 0
      vertex -31.1278 -21.7959 118
      vertex -31.1278 -21.7959 0
    endloop
  endfacet
  facet normal -0.793349 -0.608767 0
    outer loop
      vertex -31.1278 -21.7959 118
      vertex -29.1097 -24.4259 0
      vertex -29.1097 -24.4259 118
    endloop
  endfacet
  facet normal 0.461742 0.887014 -0
    outer loop
      vertex 19 32.909 0
      vertex 16.0595 34.4397 118
      vertex 19 32.909 118
    endloop
  endfacet
  facet normal 0.461742 0.887014 0
    outer loop
      vertex 16.0595 34.4397 118
      vertex 19 32.909 0
      vertex 16.0595 34.4397 0
    endloop
  endfacet
  facet normal 0.0436189 -0.999048 0
    outer loop
      vertex 0 -38 0
      vertex 3.31192 -37.8554 118
      vertex 0 -38 118
    endloop
  endfacet
  facet normal 0.0436189 -0.999048 0
    outer loop
      vertex 3.31192 -37.8554 118
      vertex 0 -38 0
      vertex 3.31192 -37.8554 0
    endloop
  endfacet
  facet normal -0.537303 -0.843389 0
    outer loop
      vertex -21.7959 -31.1278 0
      vertex -19 -32.909 118
      vertex -21.7959 -31.1278 118
    endloop
  endfacet
  facet normal -0.537303 -0.843389 -0
    outer loop
      vertex -19 -32.909 118
      vertex -21.7959 -31.1278 0
      vertex -19 -32.909 0
    endloop
  endfacet
  facet normal -0.976297 0.216436 0
    outer loop
      vertex -37.4227 6.59863 0
      vertex -36.7052 9.83512 118
      vertex -36.7052 9.83512 0
    endloop
  endfacet
  facet normal -0.976297 0.216436 0
    outer loop
      vertex -36.7052 9.83512 118
      vertex -37.4227 6.59863 0
      vertex -37.4227 6.59863 118
    endloop
  endfacet
  facet normal -0.216436 0.976297 0
    outer loop
      vertex -6.59863 37.4227 0
      vertex -9.83512 36.7052 118
      vertex -6.59863 37.4227 118
    endloop
  endfacet
  facet normal -0.216436 0.976297 0
    outer loop
      vertex -9.83512 36.7052 118
      vertex -6.59863 37.4227 0
      vertex -9.83512 36.7052 0
    endloop
  endfacet
  facet normal 0.537303 -0.843389 0
    outer loop
      vertex 19 -32.909 0
      vertex 21.7959 -31.1278 118
      vertex 19 -32.909 118
    endloop
  endfacet
  facet normal 0.537303 -0.843389 0
    outer loop
      vertex 21.7959 -31.1278 118
      vertex 19 -32.909 0
      vertex 21.7959 -31.1278 0
    endloop
  endfacet
  facet normal 0.999048 -0.0436189 0
    outer loop
      vertex 37.8554 -3.31192 118
      vertex 38 0 0
      vertex 38 0 118
    endloop
  endfacet
  facet normal 0.999048 -0.0436189 0
    outer loop
      vertex 38 0 0
      vertex 37.8554 -3.31192 118
      vertex 37.8554 -3.31192 0
    endloop
  endfacet
  facet normal -0.737292 0.675574 0
    outer loop
      vertex -29.1097 24.4259 0
      vertex -26.8701 26.8701 118
      vertex -26.8701 26.8701 0
    endloop
  endfacet
  facet normal -0.737292 0.675574 0
    outer loop
      vertex -26.8701 26.8701 118
      vertex -29.1097 24.4259 0
      vertex -29.1097 24.4259 118
    endloop
  endfacet
  facet normal -0.991445 0.130525 0
    outer loop
      vertex -37.8554 3.31192 0
      vertex -37.4227 6.59863 118
      vertex -37.4227 6.59863 0
    endloop
  endfacet
  facet normal -0.991445 0.130525 0
    outer loop
      vertex -37.4227 6.59863 118
      vertex -37.8554 3.31192 0
      vertex -37.8554 3.31192 118
    endloop
  endfacet
  facet normal 0.843389 -0.537303 0
    outer loop
      vertex 31.1278 -21.7959 118
      vertex 32.909 -19 0
      vertex 32.909 -19 118
    endloop
  endfacet
  facet normal 0.843389 -0.537303 0
    outer loop
      vertex 32.909 -19 0
      vertex 31.1278 -21.7959 118
      vertex 31.1278 -21.7959 0
    endloop
  endfacet
  facet normal -0.923881 0.38268 0
    outer loop
      vertex -35.7083 12.9968 0
      vertex -34.4397 16.0595 118
      vertex -34.4397 16.0595 0
    endloop
  endfacet
  facet normal -0.923881 0.38268 0
    outer loop
      vertex -34.4397 16.0595 118
      vertex -35.7083 12.9968 0
      vertex -35.7083 12.9968 118
    endloop
  endfacet
  facet normal 0.608767 0.793349 -0
    outer loop
      vertex 24.4259 29.1097 0
      vertex 21.7959 31.1278 118
      vertex 24.4259 29.1097 118
    endloop
  endfacet
  facet normal 0.608767 0.793349 0
    outer loop
      vertex 21.7959 31.1278 118
      vertex 24.4259 29.1097 0
      vertex 21.7959 31.1278 0
    endloop
  endfacet
  facet normal 0.953715 -0.300713 0
    outer loop
      vertex 35.7083 -12.9968 118
      vertex 36.7052 -9.83512 0
      vertex 36.7052 -9.83512 118
    endloop
  endfacet
  facet normal 0.953715 -0.300713 0
    outer loop
      vertex 36.7052 -9.83512 0
      vertex 35.7083 -12.9968 118
      vertex 35.7083 -12.9968 0
    endloop
  endfacet
  facet normal 0.38268 0.923881 -0
    outer loop
      vertex 16.0595 34.4397 0
      vertex 12.9968 35.7083 118
      vertex 16.0595 34.4397 118
    endloop
  endfacet
  facet normal 0.38268 0.923881 0
    outer loop
      vertex 12.9968 35.7083 118
      vertex 16.0595 34.4397 0
      vertex 12.9968 35.7083 0
    endloop
  endfacet
  facet normal 0.793349 0.608767 0
    outer loop
      vertex 31.1278 21.7959 118
      vertex 29.1097 24.4259 0
      vertex 29.1097 24.4259 118
    endloop
  endfacet
  facet normal 0.793349 0.608767 0
    outer loop
      vertex 29.1097 24.4259 0
      vertex 31.1278 21.7959 118
      vertex 31.1278 21.7959 0
    endloop
  endfacet
  facet normal -0.953715 -0.300713 0
    outer loop
      vertex -35.7083 -12.9968 0
      vertex -36.7052 -9.83512 118
      vertex -36.7052 -9.83512 0
    endloop
  endfacet
  facet normal -0.953715 -0.300713 0
    outer loop
      vertex -36.7052 -9.83512 118
      vertex -35.7083 -12.9968 0
      vertex -35.7083 -12.9968 118
    endloop
  endfacet
  facet normal 0.38268 -0.923881 0
    outer loop
      vertex 12.9968 -35.7083 0
      vertex 16.0595 -34.4397 118
      vertex 12.9968 -35.7083 118
    endloop
  endfacet
  facet normal 0.38268 -0.923881 0
    outer loop
      vertex 16.0595 -34.4397 118
      vertex 12.9968 -35.7083 0
      vertex 16.0595 -34.4397 0
    endloop
  endfacet
  facet normal 0.843389 0.537303 0
    outer loop
      vertex 32.909 19 118
      vertex 31.1278 21.7959 0
      vertex 31.1278 21.7959 118
    endloop
  endfacet
  facet normal 0.843389 0.537303 0
    outer loop
      vertex 31.1278 21.7959 0
      vertex 32.909 19 118
      vertex 32.909 19 0
    endloop
  endfacet
  facet normal -0.675574 0.737292 0
    outer loop
      vertex -24.4259 29.1097 0
      vertex -26.8701 26.8701 118
      vertex -24.4259 29.1097 118
    endloop
  endfacet
  facet normal -0.675574 0.737292 0
    outer loop
      vertex -26.8701 26.8701 118
      vertex -24.4259 29.1097 0
      vertex -26.8701 26.8701 0
    endloop
  endfacet
  facet normal -0.887014 -0.461742 0
    outer loop
      vertex -32.909 -19 0
      vertex -34.4397 -16.0595 118
      vertex -34.4397 -16.0595 0
    endloop
  endfacet
  facet normal -0.887014 -0.461742 0
    outer loop
      vertex -34.4397 -16.0595 118
      vertex -32.909 -19 0
      vertex -32.909 -19 118
    endloop
  endfacet
  facet normal 0 0 -1
    outer loop
      vertex 37.8554 -3.31192 0
      vertex 37.8554 3.31192 0
      vertex 38 0 0
    endloop
  endfacet
  facet normal 0 0 -1
    outer loop
      vertex 37.4227 -6.59863 0
      vertex 37.8554 3.31192 0
      vertex 37.8554 -3.31192 0
    endloop
  endfacet
  facet normal 0 0 -1
    outer loop
      vertex 37.4227 -6.59863 0
      vertex 37.4227 6.59863 0
      vertex 37.8554 3.31192 0
    endloop
  endfacet
  facet normal 0 0 -1
    outer loop
      vertex 36.7052 -9.83512 0
      vertex 37.4227 6.59863 0
      vertex 37.4227 -6.59863 0
    endloop
  endfacet
  facet normal 0 0 -1
    outer loop
      vertex 36.7052 -9.83512 0
      vertex 36.7052 9.83512 0
      vertex 37.4227 6.59863 0
    endloop
  endfacet
  facet normal 0 0 -1
    outer loop
      vertex 35.7083 -12.9968 0
      vertex 36.7052 9.83512 0
      vertex 36.7052 -9.83512 0
    endloop
  endfacet
  facet normal 0 0 -1
    outer loop
      vertex 35.7083 -12.9968 0
      vertex 35.7083 12.9968 0
      vertex 36.7052 9.83512 0
    endloop
  endfacet
  facet normal 0 0 -1
    outer loop
      vertex 34.4397 -16.0595 0
      vertex 35.7083 12.9968 0
      vertex 35.7083 -12.9968 0
    endloop
  endfacet
  facet normal 0 0 -1
    outer loop
      vertex 34.4397 -16.0595 0
      vertex 34.4397 16.0595 0
      vertex 35.7083 12.9968 0
    endloop
  endfacet
  facet normal 0 0 -1
    outer loop
      vertex 32.909 -19 0
      vertex 34.4397 16.0595 0
      vertex 34.4397 -16.0595 0
    endloop
  endfacet
  facet normal 0 0 -1
    outer loop
      vertex 32.909 -19 0
      vertex 32.909 19 0
      vertex 34.4397 16.0595 0
    endloop
  endfacet
  facet normal 0 0 -1
    outer loop
      vertex 31.1278 -21.7959 0
      vertex 32.909 19 0
      vertex 32.909 -19 0
    endloop
  endfacet
  facet normal 0 0 -1
    outer loop
      vertex 31.1278 -21.7959 0
      vertex 31.1278 21.7959 0
      vertex 32.909 19 0
    endloop
  endfacet
  facet normal 0 0 -1
    outer loop
      vertex 29.1097 -24.4259 0
      vertex 31.1278 21.7959 0
      vertex 31.1278 -21.7959 0
    endloop
  endfacet
  facet normal 0 0 -1
    outer loop
      vertex 29.1097 -24.4259 0
      vertex 29.1097 24.4259 0
      vertex 31.1278 21.7959 0
    endloop
  endfacet
  facet normal 0 0 -1
    outer loop
      vertex 26.8701 -26.8701 0
      vertex 29.1097 24.4259 0
      vertex 29.1097 -24.4259 0
    endloop
  endfacet
  facet normal 0 0 -1
    outer loop
      vertex 26.8701 -26.8701 0
      vertex 26.8701 26.8701 0
      vertex 29.1097 24.4259 0
    endloop
  endfacet
  facet normal 0 0 -1
    outer loop
      vertex 24.4259 -29.1097 0
      vertex 26.8701 26.8701 0
      vertex 26.8701 -26.8701 0
    endloop
  endfacet
  facet normal 0 0 -1
    outer loop
      vertex 24.4259 -29.1097 0
      vertex 24.4259 29.1097 0
      vertex 26.8701 26.8701 0
    endloop
  endfacet
  facet normal 0 0 -1
    outer loop
      vertex 21.7959 -31.1278 0
      vertex 24.4259 29.1097 0
      vertex 24.4259 -29.1097 0
    endloop
  endfacet
  facet normal 0 0 -1
    outer loop
      vertex 21.7959 -31.1278 0
      vertex 21.7959 31.1278 0
      vertex 24.4259 29.1097 0
    endloop
  endfacet
  facet normal 0 0 -1
    outer loop
      vertex 19 -32.909 0
      vertex 21.7959 31.1278 0
      vertex 21.7959 -31.1278 0
    endloop
  endfacet
  facet normal 0 0 -1
    outer loop
      vertex 19 -32.909 0
      vertex 19 32.909 0
      vertex 21.7959 31.1278 0
    endloop
  endfacet
  facet normal 0 0 -1
    outer loop
      vertex 16.0595 -34.4397 0
      vertex 19 32.909 0
      vertex 19 -32.909 0
    endloop
  endfacet
  facet normal 0 0 -1
    outer loop
      vertex 16.0595 -34.4397 0
      vertex 16.0595 34.4397 0
      vertex 19 32.909 0
    endloop
  endfacet
  facet normal 0 0 -1
    outer loop
      vertex 12.9968 -35.7083 0
      vertex 16.0595 34.4397 0
      vertex 16.0595 -34.4397 0
    endloop
  endfacet
  facet normal 0 0 -1
    outer loop
      vertex 12.9968 -35.7083 0
      vertex 12.9968 35.7083 0
      vertex 16.0595 34.4397 0
    endloop
  endfacet
  facet normal 0 0 -1
    outer loop
      vertex 9.83512 -36.7052 0
      vertex 12.9968 35.7083 0
      vertex 12.9968 -35.7083 0
    endloop
  endfacet
  facet normal 0 0 -1
    outer loop
      vertex 9.83512 -36.7052 0
      vertex 9.83512 36.7052 0
      vertex 12.9968 35.7083 0
    endloop
  endfacet
  facet normal 0 0 -1
    outer loop
      vertex 6.59863 -37.4227 0
      vertex 9.83512 36.7052 0
      vertex 9.83512 -36.7052 0
    endloop
  endfacet
  facet normal 0 0 -1
    outer loop
      vertex 6.59863 -37.4227 0
      vertex 6.59863 37.4227 0
      vertex 9.83512 36.7052 0
    endloop
  endfacet
  facet normal 0 0 -1
    outer loop
      vertex 3.31192 -37.8554 0
      vertex 6.59863 37.4227 0
      vertex 6.59863 -37.4227 0
    endloop
  endfacet
  facet normal 0 0 -1
    outer loop
      vertex 3.31192 -37.8554 0
      vertex 3.31192 37.8554 0
      vertex 6.59863 37.4227 0
    endloop
  endfacet
  facet normal 0 0 -1
    outer loop
      vertex 0 -38 0
      vertex 3.31192 37.8554 0
      vertex 3.31192 -37.8554 0
    endloop
  endfacet
  facet normal 0 0 -1
    outer loop
      vertex 0 -38 0
      vertex 0 38 0
      vertex 3.31192 37.8554 0
    endloop
  endfacet
  facet normal 0 0 -1
    outer loop
      vertex -3.31192 -37.8554 0
      vertex 0 38 0
      vertex 0 -38 0
    endloop
  endfacet
  facet normal 0 0 -1
    outer loop
      vertex -3.31192 -37.8554 0
      vertex -3.31192 37.8554 0
      vertex 0 38 0
    endloop
  endfacet
  facet normal 0 0 -1
    outer loop
      vertex -6.59863 -37.4227 0
      vertex -3.31192 37.8554 0
      vertex -3.31192 -37.8554 0
    endloop
  endfacet
  facet normal 0 0 -1
    outer loop
      vertex -6.59863 -37.4227 0
      vertex -6.59863 37.4227 0
      vertex -3.31192 37.8554 0
    endloop
  endfacet
  facet normal 0 0 -1
    outer loop
      vertex -9.83512 -36.7052 0
      vertex -6.59863 37.4227 0
      vertex -6.59863 -37.4227 0
    endloop
  endfacet
  facet normal 0 0 -1
    outer loop
      vertex -9.83512 -36.7052 0
      vertex -9.83512 36.7052 0
      vertex -6.59863 37.4227 0
    endloop
  endfacet
  facet normal 0 0 -1
    outer loop
      vertex -12.9968 -35.7083 0
      vertex -9.83512 36.7052 0
      vertex -9.83512 -36.7052 0
    endloop
  endfacet
  facet normal 0 0 -1
    outer loop
      vertex -12.9968 -35.7083 0
      vertex -12.9968 35.7083 0
      vertex -9.83512 36.7052 0
    endloop
  endfacet
  facet normal 0 0 -1
    outer loop
      vertex -16.0595 -34.4397 0
      vertex -12.9968 35.7083 0
      vertex -12.9968 -35.7083 0
    endloop
  endfacet
  facet normal 0 0 -1
    outer loop
      vertex -16.0595 -34.4397 0
      vertex -16.0595 34.4397 0
      vertex -12.9968 35.7083 0
    endloop
  endfacet
  facet normal 0 0 -1
    outer loop
      vertex -19 -32.909 0
      vertex -16.0595 34.4397 0
      vertex -16.0595 -34.4397 0
    endloop
  endfacet
  facet normal 0 0 -1
    outer loop
      vertex -19 -32.909 0
      vertex -19 32.909 0
      vertex -16.0595 34.4397 0
    endloop
  endfacet
  facet normal 0 0 -1
    outer loop
      vertex -21.7959 -31.1278 0
      vertex -19 32.909 0
      vertex -19 -32.909 0
    endloop
  endfacet
  facet normal 0 0 -1
    outer loop
      vertex -21.7959 -31.1278 0
      vertex -21.7959 31.1278 0
      vertex -19 32.909 0
    endloop
  endfacet
  facet normal 0 0 -1
    outer loop
      vertex -24.4259 -29.1097 0
      vertex -21.7959 31.1278 0
      vertex -21.7959 -31.1278 0
    endloop
  endfacet
  facet normal 0 0 -1
    outer loop
      vertex -24.4259 -29.1097 0
      vertex -24.4259 29.1097 0
      vertex -21.7959 31.1278 0
    endloop
  endfacet
  facet normal 0 0 -1
    outer loop
      vertex -26.8701 -26.8701 0
      vertex -24.4259 29.1097 0
      vertex -24.4259 -29.1097 0
    endloop
  endfacet
  facet normal 0 0 -1
    outer loop
      vertex -26.8701 -26.8701 0
      vertex -26.8701 26.8701 0
      vertex -24.4259 29.1097 0
    endloop
  endfacet
  facet normal 0 0 -1
    outer loop
      vertex -29.1097 -24.4259 0
      vertex -26.8701 26.8701 0
      vertex -26.8701 -26.8701 0
    endloop
  endfacet
  facet normal 0 0 -1
    outer loop
      vertex -29.1097 -24.4259 0
      vertex -29.1097 24.4259 0
      vertex -26.8701 26.8701 0
    endloop
  endfacet
  facet normal 0 0 -1
    outer loop
      vertex -31.1278 -21.7959 0
      vertex -29.1097 24.4259 0
      vertex -29.1097 -24.4259 0
    endloop
  endfacet
  facet normal 0 0 -1
    outer loop
      vertex -31.1278 -21.7959 0
      vertex -31.1278 21.7959 0
      vertex -29.1097 24.4259 0
    endloop
  endfacet
  facet normal 0 0 -1
    outer loop
      vertex -32.909 -19 0
      vertex -31.1278 21.7959 0
      vertex -31.1278 -21.7959 0
    endloop
  endfacet
  facet normal 0 0 -1
    outer loop
      vertex -32.909 -19 0
      vertex -32.909 19 0
      vertex -31.1278 21.7959 0
    endloop
  endfacet
  facet normal 0 0 -1
    outer loop
      vertex -34.4397 -16.0595 0
      vertex -32.909 19 0
      vertex -32.909 -19 0
    endloop
  endfacet
  facet normal 0 0 -1
    outer loop
      vertex -34.4397 -16.0595 0
      vertex -34.4397 16.0595 0
      vertex -32.909 19 0
    endloop
  endfacet
  facet normal 0 0 -1
    outer loop
      vertex -35.7083 -12.9968 0
      vertex -34.4397 16.0595 0
      vertex -34.4397 -16.0595 0
    endloop
  endfacet
  facet normal 0 0 -1
    outer loop
      vertex -35.7083 -12.9968 0
      vertex -35.7083 12.9968 0
      vertex -34.4397 16.0595 0
    endloop
  endfacet
  facet normal 0 0 -1
    outer loop
      vertex -36.7052 -9.83512 0
      vertex -35.7083 12.9968 0
      vertex -35.7083 -12.9968 0
    endloop
  endfacet
  facet normal 0 0 -1
    outer loop
      vertex -36.7052 -9.83512 0
      vertex -36.7052 9.83512 0
      vertex -35.7083 12.9968 0
    endloop
  endfacet
  facet normal 0 0 -1
    outer loop
      vertex -37.4227 -6.59863 0
      vertex -36.7052 9.83512 0
      vertex -36.7052 -9.83512 0
    endloop
  endfacet
  facet normal 0 0 -1
    outer loop
      vertex -37.4227 -6.59863 0
      vertex -37.4227 6.59863 0
      vertex -36.7052 9.83512 0
    endloop
  endfacet
  facet normal 0 0 -1
    outer loop
      vertex -37.8554 -3.31192 0
      vertex -37.4227 6.59863 0
      vertex -37.4227 -6.59863 0
    endloop
  endfacet
  facet normal 0 0 -1
    outer loop
      vertex -37.8554 -3.31192 0
      vertex -37.8554 3.31192 0
      vertex -37.4227 6.59863 0
    endloop
  endfacet
  facet normal 0 -0 -1
    outer loop
      vertex -37.8554 3.31192 0
      vertex -37.8554 -3.31192 0
      vertex -38 0 0
    endloop
  endfacet
  facet normal -0.0436189 -0.999048 0
    outer loop
      vertex -3.31192 -37.8554 0
      vertex 0 -38 118
      vertex -3.31192 -37.8554 118
    endloop
  endfacet
  facet normal -0.0436189 -0.999048 -0
    outer loop
      vertex 0 -38 118
      vertex -3.31192 -37.8554 0
      vertex 0 -38 0
    endloop
  endfacet
  facet normal -0.38268 0.923881 0
    outer loop
      vertex -12.9968 35.7083 0
      vertex -16.0595 34.4397 118
      vertex -12.9968 35.7083 118
    endloop
  endfacet
  facet normal -0.38268 0.923881 0
    outer loop
      vertex -16.0595 34.4397 118
      vertex -12.9968 35.7083 0
      vertex -16.0595 34.4397 0
    endloop
  endfacet
  facet normal -0.793349 0.608767 0
    outer loop
      vertex -31.1278 21.7959 0
      vertex -29.1097 24.4259 118
      vertex -29.1097 24.4259 0
    endloop
  endfacet
  facet normal -0.793349 0.608767 0
    outer loop
      vertex -29.1097 24.4259 118
      vertex -31.1278 21.7959 0
      vertex -31.1278 21.7959 118
    endloop
  endfacet
  facet normal -0.737292 -0.675574 0
    outer loop
      vertex -26.8701 -26.8701 0
      vertex -29.1097 -24.4259 118
      vertex -29.1097 -24.4259 0
    endloop
  endfacet
  facet normal -0.737292 -0.675574 0
    outer loop
      vertex -29.1097 -24.4259 118
      vertex -26.8701 -26.8701 0
      vertex -26.8701 -26.8701 118
    endloop
  endfacet
  facet normal 0.737292 0.675574 0
    outer loop
      vertex 29.1097 24.4259 118
      vertex 26.8701 26.8701 0
      vertex 26.8701 26.8701 118
    endloop
  endfacet
  facet normal 0.737292 0.675574 0
    outer loop
      vertex 26.8701 26.8701 0
      vertex 29.1097 24.4259 118
      vertex 29.1097 24.4259 0
    endloop
  endfacet
  facet normal -0.976297 -0.216436 0
    outer loop
      vertex -36.7052 -9.83512 0
      vertex -37.4227 -6.59863 118
      vertex -37.4227 -6.59863 0
    endloop
  endfacet
  facet normal -0.976297 -0.216436 0
    outer loop
      vertex -37.4227 -6.59863 118
      vertex -36.7052 -9.83512 0
      vertex -36.7052 -9.83512 118
    endloop
  endfacet
  facet normal -0.999048 0.0436189 0
    outer loop
      vertex -38 0 0
      vertex -37.8554 3.31192 118
      vertex -37.8554 3.31192 0
    endloop
  endfacet
  facet normal -0.999048 0.0436189 0
    outer loop
      vertex -37.8554 3.31192 118
      vertex -38 0 0
      vertex -38 0 118
    endloop
  endfacet
  facet normal -0.999048 -0.0436189 0
    outer loop
      vertex -37.8554 -3.31192 0
      vertex -38 0 118
      vertex -38 0 0
    endloop
  endfacet
  facet normal -0.999048 -0.0436189 0
    outer loop
      vertex -38 0 118
      vertex -37.8554 -3.31192 0
      vertex -37.8554 -3.31192 118
    endloop
  endfacet
  facet normal -0.608767 -0.793349 0
    outer loop
      vertex -24.4259 -29.1097 0
      vertex -21.7959 -31.1278 118
      vertex -24.4259 -29.1097 118
    endloop
  endfacet
  facet normal -0.608767 -0.793349 -0
    outer loop
      vertex -21.7959 -31.1278 118
      vertex -24.4259 -29.1097 0
      vertex -21.7959 -31.1278 0
    endloop
  endfacet
  facet normal 0.887014 0.461742 0
    outer loop
      vertex 34.4397 16.0595 118
      vertex 32.909 19 0
      vertex 32.909 19 118
    endloop
  endfacet
  facet normal 0.887014 0.461742 0
    outer loop
      vertex 32.909 19 0
      vertex 34.4397 16.0595 118
      vertex 34.4397 16.0595 0
    endloop
  endfacet
  facet normal -0.991445 -0.130525 0
    outer loop
      vertex -37.4227 -6.59863 0
      vertex -37.8554 -3.31192 118
      vertex -37.8554 -3.31192 0
    endloop
  endfacet
  facet normal -0.991445 -0.130525 0
    outer loop
      vertex -37.8554 -3.31192 118
      vertex -37.4227 -6.59863 0
      vertex -37.4227 -6.59863 118
    endloop
  endfacet
  facet normal 0.675574 0.737292 -0
    outer loop
      vertex 26.8701 26.8701 0
      vertex 24.4259 29.1097 118
      vertex 26.8701 26.8701 118
    endloop
  endfacet
  facet normal 0.675574 0.737292 0
    outer loop
      vertex 24.4259 29.1097 118
      vertex 26.8701 26.8701 0
      vertex 24.4259 29.1097 0
    endloop
  endfacet
  facet normal -0.675574 -0.737292 0
    outer loop
      vertex -26.8701 -26.8701 0
      vertex -24.4259 -29.1097 118
      vertex -26.8701 -26.8701 118
    endloop
  endfacet
  facet normal -0.675574 -0.737292 -0
    outer loop
      vertex -24.4259 -29.1097 118
      vertex -26.8701 -26.8701 0
      vertex -24.4259 -29.1097 0
    endloop
  endfacet
  facet normal -0.130525 0.991445 0
    outer loop
      vertex -3.31192 37.8554 0
      vertex -6.59863 37.4227 118
      vertex -3.31192 37.8554 118
    endloop
  endfacet
  facet normal -0.130525 0.991445 0
    outer loop
      vertex -6.59863 37.4227 118
      vertex -3.31192 37.8554 0
      vertex -6.59863 37.4227 0
    endloop
  endfacet
  facet normal -0.843389 -0.537303 0
    outer loop
      vertex -31.1278 -21.7959 0
      vertex -32.909 -19 118
      vertex -32.909 -19 0
    endloop
  endfacet
  facet normal -0.843389 -0.537303 0
    outer loop
      vertex -32.909 -19 118
      vertex -31.1278 -21.7959 0
      vertex -31.1278 -21.7959 118
    endloop
  endfacet
  facet normal 0.608767 -0.793349 0
    outer loop
      vertex 21.7959 -31.1278 0
      vertex 24.4259 -29.1097 118
      vertex 21.7959 -31.1278 118
    endloop
  endfacet
  facet normal 0.608767 -0.793349 0
    outer loop
      vertex 24.4259 -29.1097 118
      vertex 21.7959 -31.1278 0
      vertex 24.4259 -29.1097 0
    endloop
  endfacet
  facet normal 0.300713 0.953715 -0
    outer loop
      vertex 12.9968 35.7083 0
      vertex 9.83512 36.7052 118
      vertex 12.9968 35.7083 118
    endloop
  endfacet
  facet normal 0.300713 0.953715 0
    outer loop
      vertex 9.83512 36.7052 118
      vertex 12.9968 35.7083 0
      vertex 9.83512 36.7052 0
    endloop
  endfacet
  facet normal -0.38268 -0.923881 0
    outer loop
      vertex -16.0595 -34.4397 0
      vertex -12.9968 -35.7083 118
      vertex -16.0595 -34.4397 118
    endloop
  endfacet
  facet normal -0.38268 -0.923881 -0
    outer loop
      vertex -12.9968 -35.7083 118
      vertex -16.0595 -34.4397 0
      vertex -12.9968 -35.7083 0
    endloop
  endfacet
  facet normal -0.300713 -0.953715 0
    outer loop
      vertex -12.9968 -35.7083 0
      vertex -9.83512 -36.7052 118
      vertex -12.9968 -35.7083 118
    endloop
  endfacet
  facet normal -0.300713 -0.953715 -0
    outer loop
      vertex -9.83512 -36.7052 118
      vertex -12.9968 -35.7083 0
      vertex -9.83512 -36.7052 0
    endloop
  endfacet
  facet normal 0.737292 -0.675574 0
    outer loop
      vertex 26.8701 -26.8701 118
      vertex 29.1097 -24.4259 0
      vertex 29.1097 -24.4259 118
    endloop
  endfacet
  facet normal 0.737292 -0.675574 0
    outer loop
      vertex 29.1097 -24.4259 0
      vertex 26.8701 -26.8701 118
      vertex 26.8701 -26.8701 0
    endloop
  endfacet
  facet normal -0.216436 -0.976297 0
    outer loop
      vertex -9.83512 -36.7052 0
      vertex -6.59863 -37.4227 118
      vertex -9.83512 -36.7052 118
    endloop
  endfacet
  facet normal -0.216436 -0.976297 -0
    outer loop
      vertex -6.59863 -37.4227 118
      vertex -9.83512 -36.7052 0
      vertex -6.59863 -37.4227 0
    endloop
  endfacet
  facet normal 0.675574 -0.737292 0
    outer loop
      vertex 24.4259 -29.1097 0
      vertex 26.8701 -26.8701 118
      vertex 24.4259 -29.1097 118
    endloop
  endfacet
  facet normal 0.675574 -0.737292 0
    outer loop
      vertex 26.8701 -26.8701 118
      vertex 24.4259 -29.1097 0
      vertex 26.8701 -26.8701 0
    endloop
  endfacet
  facet normal 0 0 1
    outer loop
      vertex 32.8892 11.9707 118
      vertex 35.7083 12.9968 118
      vertex 34.4397 16.0595 118
    endloop
  endfacet
  facet normal 0 0 1
    outer loop
      vertex 35.7083 12.9968 118
      vertex 32.8892 11.9707 118
      vertex 36.0934 11.7755 118
    endloop
  endfacet
  facet normal 0 0 1
    outer loop
      vertex 36.0934 11.7755 118
      vertex 33.8074 9.05867 118
      vertex 34.2984 6.84384 118
    endloop
  endfacet
  facet normal 0 0 1
    outer loop
      vertex 31.7208 14.7916 118
      vertex 34.4397 16.0595 118
      vertex 32.909 19 118
    endloop
  endfacet
  facet normal 0 0 1
    outer loop
      vertex 36.0934 11.7755 118
      vertex 32.8892 11.9707 118
      vertex 33.8074 9.05867 118
    endloop
  endfacet
  facet normal 0 0 1
    outer loop
      vertex 34.4397 16.0595 118
      vertex 31.7208 14.7916 118
      vertex 32.8892 11.9707 118
    endloop
  endfacet
  facet normal 0 0 1
    outer loop
      vertex 30.3109 17.5 118
      vertex 32.909 19 118
      vertex 31.1278 21.7959 118
    endloop
  endfacet
  facet normal 0 0 1
    outer loop
      vertex 32.909 19 118
      vertex 30.3109 17.5 118
      vertex 31.7208 14.7916 118
    endloop
  endfacet
  facet normal 0 0 1
    outer loop
      vertex 28.6703 20.0752 118
      vertex 31.1278 21.7959 118
      vertex 29.1097 24.4259 118
    endloop
  endfacet
  facet normal 0 0 1
    outer loop
      vertex 31.1278 21.7959 118
      vertex 28.6703 20.0752 118
      vertex 30.3109 17.5 118
    endloop
  endfacet
  facet normal 0 0 1
    outer loop
      vertex 26.8116 22.4976 118
      vertex 29.1097 24.4259 118
      vertex 26.8701 26.8701 118
    endloop
  endfacet
  facet normal 0 0 1
    outer loop
      vertex 29.1097 24.4259 118
      vertex 26.8116 22.4976 118
      vertex 28.6703 20.0752 118
    endloop
  endfacet
  facet normal 0 0 1
    outer loop
      vertex 26.8701 26.8701 118
      vertex 24.7487 24.7487 118
      vertex 26.8116 22.4976 118
    endloop
  endfacet
  facet normal 0 0 1
    outer loop
      vertex 24.4259 29.1097 118
      vertex 24.7487 24.7487 118
      vertex 26.8701 26.8701 118
    endloop
  endfacet
  facet normal 0 0 1
    outer loop
      vertex 24.4259 29.1097 118
      vertex 22.4976 26.8116 118
      vertex 24.7487 24.7487 118
    endloop
  endfacet
  facet normal 0 0 1
    outer loop
      vertex 21.7959 31.1278 118
      vertex 22.4976 26.8116 118
      vertex 24.4259 29.1097 118
    endloop
  endfacet
  facet normal 0 0 1
    outer loop
      vertex 21.7959 31.1278 118
      vertex 20.0752 28.6703 118
      vertex 22.4976 26.8116 118
    endloop
  endfacet
  facet normal 0 0 1
    outer loop
      vertex 19 32.909 118
      vertex 20.0752 28.6703 118
      vertex 21.7959 31.1278 118
    endloop
  endfacet
  facet normal 0 0 1
    outer loop
      vertex 19 32.909 118
      vertex 17.5 30.3109 118
      vertex 20.0752 28.6703 118
    endloop
  endfacet
  facet normal 0 0 1
    outer loop
      vertex 16.0595 34.4397 118
      vertex 17.5 30.3109 118
      vertex 19 32.909 118
    endloop
  endfacet
  facet normal 0 0 1
    outer loop
      vertex 16.0595 34.4397 118
      vertex 14.7916 31.7208 118
      vertex 17.5 30.3109 118
    endloop
  endfacet
  facet normal 0 0 1
    outer loop
      vertex 12.9968 35.7083 118
      vertex 14.7916 31.7208 118
      vertex 16.0595 34.4397 118
    endloop
  endfacet
  facet normal 0 0 1
    outer loop
      vertex 12.9968 35.7083 118
      vertex 11.9707 32.8892 118
      vertex 14.7916 31.7208 118
    endloop
  endfacet
  facet normal 0 0 1
    outer loop
      vertex 9.83512 36.7052 118
      vertex 11.9707 32.8892 118
      vertex 12.9968 35.7083 118
    endloop
  endfacet
  facet normal 0 0 1
    outer loop
      vertex 9.83512 36.7052 118
      vertex 9.05867 33.8074 118
      vertex 11.9707 32.8892 118
    endloop
  endfacet
  facet normal 0 0 1
    outer loop
      vertex 6.59863 37.4227 118
      vertex 9.05867 33.8074 118
      vertex 9.83512 36.7052 118
    endloop
  endfacet
  facet normal 0 0 1
    outer loop
      vertex 6.59863 37.4227 118
      vertex 6.07769 34.4683 118
      vertex 9.05867 33.8074 118
    endloop
  endfacet
  facet normal 0 0 1
    outer loop
      vertex 3.31192 37.8554 118
      vertex 6.07769 34.4683 118
      vertex 6.59863 37.4227 118
    endloop
  endfacet
  facet normal 0 0 1
    outer loop
      vertex 3.31192 37.8554 118
      vertex 3.05045 34.8668 118
      vertex 6.07769 34.4683 118
    endloop
  endfacet
  facet normal 0 0 1
    outer loop
      vertex 0 38 118
      vertex 3.05045 34.8668 118
      vertex 3.31192 37.8554 118
    endloop
  endfacet
  facet normal 0 0 1
    outer loop
      vertex 0 38 118
      vertex 0 35 118
      vertex 3.05045 34.8668 118
    endloop
  endfacet
  facet normal 0 0 1
    outer loop
      vertex 0 38 118
      vertex -3.05045 34.8668 118
      vertex 0 35 118
    endloop
  endfacet
  facet normal -0 0 1
    outer loop
      vertex -3.31192 37.8554 118
      vertex -3.05045 34.8668 118
      vertex 0 38 118
    endloop
  endfacet
  facet normal 0 0 1
    outer loop
      vertex -3.31192 37.8554 118
      vertex -6.07769 34.4683 118
      vertex -3.05045 34.8668 118
    endloop
  endfacet
  facet normal -0 0 1
    outer loop
      vertex -6.59863 37.4227 118
      vertex -6.07769 34.4683 118
      vertex -3.31192 37.8554 118
    endloop
  endfacet
  facet normal 0 0 1
    outer loop
      vertex -6.59863 37.4227 118
      vertex -9.05867 33.8074 118
      vertex -6.07769 34.4683 118
    endloop
  endfacet
  facet normal -0 0 1
    outer loop
      vertex -9.83512 36.7052 118
      vertex -9.05867 33.8074 118
      vertex -6.59863 37.4227 118
    endloop
  endfacet
  facet normal 0 0 1
    outer loop
      vertex -9.83512 36.7052 118
      vertex -11.9707 32.8892 118
      vertex -9.05867 33.8074 118
    endloop
  endfacet
  facet normal -0 0 1
    outer loop
      vertex -12.9968 35.7083 118
      vertex -11.9707 32.8892 118
      vertex -9.83512 36.7052 118
    endloop
  endfacet
  facet normal 0 0 1
    outer loop
      vertex -12.9968 35.7083 118
      vertex -14.7916 31.7208 118
      vertex -11.9707 32.8892 118
    endloop
  endfacet
  facet normal -0 0 1
    outer loop
      vertex -16.0595 34.4397 118
      vertex -14.7916 31.7208 118
      vertex -12.9968 35.7083 118
    endloop
  endfacet
  facet normal 0 0 1
    outer loop
      vertex -16.0595 34.4397 118
      vertex -17.5 30.3109 118
      vertex -14.7916 31.7208 118
    endloop
  endfacet
  facet normal -0 0 1
    outer loop
      vertex -19 32.909 118
      vertex -17.5 30.3109 118
      vertex -16.0595 34.4397 118
    endloop
  endfacet
  facet normal 0 0 1
    outer loop
      vertex -19 32.909 118
      vertex -20.0752 28.6703 118
      vertex -17.5 30.3109 118
    endloop
  endfacet
  facet normal -0 0 1
    outer loop
      vertex -21.7959 31.1278 118
      vertex -20.0752 28.6703 118
      vertex -19 32.909 118
    endloop
  endfacet
  facet normal 0 0 1
    outer loop
      vertex -21.7959 31.1278 118
      vertex -22.4976 26.8116 118
      vertex -20.0752 28.6703 118
    endloop
  endfacet
  facet normal -0 0 1
    outer loop
      vertex -24.4259 29.1097 118
      vertex -22.4976 26.8116 118
      vertex -21.7959 31.1278 118
    endloop
  endfacet
  facet normal 0 0 1
    outer loop
      vertex -24.4259 29.1097 118
      vertex -24.7487 24.7487 118
      vertex -22.4976 26.8116 118
    endloop
  endfacet
  facet normal -0 0 1
    outer loop
      vertex -26.8701 26.8701 118
      vertex -24.7487 24.7487 118
      vertex -24.4259 29.1097 118
    endloop
  endfacet
  facet normal 0 0 1
    outer loop
      vertex -24.7487 24.7487 118
      vertex -26.8701 26.8701 118
      vertex -26.8116 22.4976 118
    endloop
  endfacet
  facet normal -0 0 1
    outer loop
      vertex -29.1097 24.4259 118
      vertex -26.8116 22.4976 118
      vertex -26.8701 26.8701 118
    endloop
  endfacet
  facet normal 0 0 1
    outer loop
      vertex -26.8116 22.4976 118
      vertex -29.1097 24.4259 118
      vertex -28.6703 20.0752 118
    endloop
  endfacet
  facet normal -0 0 1
    outer loop
      vertex -31.1278 21.7959 118
      vertex -28.6703 20.0752 118
      vertex -29.1097 24.4259 118
    endloop
  endfacet
  facet normal 0 0 1
    outer loop
      vertex -28.6703 20.0752 118
      vertex -31.1278 21.7959 118
      vertex -30.3109 17.5 118
    endloop
  endfacet
  facet normal -0 0 1
    outer loop
      vertex -32.909 19 118
      vertex -30.3109 17.5 118
      vertex -31.1278 21.7959 118
    endloop
  endfacet
  facet normal 0 0 1
    outer loop
      vertex -30.3109 17.5 118
      vertex -32.909 19 118
      vertex -31.7208 14.7916 118
    endloop
  endfacet
  facet normal -0 0 1
    outer loop
      vertex -34.4397 16.0595 118
      vertex -31.7208 14.7916 118
      vertex -32.909 19 118
    endloop
  endfacet
  facet normal 0 0 1
    outer loop
      vertex -31.7208 14.7916 118
      vertex -34.4397 16.0595 118
      vertex -32.8892 11.9707 118
    endloop
  endfacet
  facet normal -0 0 1
    outer loop
      vertex -35.7083 12.9968 118
      vertex -32.8892 11.9707 118
      vertex -34.4397 16.0595 118
    endloop
  endfacet
  facet normal 0 0 1
    outer loop
      vertex -32.8892 11.9707 118
      vertex -35.7083 12.9968 118
      vertex -33.8074 9.05867 118
    endloop
  endfacet
  facet normal -0 0 1
    outer loop
      vertex -36.7052 9.83512 118
      vertex -33.8074 9.05867 118
      vertex -35.7083 12.9968 118
    endloop
  endfacet
  facet normal 0 0 1
    outer loop
      vertex -33.8074 9.05867 118
      vertex -36.7052 9.83512 118
      vertex -34.4683 6.07769 118
    endloop
  endfacet
  facet normal -0 0 1
    outer loop
      vertex -37.4227 6.59863 118
      vertex -34.4683 6.07769 118
      vertex -36.7052 9.83512 118
    endloop
  endfacet
  facet normal 0 0 1
    outer loop
      vertex 35 0 118
      vertex 38 0 118
      vertex 37.8554 3.31192 118
    endloop
  endfacet
  facet normal 0 0 1
    outer loop
      vertex 35 0 118
      vertex 37.8554 3.31192 118
      vertex 37.4227 6.59863 118
    endloop
  endfacet
  facet normal 0 0 1
    outer loop
      vertex 38 0 118
      vertex 35 0 118
      vertex 37.8554 -3.31192 118
    endloop
  endfacet
  facet normal 0 0 1
    outer loop
      vertex 35 0 118
      vertex 37.4227 6.59863 118
      vertex 37.4147 6.63447 118
    endloop
  endfacet
  facet normal -0 0 1
    outer loop
      vertex 34.8668 -3.05045 118
      vertex 37.8554 -3.31192 118
      vertex 35 0 118
    endloop
  endfacet
  facet normal -0 0 1
    outer loop
      vertex 34.4683 -6.07769 118
      vertex 37.4227 -6.59863 118
      vertex 34.8668 -3.05045 118
    endloop
  endfacet
  facet normal 0 0 1
    outer loop
      vertex 37.8554 -3.31192 118
      vertex 34.8668 -3.05045 118
      vertex 37.4227 -6.59863 118
    endloop
  endfacet
  facet normal 0 0 1
    outer loop
      vertex 37.4227 -6.59863 118
      vertex 34.4683 -6.07769 118
      vertex 36.7052 -9.83512 118
    endloop
  endfacet
  facet normal -0 0 1
    outer loop
      vertex 33.8074 -9.05867 118
      vertex 36.7052 -9.83512 118
      vertex 34.4683 -6.07769 118
    endloop
  endfacet
  facet normal 0 0 1
    outer loop
      vertex 36.7052 -9.83512 118
      vertex 33.8074 -9.05867 118
      vertex 35.7083 -12.9968 118
    endloop
  endfacet
  facet normal -0 0 1
    outer loop
      vertex 32.8892 -11.9707 118
      vertex 35.7083 -12.9968 118
      vertex 33.8074 -9.05867 118
    endloop
  endfacet
  facet normal 0 0 1
    outer loop
      vertex 35.7083 -12.9968 118
      vertex 32.8892 -11.9707 118
      vertex 34.4397 -16.0595 118
    endloop
  endfacet
  facet normal -0 0 1
    outer loop
      vertex 31.7208 -14.7916 118
      vertex 34.4397 -16.0595 118
      vertex 32.8892 -11.9707 118
    endloop
  endfacet
  facet normal 0 0 1
    outer loop
      vertex 34.4397 -16.0595 118
      vertex 31.7208 -14.7916 118
      vertex 32.909 -19 118
    endloop
  endfacet
  facet normal -0 0 1
    outer loop
      vertex 30.3109 -17.5 118
      vertex 32.909 -19 118
      vertex 31.7208 -14.7916 118
    endloop
  endfacet
  facet normal 0 0 1
    outer loop
      vertex 32.909 -19 118
      vertex 30.3109 -17.5 118
      vertex 31.1278 -21.7959 118
    endloop
  endfacet
  facet normal -0 0 1
    outer loop
      vertex 28.6703 -20.0752 118
      vertex 31.1278 -21.7959 118
      vertex 30.3109 -17.5 118
    endloop
  endfacet
  facet normal 0 0 1
    outer loop
      vertex 31.1278 -21.7959 118
      vertex 28.6703 -20.0752 118
      vertex 29.1097 -24.4259 118
    endloop
  endfacet
  facet normal -0 0 1
    outer loop
      vertex 26.8116 -22.4976 118
      vertex 29.1097 -24.4259 118
      vertex 28.6703 -20.0752 118
    endloop
  endfacet
  facet normal 0 0 1
    outer loop
      vertex 29.1097 -24.4259 118
      vertex 26.8116 -22.4976 118
      vertex 26.8701 -26.8701 118
    endloop
  endfacet
  facet normal -0 0 1
    outer loop
      vertex 24.7487 -24.7487 118
      vertex 26.8701 -26.8701 118
      vertex 26.8116 -22.4976 118
    endloop
  endfacet
  facet normal 0 0 1
    outer loop
      vertex 24.7487 -24.7487 118
      vertex 24.4259 -29.1097 118
      vertex 26.8701 -26.8701 118
    endloop
  endfacet
  facet normal -0 0 1
    outer loop
      vertex 22.4976 -26.8116 118
      vertex 24.4259 -29.1097 118
      vertex 24.7487 -24.7487 118
    endloop
  endfacet
  facet normal 0 0 1
    outer loop
      vertex 22.4976 -26.8116 118
      vertex 21.7959 -31.1278 118
      vertex 24.4259 -29.1097 118
    endloop
  endfacet
  facet normal -0 0 1
    outer loop
      vertex 20.0752 -28.6703 118
      vertex 21.7959 -31.1278 118
      vertex 22.4976 -26.8116 118
    endloop
  endfacet
  facet normal 0 0 1
    outer loop
      vertex 20.0752 -28.6703 118
      vertex 19 -32.909 118
      vertex 21.7959 -31.1278 118
    endloop
  endfacet
  facet normal -0 0 1
    outer loop
      vertex 17.5 -30.3109 118
      vertex 19 -32.909 118
      vertex 20.0752 -28.6703 118
    endloop
  endfacet
  facet normal 0 0 1
    outer loop
      vertex 17.5 -30.3109 118
      vertex 16.0595 -34.4397 118
      vertex 19 -32.909 118
    endloop
  endfacet
  facet normal -0 0 1
    outer loop
      vertex 14.7916 -31.7208 118
      vertex 16.0595 -34.4397 118
      vertex 17.5 -30.3109 118
    endloop
  endfacet
  facet normal 0 0 1
    outer loop
      vertex 14.7916 -31.7208 118
      vertex 12.9968 -35.7083 118
      vertex 16.0595 -34.4397 118
    endloop
  endfacet
  facet normal -0 0 1
    outer loop
      vertex 11.9707 -32.8892 118
      vertex 12.9968 -35.7083 118
      vertex 14.7916 -31.7208 118
    endloop
  endfacet
  facet normal 0 0 1
    outer loop
      vertex 11.9707 -32.8892 118
      vertex 9.83512 -36.7052 118
      vertex 12.9968 -35.7083 118
    endloop
  endfacet
  facet normal -0 0 1
    outer loop
      vertex 9.05867 -33.8074 118
      vertex 9.83512 -36.7052 118
      vertex 11.9707 -32.8892 118
    endloop
  endfacet
  facet normal 0 0 1
    outer loop
      vertex 9.05867 -33.8074 118
      vertex 6.59863 -37.4227 118
      vertex 9.83512 -36.7052 118
    endloop
  endfacet
  facet normal -0 0 1
    outer loop
      vertex 6.07769 -34.4683 118
      vertex 6.59863 -37.4227 118
      vertex 9.05867 -33.8074 118
    endloop
  endfacet
  facet normal 0 0 1
    outer loop
      vertex 6.07769 -34.4683 118
      vertex 3.31192 -37.8554 118
      vertex 6.59863 -37.4227 118
    endloop
  endfacet
  facet normal -0 0 1
    outer loop
      vertex 3.05045 -34.8668 118
      vertex 3.31192 -37.8554 118
      vertex 6.07769 -34.4683 118
    endloop
  endfacet
  facet normal -0 0 1
    outer loop
      vertex 0 -35 118
      vertex 3.31192 -37.8554 118
      vertex 3.05045 -34.8668 118
    endloop
  endfacet
  facet normal 0 0 1
    outer loop
      vertex 0 -35 118
      vertex 0 -38 118
      vertex 3.31192 -37.8554 118
    endloop
  endfacet
  facet normal 0 0 1
    outer loop
      vertex -3.05045 -34.8668 118
      vertex 0 -38 118
      vertex 0 -35 118
    endloop
  endfacet
  facet normal 0 0 1
    outer loop
      vertex -3.05045 -34.8668 118
      vertex -3.31192 -37.8554 118
      vertex 0 -38 118
    endloop
  endfacet
  facet normal 0 0 1
    outer loop
      vertex -6.07769 -34.4683 118
      vertex -3.31192 -37.8554 118
      vertex -3.05045 -34.8668 118
    endloop
  endfacet
  facet normal 0 0 1
    outer loop
      vertex -6.07769 -34.4683 118
      vertex -6.59863 -37.4227 118
      vertex -3.31192 -37.8554 118
    endloop
  endfacet
  facet normal 0 0 1
    outer loop
      vertex -9.05867 -33.8074 118
      vertex -6.59863 -37.4227 118
      vertex -6.07769 -34.4683 118
    endloop
  endfacet
  facet normal 0 0 1
    outer loop
      vertex -9.05867 -33.8074 118
      vertex -9.83512 -36.7052 118
      vertex -6.59863 -37.4227 118
    endloop
  endfacet
  facet normal 0 0 1
    outer loop
      vertex -11.9707 -32.8892 118
      vertex -9.83512 -36.7052 118
      vertex -9.05867 -33.8074 118
    endloop
  endfacet
  facet normal 0 0 1
    outer loop
      vertex -11.9707 -32.8892 118
      vertex -12.9968 -35.7083 118
      vertex -9.83512 -36.7052 118
    endloop
  endfacet
  facet normal 0 0 1
    outer loop
      vertex -14.7916 -31.7208 118
      vertex -12.9968 -35.7083 118
      vertex -11.9707 -32.8892 118
    endloop
  endfacet
  facet normal 0 0 1
    outer loop
      vertex -14.7916 -31.7208 118
      vertex -16.0595 -34.4397 118
      vertex -12.9968 -35.7083 118
    endloop
  endfacet
  facet normal 0 0 1
    outer loop
      vertex -17.5 -30.3109 118
      vertex -16.0595 -34.4397 118
      vertex -14.7916 -31.7208 118
    endloop
  endfacet
  facet normal 0 0 1
    outer loop
      vertex -17.5 -30.3109 118
      vertex -19 -32.909 118
      vertex -16.0595 -34.4397 118
    endloop
  endfacet
  facet normal 0 0 1
    outer loop
      vertex -20.0752 -28.6703 118
      vertex -19 -32.909 118
      vertex -17.5 -30.3109 118
    endloop
  endfacet
  facet normal 0 0 1
    outer loop
      vertex -20.0752 -28.6703 118
      vertex -21.7959 -31.1278 118
      vertex -19 -32.909 118
    endloop
  endfacet
  facet normal 0 0 1
    outer loop
      vertex -22.4976 -26.8116 118
      vertex -21.7959 -31.1278 118
      vertex -20.0752 -28.6703 118
    endloop
  endfacet
  facet normal 0 0 1
    outer loop
      vertex -22.4976 -26.8116 118
      vertex -24.4259 -29.1097 118
      vertex -21.7959 -31.1278 118
    endloop
  endfacet
  facet normal 0 0 1
    outer loop
      vertex -24.7487 -24.7487 118
      vertex -24.4259 -29.1097 118
      vertex -22.4976 -26.8116 118
    endloop
  endfacet
  facet normal 0 0 1
    outer loop
      vertex -26.8701 -26.8701 118
      vertex -24.7487 -24.7487 118
      vertex -26.8116 -22.4976 118
    endloop
  endfacet
  facet normal 0 0 1
    outer loop
      vertex -24.7487 -24.7487 118
      vertex -26.8701 -26.8701 118
      vertex -24.4259 -29.1097 118
    endloop
  endfacet
  facet normal 0 0 1
    outer loop
      vertex -29.1097 -24.4259 118
      vertex -26.8116 -22.4976 118
      vertex -28.6703 -20.0752 118
    endloop
  endfacet
  facet normal 0 0 1
    outer loop
      vertex -26.8116 -22.4976 118
      vertex -29.1097 -24.4259 118
      vertex -26.8701 -26.8701 118
    endloop
  endfacet
  facet normal 0 0 1
    outer loop
      vertex -31.1278 -21.7959 118
      vertex -28.6703 -20.0752 118
      vertex -30.3109 -17.5 118
    endloop
  endfacet
  facet normal 0 0 1
    outer loop
      vertex -28.6703 -20.0752 118
      vertex -31.1278 -21.7959 118
      vertex -29.1097 -24.4259 118
    endloop
  endfacet
  facet normal 0 0 1
    outer loop
      vertex -32.909 -19 118
      vertex -30.3109 -17.5 118
      vertex -31.7208 -14.7916 118
    endloop
  endfacet
  facet normal 0 0 1
    outer loop
      vertex -34.4397 -16.0595 118
      vertex -31.7208 -14.7916 118
      vertex -32.8892 -11.9707 118
    endloop
  endfacet
  facet normal 0 0 1
    outer loop
      vertex -30.3109 -17.5 118
      vertex -32.909 -19 118
      vertex -31.1278 -21.7959 118
    endloop
  endfacet
  facet normal 0 0 1
    outer loop
      vertex -35.7083 -12.9968 118
      vertex -32.8892 -11.9707 118
      vertex -33.8074 -9.05867 118
    endloop
  endfacet
  facet normal 0 0 1
    outer loop
      vertex -31.7208 -14.7916 118
      vertex -34.4397 -16.0595 118
      vertex -32.909 -19 118
    endloop
  endfacet
  facet normal 0 0 1
    outer loop
      vertex -36.7052 -9.83512 118
      vertex -33.8074 -9.05867 118
      vertex -34.4683 -6.07769 118
    endloop
  endfacet
  facet normal 0 0 1
    outer loop
      vertex -37.4227 -6.59863 118
      vertex -34.4683 -6.07769 118
      vertex -34.8668 -3.05045 118
    endloop
  endfacet
  facet normal 0 0 1
    outer loop
      vertex -37.8554 -3.31192 118
      vertex -34.8668 -3.05045 118
      vertex -35 0 118
    endloop
  endfacet
  facet normal 0 0 1
    outer loop
      vertex -34.4683 6.07769 118
      vertex -37.4227 6.59863 118
      vertex -34.8668 3.05045 118
    endloop
  endfacet
  facet normal 0 0 1
    outer loop
      vertex -32.8892 -11.9707 118
      vertex -35.7083 -12.9968 118
      vertex -34.4397 -16.0595 118
    endloop
  endfacet
  facet normal -0 0 1
    outer loop
      vertex -37.8554 3.31192 118
      vertex -34.8668 3.05045 118
      vertex -37.4227 6.59863 118
    endloop
  endfacet
  facet normal 0 0 1
    outer loop
      vertex -33.8074 -9.05867 118
      vertex -36.7052 -9.83512 118
      vertex -35.7083 -12.9968 118
    endloop
  endfacet
  facet normal 0 0 1
    outer loop
      vertex -34.8668 3.05045 118
      vertex -37.8554 3.31192 118
      vertex -35 0 118
    endloop
  endfacet
  facet normal 0 0 1
    outer loop
      vertex -34.4683 -6.07769 118
      vertex -37.4227 -6.59863 118
      vertex -36.7052 -9.83512 118
    endloop
  endfacet
  facet normal 0 0 1
    outer loop
      vertex -38 0 118
      vertex -35 0 118
      vertex -37.8554 3.31192 118
    endloop
  endfacet
  facet normal 0 0 1
    outer loop
      vertex -34.8668 -3.05045 118
      vertex -37.8554 -3.31192 118
      vertex -37.4227 -6.59863 118
    endloop
  endfacet
  facet normal 0 0 1
    outer loop
      vertex -35 0 118
      vertex -38 0 118
      vertex -37.8554 -3.31192 118
    endloop
  endfacet
  facet normal -0.887014 0.461742 0
    outer loop
      vertex -34.4397 16.0595 0
      vertex -32.909 19 118
      vertex -32.909 19 0
    endloop
  endfacet
  facet normal -0.887014 0.461742 0
    outer loop
      vertex -32.909 19 118
      vertex -34.4397 16.0595 0
      vertex -34.4397 16.0595 118
    endloop
  endfacet
  facet normal -0.130525 -0.991445 0
    outer loop
      vertex -6.59863 -37.4227 0
      vertex -3.31192 -37.8554 118
      vertex -6.59863 -37.4227 118
    endloop
  endfacet
  facet normal -0.130525 -0.991445 -0
    outer loop
      vertex -3.31192 -37.8554 118
      vertex -6.59863 -37.4227 0
      vertex -3.31192 -37.8554 0
    endloop
  endfacet
  facet normal -0.843389 0.537303 0
    outer loop
      vertex -32.909 19 0
      vertex -31.1278 21.7959 118
      vertex -31.1278 21.7959 0
    endloop
  endfacet
  facet normal -0.843389 0.537303 0
    outer loop
      vertex -31.1278 21.7959 118
      vertex -32.909 19 0
      vertex -32.909 19 118
    endloop
  endfacet
  facet normal 0.999048 -0.0436241 0
    outer loop
      vertex -35 0 118
      vertex -34.8668 3.05045 3
      vertex -34.8668 3.05045 118
    endloop
  endfacet
  facet normal 0.999048 -0.0436241 0
    outer loop
      vertex -34.8668 3.05045 3
      vertex -35 0 118
      vertex -35 0 3
    endloop
  endfacet
  facet normal -0.0436241 -0.999048 0
    outer loop
      vertex 0 35 3
      vertex 3.05045 34.8668 118
      vertex 0 35 118
    endloop
  endfacet
  facet normal -0.0436241 -0.999048 -0
    outer loop
      vertex 3.05045 34.8668 118
      vertex 0 35 3
      vertex 3.05045 34.8668 3
    endloop
  endfacet
  facet normal -0.130512 0.991447 0
    outer loop
      vertex 6.07769 -34.4683 3
      vertex 3.05045 -34.8668 118
      vertex 6.07769 -34.4683 118
    endloop
  endfacet
  facet normal -0.130512 0.991447 0
    outer loop
      vertex 3.05045 -34.8668 118
      vertex 6.07769 -34.4683 3
      vertex 3.05045 -34.8668 3
    endloop
  endfacet
  facet normal -0.461748 0.887011 0
    outer loop
      vertex 17.5 -30.3109 3
      vertex 14.7916 -31.7208 118
      vertex 17.5 -30.3109 118
    endloop
  endfacet
  facet normal -0.461748 0.887011 0
    outer loop
      vertex 14.7916 -31.7208 118
      vertex 17.5 -30.3109 3
      vertex 14.7916 -31.7208 3
    endloop
  endfacet
  facet normal 0.608746 0.793365 -0
    outer loop
      vertex -20.0752 -28.6703 3
      vertex -22.4976 -26.8116 118
      vertex -20.0752 -28.6703 118
    endloop
  endfacet
  facet normal 0.608746 0.793365 0
    outer loop
      vertex -22.4976 -26.8116 118
      vertex -20.0752 -28.6703 3
      vertex -22.4976 -26.8116 3
    endloop
  endfacet
  facet normal 0.793365 0.608746 0
    outer loop
      vertex -26.8116 -22.4976 118
      vertex -28.6703 -20.0752 3
      vertex -28.6703 -20.0752 118
    endloop
  endfacet
  facet normal 0.793365 0.608746 0
    outer loop
      vertex -28.6703 -20.0752 3
      vertex -26.8116 -22.4976 118
      vertex -26.8116 -22.4976 3
    endloop
  endfacet
  facet normal -0.999048 0.0436241 0
    outer loop
      vertex 34.8668 -3.05045 3
      vertex 35 0 118
      vertex 35 0 3
    endloop
  endfacet
  facet normal -0.999048 0.0436241 0
    outer loop
      vertex 35 0 118
      vertex 34.8668 -3.05045 3
      vertex 34.8668 -3.05045 118
    endloop
  endfacet
  facet normal 0.382668 -0.923886 0
    outer loop
      vertex -14.7916 31.7208 3
      vertex -11.9707 32.8892 118
      vertex -14.7916 31.7208 118
    endloop
  endfacet
  facet normal 0.382668 -0.923886 0
    outer loop
      vertex -11.9707 32.8892 118
      vertex -14.7916 31.7208 3
      vertex -11.9707 32.8892 3
    endloop
  endfacet
  facet normal -0.21645 -0.976294 0
    outer loop
      vertex 6.07769 34.4683 3
      vertex 9.05867 33.8074 118
      vertex 6.07769 34.4683 118
    endloop
  endfacet
  facet normal -0.21645 -0.976294 -0
    outer loop
      vertex 9.05867 33.8074 118
      vertex 6.07769 34.4683 3
      vertex 9.05867 33.8074 3
    endloop
  endfacet
  facet normal 0.843389 0.537303 0
    outer loop
      vertex -28.6703 -20.0752 118
      vertex -30.3109 -17.5 3
      vertex -30.3109 -17.5 118
    endloop
  endfacet
  facet normal 0.843389 0.537303 0
    outer loop
      vertex -30.3109 -17.5 3
      vertex -28.6703 -20.0752 118
      vertex -28.6703 -20.0752 3
    endloop
  endfacet
  facet normal -0.953713 -0.300718 0
    outer loop
      vertex 33.8074 9.05867 3
      vertex 32.8892 11.9707 118
      vertex 32.8892 11.9707 3
    endloop
  endfacet
  facet normal -0.953713 -0.300718 0
    outer loop
      vertex 32.8892 11.9707 118
      vertex 33.8074 9.05867 3
      vertex 33.8074 9.05867 118
    endloop
  endfacet
  facet normal 0.300718 0.953713 -0
    outer loop
      vertex -9.05867 -33.8074 3
      vertex -11.9707 -32.8892 118
      vertex -9.05867 -33.8074 118
    endloop
  endfacet
  facet normal 0.300718 0.953713 0
    outer loop
      vertex -11.9707 -32.8892 118
      vertex -9.05867 -33.8074 3
      vertex -11.9707 -32.8892 3
    endloop
  endfacet
  facet normal 0.999048 0.0436241 0
    outer loop
      vertex -34.8668 -3.05045 118
      vertex -35 0 3
      vertex -35 0 118
    endloop
  endfacet
  facet normal 0.999048 0.0436241 0
    outer loop
      vertex -35 0 3
      vertex -34.8668 -3.05045 118
      vertex -34.8668 -3.05045 3
    endloop
  endfacet
  facet normal -0.21645 0.976294 0
    outer loop
      vertex 9.05867 -33.8074 3
      vertex 6.07769 -34.4683 118
      vertex 9.05867 -33.8074 118
    endloop
  endfacet
  facet normal -0.21645 0.976294 0
    outer loop
      vertex 6.07769 -34.4683 118
      vertex 9.05867 -33.8074 3
      vertex 6.07769 -34.4683 3
    endloop
  endfacet
  facet normal -0.976294 0.21645 0
    outer loop
      vertex 33.8074 -9.05867 3
      vertex 34.4683 -6.07769 118
      vertex 34.4683 -6.07769 3
    endloop
  endfacet
  facet normal -0.976294 0.21645 0
    outer loop
      vertex 34.4683 -6.07769 118
      vertex 33.8074 -9.05867 3
      vertex 33.8074 -9.05867 118
    endloop
  endfacet
  facet normal 0.21645 0.976294 -0
    outer loop
      vertex -6.07769 -34.4683 3
      vertex -9.05867 -33.8074 118
      vertex -6.07769 -34.4683 118
    endloop
  endfacet
  facet normal 0.21645 0.976294 0
    outer loop
      vertex -9.05867 -33.8074 118
      vertex -6.07769 -34.4683 3
      vertex -9.05867 -33.8074 3
    endloop
  endfacet
  facet normal -0.608746 0.793365 0
    outer loop
      vertex 22.4976 -26.8116 3
      vertex 20.0752 -28.6703 118
      vertex 22.4976 -26.8116 118
    endloop
  endfacet
  facet normal -0.608746 0.793365 0
    outer loop
      vertex 20.0752 -28.6703 118
      vertex 22.4976 -26.8116 3
      vertex 20.0752 -28.6703 3
    endloop
  endfacet
  facet normal 0.887011 -0.461748 0
    outer loop
      vertex -31.7208 14.7916 118
      vertex -30.3109 17.5 3
      vertex -30.3109 17.5 118
    endloop
  endfacet
  facet normal 0.887011 -0.461748 0
    outer loop
      vertex -30.3109 17.5 3
      vertex -31.7208 14.7916 118
      vertex -31.7208 14.7916 3
    endloop
  endfacet
  facet normal -0.923886 0.382668 0
    outer loop
      vertex 31.7208 -14.7916 3
      vertex 32.8892 -11.9707 118
      vertex 32.8892 -11.9707 3
    endloop
  endfacet
  facet normal -0.923886 0.382668 0
    outer loop
      vertex 32.8892 -11.9707 118
      vertex 31.7208 -14.7916 3
      vertex 31.7208 -14.7916 118
    endloop
  endfacet
  facet normal -0.976297 -0.216433 0
    outer loop
      vertex 34.2984 6.84384 3
      vertex 33.8074 9.05867 118
      vertex 33.8074 9.05867 3
    endloop
  endfacet
  facet normal -0.976297 -0.216433 0
    outer loop
      vertex 33.8074 9.05867 118
      vertex 34.2984 6.84384 3
      vertex 34.2984 6.84384 118
    endloop
  endfacet
  facet normal 0.537303 -0.843389 0
    outer loop
      vertex -20.0752 28.6703 3
      vertex -17.5 30.3109 118
      vertex -20.0752 28.6703 118
    endloop
  endfacet
  facet normal 0.537303 -0.843389 0
    outer loop
      vertex -17.5 30.3109 118
      vertex -20.0752 28.6703 3
      vertex -17.5 30.3109 3
    endloop
  endfacet
  facet normal 0.953713 0.300718 0
    outer loop
      vertex -32.8892 -11.9707 118
      vertex -33.8074 -9.05867 3
      vertex -33.8074 -9.05867 118
    endloop
  endfacet
  facet normal 0.953713 0.300718 0
    outer loop
      vertex -33.8074 -9.05867 3
      vertex -32.8892 -11.9707 118
      vertex -32.8892 -11.9707 3
    endloop
  endfacet
  facet normal 0.887011 0.461748 0
    outer loop
      vertex -30.3109 -17.5 118
      vertex -31.7208 -14.7916 3
      vertex -31.7208 -14.7916 118
    endloop
  endfacet
  facet normal 0.887011 0.461748 0
    outer loop
      vertex -31.7208 -14.7916 3
      vertex -30.3109 -17.5 118
      vertex -30.3109 -17.5 3
    endloop
  endfacet
  facet normal -0.675616 0.737253 0
    outer loop
      vertex 24.7487 -24.7487 3
      vertex 22.4976 -26.8116 118
      vertex 24.7487 -24.7487 118
    endloop
  endfacet
  facet normal -0.675616 0.737253 0
    outer loop
      vertex 22.4976 -26.8116 118
      vertex 24.7487 -24.7487 3
      vertex 22.4976 -26.8116 3
    endloop
  endfacet
  facet normal 0.675616 -0.737253 0
    outer loop
      vertex -24.7487 24.7487 3
      vertex -22.4976 26.8116 118
      vertex -24.7487 24.7487 118
    endloop
  endfacet
  facet normal 0.675616 -0.737253 0
    outer loop
      vertex -22.4976 26.8116 118
      vertex -24.7487 24.7487 3
      vertex -22.4976 26.8116 3
    endloop
  endfacet
  facet normal 0.675616 0.737253 -0
    outer loop
      vertex -22.4976 -26.8116 3
      vertex -24.7487 -24.7487 118
      vertex -22.4976 -26.8116 118
    endloop
  endfacet
  facet normal 0.675616 0.737253 0
    outer loop
      vertex -24.7487 -24.7487 118
      vertex -22.4976 -26.8116 3
      vertex -24.7487 -24.7487 3
    endloop
  endfacet
  facet normal -0.737253 -0.675616 0
    outer loop
      vertex 26.8116 22.4976 3
      vertex 24.7487 24.7487 118
      vertex 24.7487 24.7487 3
    endloop
  endfacet
  facet normal -0.737253 -0.675616 0
    outer loop
      vertex 24.7487 24.7487 118
      vertex 26.8116 22.4976 3
      vertex 26.8116 22.4976 118
    endloop
  endfacet
  facet normal -0.793365 0.608746 0
    outer loop
      vertex 26.8116 -22.4976 3
      vertex 28.6703 -20.0752 118
      vertex 28.6703 -20.0752 3
    endloop
  endfacet
  facet normal -0.793365 0.608746 0
    outer loop
      vertex 28.6703 -20.0752 118
      vertex 26.8116 -22.4976 3
      vertex 26.8116 -22.4976 118
    endloop
  endfacet
  facet normal -0.130512 -0.991447 0
    outer loop
      vertex 3.05045 34.8668 3
      vertex 6.07769 34.4683 118
      vertex 3.05045 34.8668 118
    endloop
  endfacet
  facet normal -0.130512 -0.991447 -0
    outer loop
      vertex 6.07769 34.4683 118
      vertex 3.05045 34.8668 3
      vertex 6.07769 34.4683 3
    endloop
  endfacet
  facet normal -0.991447 0.130512 0
    outer loop
      vertex 34.4683 -6.07769 3
      vertex 34.8668 -3.05045 118
      vertex 34.8668 -3.05045 3
    endloop
  endfacet
  facet normal -0.991447 0.130512 0
    outer loop
      vertex 34.8668 -3.05045 118
      vertex 34.4683 -6.07769 3
      vertex 34.4683 -6.07769 118
    endloop
  endfacet
  facet normal 0.976294 0.21645 0
    outer loop
      vertex -33.8074 -9.05867 118
      vertex -34.4683 -6.07769 3
      vertex -34.4683 -6.07769 118
    endloop
  endfacet
  facet normal 0.976294 0.21645 0
    outer loop
      vertex -34.4683 -6.07769 3
      vertex -33.8074 -9.05867 118
      vertex -33.8074 -9.05867 3
    endloop
  endfacet
  facet normal -0.382668 -0.923886 0
    outer loop
      vertex 11.9707 32.8892 3
      vertex 14.7916 31.7208 118
      vertex 11.9707 32.8892 118
    endloop
  endfacet
  facet normal -0.382668 -0.923886 -0
    outer loop
      vertex 14.7916 31.7208 118
      vertex 11.9707 32.8892 3
      vertex 14.7916 31.7208 3
    endloop
  endfacet
  facet normal -0.675616 -0.737253 0
    outer loop
      vertex 22.4976 26.8116 3
      vertex 24.7487 24.7487 118
      vertex 22.4976 26.8116 118
    endloop
  endfacet
  facet normal -0.675616 -0.737253 -0
    outer loop
      vertex 24.7487 24.7487 118
      vertex 22.4976 26.8116 3
      vertex 24.7487 24.7487 3
    endloop
  endfacet
  facet normal 0.0436241 0.999048 -0
    outer loop
      vertex 0 -35 3
      vertex -3.05045 -34.8668 118
      vertex 0 -35 118
    endloop
  endfacet
  facet normal 0.0436241 0.999048 0
    outer loop
      vertex -3.05045 -34.8668 118
      vertex 0 -35 3
      vertex -3.05045 -34.8668 3
    endloop
  endfacet
  facet normal -0.887011 0.461748 0
    outer loop
      vertex 30.3109 -17.5 3
      vertex 31.7208 -14.7916 118
      vertex 31.7208 -14.7916 3
    endloop
  endfacet
  facet normal -0.887011 0.461748 0
    outer loop
      vertex 31.7208 -14.7916 118
      vertex 30.3109 -17.5 3
      vertex 30.3109 -17.5 118
    endloop
  endfacet
  facet normal 0.991447 -0.130512 0
    outer loop
      vertex -34.8668 3.05045 118
      vertex -34.4683 6.07769 3
      vertex -34.4683 6.07769 118
    endloop
  endfacet
  facet normal 0.991447 -0.130512 0
    outer loop
      vertex -34.4683 6.07769 3
      vertex -34.8668 3.05045 118
      vertex -34.8668 3.05045 3
    endloop
  endfacet
  facet normal -0.923886 -0.382668 0
    outer loop
      vertex 32.8892 11.9707 3
      vertex 31.7208 14.7916 118
      vertex 31.7208 14.7916 3
    endloop
  endfacet
  facet normal -0.923886 -0.382668 0
    outer loop
      vertex 31.7208 14.7916 118
      vertex 32.8892 11.9707 3
      vertex 32.8892 11.9707 118
    endloop
  endfacet
  facet normal 0.537303 0.843389 -0
    outer loop
      vertex -17.5 -30.3109 3
      vertex -20.0752 -28.6703 118
      vertex -17.5 -30.3109 118
    endloop
  endfacet
  facet normal 0.537303 0.843389 0
    outer loop
      vertex -20.0752 -28.6703 118
      vertex -17.5 -30.3109 3
      vertex -20.0752 -28.6703 3
    endloop
  endfacet
  facet normal -0.0436241 0.999048 0
    outer loop
      vertex 3.05045 -34.8668 3
      vertex 0 -35 118
      vertex 3.05045 -34.8668 118
    endloop
  endfacet
  facet normal -0.0436241 0.999048 0
    outer loop
      vertex 0 -35 118
      vertex 3.05045 -34.8668 3
      vertex 0 -35 3
    endloop
  endfacet
  facet normal 0.21645 -0.976294 0
    outer loop
      vertex -9.05867 33.8074 3
      vertex -6.07769 34.4683 118
      vertex -9.05867 33.8074 118
    endloop
  endfacet
  facet normal 0.21645 -0.976294 0
    outer loop
      vertex -6.07769 34.4683 118
      vertex -9.05867 33.8074 3
      vertex -6.07769 34.4683 3
    endloop
  endfacet
  facet normal 0.737253 0.675616 0
    outer loop
      vertex -24.7487 -24.7487 118
      vertex -26.8116 -22.4976 3
      vertex -26.8116 -22.4976 118
    endloop
  endfacet
  facet normal 0.737253 0.675616 0
    outer loop
      vertex -26.8116 -22.4976 3
      vertex -24.7487 -24.7487 118
      vertex -24.7487 -24.7487 3
    endloop
  endfacet
  facet normal -0.887011 -0.461748 0
    outer loop
      vertex 31.7208 14.7916 3
      vertex 30.3109 17.5 118
      vertex 30.3109 17.5 3
    endloop
  endfacet
  facet normal -0.887011 -0.461748 0
    outer loop
      vertex 30.3109 17.5 118
      vertex 31.7208 14.7916 3
      vertex 31.7208 14.7916 118
    endloop
  endfacet
  facet normal -0.953713 0.300718 0
    outer loop
      vertex 32.8892 -11.9707 3
      vertex 33.8074 -9.05867 118
      vertex 33.8074 -9.05867 3
    endloop
  endfacet
  facet normal -0.953713 0.300718 0
    outer loop
      vertex 33.8074 -9.05867 118
      vertex 32.8892 -11.9707 3
      vertex 32.8892 -11.9707 118
    endloop
  endfacet
  facet normal 0.991447 0.130512 0
    outer loop
      vertex -34.4683 -6.07769 118
      vertex -34.8668 -3.05045 3
      vertex -34.8668 -3.05045 118
    endloop
  endfacet
  facet normal 0.991447 0.130512 0
    outer loop
      vertex -34.8668 -3.05045 3
      vertex -34.4683 -6.07769 118
      vertex -34.4683 -6.07769 3
    endloop
  endfacet
  facet normal -0.793365 -0.608746 0
    outer loop
      vertex 28.6703 20.0752 3
      vertex 26.8116 22.4976 118
      vertex 26.8116 22.4976 3
    endloop
  endfacet
  facet normal -0.793365 -0.608746 0
    outer loop
      vertex 26.8116 22.4976 118
      vertex 28.6703 20.0752 3
      vertex 28.6703 20.0752 118
    endloop
  endfacet
  facet normal -0.737253 0.675616 0
    outer loop
      vertex 24.7487 -24.7487 3
      vertex 26.8116 -22.4976 118
      vertex 26.8116 -22.4976 3
    endloop
  endfacet
  facet normal -0.737253 0.675616 0
    outer loop
      vertex 26.8116 -22.4976 118
      vertex 24.7487 -24.7487 3
      vertex 24.7487 -24.7487 118
    endloop
  endfacet
  facet normal 0.461748 0.887011 -0
    outer loop
      vertex -14.7916 -31.7208 3
      vertex -17.5 -30.3109 118
      vertex -14.7916 -31.7208 118
    endloop
  endfacet
  facet normal 0.461748 0.887011 0
    outer loop
      vertex -17.5 -30.3109 118
      vertex -14.7916 -31.7208 3
      vertex -17.5 -30.3109 3
    endloop
  endfacet
  facet normal -0.843389 -0.537303 0
    outer loop
      vertex 30.3109 17.5 3
      vertex 28.6703 20.0752 118
      vertex 28.6703 20.0752 3
    endloop
  endfacet
  facet normal -0.843389 -0.537303 0
    outer loop
      vertex 28.6703 20.0752 118
      vertex 30.3109 17.5 3
      vertex 30.3109 17.5 118
    endloop
  endfacet
  facet normal -0.461748 -0.887011 0
    outer loop
      vertex 14.7916 31.7208 3
      vertex 17.5 30.3109 118
      vertex 14.7916 31.7208 118
    endloop
  endfacet
  facet normal -0.461748 -0.887011 -0
    outer loop
      vertex 17.5 30.3109 118
      vertex 14.7916 31.7208 3
      vertex 17.5 30.3109 3
    endloop
  endfacet
  facet normal 0.130512 -0.991447 0
    outer loop
      vertex -6.07769 34.4683 3
      vertex -3.05045 34.8668 118
      vertex -6.07769 34.4683 118
    endloop
  endfacet
  facet normal 0.130512 -0.991447 0
    outer loop
      vertex -3.05045 34.8668 118
      vertex -6.07769 34.4683 3
      vertex -3.05045 34.8668 3
    endloop
  endfacet
  facet normal -0.537303 -0.843389 0
    outer loop
      vertex 17.5 30.3109 3
      vertex 20.0752 28.6703 118
      vertex 17.5 30.3109 118
    endloop
  endfacet
  facet normal -0.537303 -0.843389 -0
    outer loop
      vertex 20.0752 28.6703 118
      vertex 17.5 30.3109 3
      vertex 20.0752 28.6703 3
    endloop
  endfacet
  facet normal 0.300718 -0.953713 0
    outer loop
      vertex -11.9707 32.8892 3
      vertex -9.05867 33.8074 118
      vertex -11.9707 32.8892 118
    endloop
  endfacet
  facet normal 0.300718 -0.953713 0
    outer loop
      vertex -9.05867 33.8074 118
      vertex -11.9707 32.8892 3
      vertex -9.05867 33.8074 3
    endloop
  endfacet
  facet normal 0.737253 -0.675616 0
    outer loop
      vertex -26.8116 22.4976 118
      vertex -24.7487 24.7487 3
      vertex -24.7487 24.7487 118
    endloop
  endfacet
  facet normal 0.737253 -0.675616 0
    outer loop
      vertex -24.7487 24.7487 3
      vertex -26.8116 22.4976 118
      vertex -26.8116 22.4976 3
    endloop
  endfacet
  facet normal 0.0436241 -0.999048 0
    outer loop
      vertex -3.05045 34.8668 3
      vertex 0 35 118
      vertex -3.05045 34.8668 118
    endloop
  endfacet
  facet normal 0.0436241 -0.999048 0
    outer loop
      vertex 0 35 118
      vertex -3.05045 34.8668 3
      vertex 0 35 3
    endloop
  endfacet
  facet normal 0.976294 -0.21645 0
    outer loop
      vertex -34.4683 6.07769 118
      vertex -33.8074 9.05867 3
      vertex -33.8074 9.05867 118
    endloop
  endfacet
  facet normal 0.976294 -0.21645 0
    outer loop
      vertex -33.8074 9.05867 3
      vertex -34.4683 6.07769 118
      vertex -34.4683 6.07769 3
    endloop
  endfacet
  facet normal -0.300718 -0.953713 0
    outer loop
      vertex 9.05867 33.8074 3
      vertex 11.9707 32.8892 118
      vertex 9.05867 33.8074 118
    endloop
  endfacet
  facet normal -0.300718 -0.953713 -0
    outer loop
      vertex 11.9707 32.8892 118
      vertex 9.05867 33.8074 3
      vertex 11.9707 32.8892 3
    endloop
  endfacet
  facet normal -0.843389 0.537303 0
    outer loop
      vertex 28.6703 -20.0752 3
      vertex 30.3109 -17.5 118
      vertex 30.3109 -17.5 3
    endloop
  endfacet
  facet normal -0.843389 0.537303 0
    outer loop
      vertex 30.3109 -17.5 118
      vertex 28.6703 -20.0752 3
      vertex 28.6703 -20.0752 118
    endloop
  endfacet
  facet normal 0.923886 -0.382668 0
    outer loop
      vertex -32.8892 11.9707 118
      vertex -31.7208 14.7916 3
      vertex -31.7208 14.7916 118
    endloop
  endfacet
  facet normal 0.923886 -0.382668 0
    outer loop
      vertex -31.7208 14.7916 3
      vertex -32.8892 11.9707 118
      vertex -32.8892 11.9707 3
    endloop
  endfacet
  facet normal 0.461748 -0.887011 0
    outer loop
      vertex -17.5 30.3109 3
      vertex -14.7916 31.7208 118
      vertex -17.5 30.3109 118
    endloop
  endfacet
  facet normal 0.461748 -0.887011 0
    outer loop
      vertex -14.7916 31.7208 118
      vertex -17.5 30.3109 3
      vertex -14.7916 31.7208 3
    endloop
  endfacet
  facet normal -0.300718 0.953713 0
    outer loop
      vertex 11.9707 -32.8892 3
      vertex 9.05867 -33.8074 118
      vertex 11.9707 -32.8892 118
    endloop
  endfacet
  facet normal -0.300718 0.953713 0
    outer loop
      vertex 9.05867 -33.8074 118
      vertex 11.9707 -32.8892 3
      vertex 9.05867 -33.8074 3
    endloop
  endfacet
  facet normal 0.608746 -0.793365 0
    outer loop
      vertex -22.4976 26.8116 3
      vertex -20.0752 28.6703 118
      vertex -22.4976 26.8116 118
    endloop
  endfacet
  facet normal 0.608746 -0.793365 0
    outer loop
      vertex -20.0752 28.6703 118
      vertex -22.4976 26.8116 3
      vertex -20.0752 28.6703 3
    endloop
  endfacet
  facet normal -0.537303 0.843389 0
    outer loop
      vertex 20.0752 -28.6703 3
      vertex 17.5 -30.3109 118
      vertex 20.0752 -28.6703 118
    endloop
  endfacet
  facet normal -0.537303 0.843389 0
    outer loop
      vertex 17.5 -30.3109 118
      vertex 20.0752 -28.6703 3
      vertex 17.5 -30.3109 3
    endloop
  endfacet
  facet normal -0.382668 0.923886 0
    outer loop
      vertex 14.7916 -31.7208 3
      vertex 11.9707 -32.8892 118
      vertex 14.7916 -31.7208 118
    endloop
  endfacet
  facet normal -0.382668 0.923886 0
    outer loop
      vertex 11.9707 -32.8892 118
      vertex 14.7916 -31.7208 3
      vertex 11.9707 -32.8892 3
    endloop
  endfacet
  facet normal -0.608746 -0.793365 0
    outer loop
      vertex 20.0752 28.6703 3
      vertex 22.4976 26.8116 118
      vertex 20.0752 28.6703 118
    endloop
  endfacet
  facet normal -0.608746 -0.793365 -0
    outer loop
      vertex 22.4976 26.8116 118
      vertex 20.0752 28.6703 3
      vertex 22.4976 26.8116 3
    endloop
  endfacet
  facet normal 0.793365 -0.608746 0
    outer loop
      vertex -28.6703 20.0752 118
      vertex -26.8116 22.4976 3
      vertex -26.8116 22.4976 118
    endloop
  endfacet
  facet normal 0.793365 -0.608746 0
    outer loop
      vertex -26.8116 22.4976 3
      vertex -28.6703 20.0752 118
      vertex -28.6703 20.0752 3
    endloop
  endfacet
  facet normal 0.130512 0.991447 -0
    outer loop
      vertex -3.05045 -34.8668 3
      vertex -6.07769 -34.4683 118
      vertex -3.05045 -34.8668 118
    endloop
  endfacet
  facet normal 0.130512 0.991447 0
    outer loop
      vertex -6.07769 -34.4683 118
      vertex -3.05045 -34.8668 3
      vertex -6.07769 -34.4683 3
    endloop
  endfacet
  facet normal 0.843389 -0.537303 0
    outer loop
      vertex -30.3109 17.5 118
      vertex -28.6703 20.0752 3
      vertex -28.6703 20.0752 118
    endloop
  endfacet
  facet normal 0.843389 -0.537303 0
    outer loop
      vertex -28.6703 20.0752 3
      vertex -30.3109 17.5 118
      vertex -30.3109 17.5 3
    endloop
  endfacet
  facet normal 0 0 1
    outer loop
      vertex 34.2984 6.84384 3
      vertex 36.7052 9.83512 3
      vertex 36.0934 11.7755 3
    endloop
  endfacet
  facet normal 0 0 1
    outer loop
      vertex 36.7052 9.83512 3
      vertex 34.2984 6.84384 3
      vertex 37.4147 6.63447 3
    endloop
  endfacet
  facet normal 0 0 1
    outer loop
      vertex 35 0 3
      vertex 34.4683 -6.07769 3
      vertex 34.8668 -3.05045 3
    endloop
  endfacet
  facet normal 0 0 1
    outer loop
      vertex 37.4147 6.63447 3
      vertex 34.2984 6.84384 3
      vertex 35 0 3
    endloop
  endfacet
  facet normal 0 0 1
    outer loop
      vertex 34.2984 6.84384 3
      vertex 34.4683 -6.07769 3
      vertex 35 0 3
    endloop
  endfacet
  facet normal 0 0 1
    outer loop
      vertex 32.8892 11.9707 3
      vertex 34.2984 6.84384 3
      vertex 33.8074 9.05867 3
    endloop
  endfacet
  facet normal 0 0 1
    outer loop
      vertex 34.2984 6.84384 3
      vertex 33.8074 -9.05867 3
      vertex 34.4683 -6.07769 3
    endloop
  endfacet
  facet normal 0 0 1
    outer loop
      vertex 34.2984 6.84384 3
      vertex 32.8892 11.9707 3
      vertex 33.8074 -9.05867 3
    endloop
  endfacet
  facet normal 0 0 1
    outer loop
      vertex 32.8892 11.9707 3
      vertex 32.8892 -11.9707 3
      vertex 33.8074 -9.05867 3
    endloop
  endfacet
  facet normal 0 0 1
    outer loop
      vertex 31.7208 14.7916 3
      vertex 32.8892 -11.9707 3
      vertex 32.8892 11.9707 3
    endloop
  endfacet
  facet normal 0 0 1
    outer loop
      vertex 31.7208 14.7916 3
      vertex 31.7208 -14.7916 3
      vertex 32.8892 -11.9707 3
    endloop
  endfacet
  facet normal 0 0 1
    outer loop
      vertex 30.3109 17.5 3
      vertex 31.7208 -14.7916 3
      vertex 31.7208 14.7916 3
    endloop
  endfacet
  facet normal 0 0 1
    outer loop
      vertex 30.3109 17.5 3
      vertex 30.3109 -17.5 3
      vertex 31.7208 -14.7916 3
    endloop
  endfacet
  facet normal 0 0 1
    outer loop
      vertex 28.6703 20.0752 3
      vertex 30.3109 -17.5 3
      vertex 30.3109 17.5 3
    endloop
  endfacet
  facet normal 0 0 1
    outer loop
      vertex 28.6703 20.0752 3
      vertex 28.6703 -20.0752 3
      vertex 30.3109 -17.5 3
    endloop
  endfacet
  facet normal 0 0 1
    outer loop
      vertex 26.8116 22.4976 3
      vertex 28.6703 -20.0752 3
      vertex 28.6703 20.0752 3
    endloop
  endfacet
  facet normal 0 0 1
    outer loop
      vertex 26.8116 22.4976 3
      vertex 26.8116 -22.4976 3
      vertex 28.6703 -20.0752 3
    endloop
  endfacet
  facet normal 0 0 1
    outer loop
      vertex 24.7487 24.7487 3
      vertex 26.8116 -22.4976 3
      vertex 26.8116 22.4976 3
    endloop
  endfacet
  facet normal 0 0 1
    outer loop
      vertex 24.7487 24.7487 3
      vertex 24.7487 -24.7487 3
      vertex 26.8116 -22.4976 3
    endloop
  endfacet
  facet normal 0 0 1
    outer loop
      vertex 22.4976 26.8116 3
      vertex 24.7487 -24.7487 3
      vertex 24.7487 24.7487 3
    endloop
  endfacet
  facet normal 0 0 1
    outer loop
      vertex 22.4976 26.8116 3
      vertex 22.4976 -26.8116 3
      vertex 24.7487 -24.7487 3
    endloop
  endfacet
  facet normal 0 0 1
    outer loop
      vertex 20.0752 28.6703 3
      vertex 22.4976 -26.8116 3
      vertex 22.4976 26.8116 3
    endloop
  endfacet
  facet normal 0 0 1
    outer loop
      vertex 20.0752 28.6703 3
      vertex 20.0752 -28.6703 3
      vertex 22.4976 -26.8116 3
    endloop
  endfacet
  facet normal 0 0 1
    outer loop
      vertex 17.5 30.3109 3
      vertex 20.0752 -28.6703 3
      vertex 20.0752 28.6703 3
    endloop
  endfacet
  facet normal 0 0 1
    outer loop
      vertex 17.5 30.3109 3
      vertex 17.5 -30.3109 3
      vertex 20.0752 -28.6703 3
    endloop
  endfacet
  facet normal 0 0 1
    outer loop
      vertex 14.7916 31.7208 3
      vertex 17.5 -30.3109 3
      vertex 17.5 30.3109 3
    endloop
  endfacet
  facet normal 0 0 1
    outer loop
      vertex 14.7916 31.7208 3
      vertex 14.7916 -31.7208 3
      vertex 17.5 -30.3109 3
    endloop
  endfacet
  facet normal 0 0 1
    outer loop
      vertex 11.9707 32.8892 3
      vertex 14.7916 -31.7208 3
      vertex 14.7916 31.7208 3
    endloop
  endfacet
  facet normal 0 0 1
    outer loop
      vertex 11.9707 32.8892 3
      vertex 11.9707 -32.8892 3
      vertex 14.7916 -31.7208 3
    endloop
  endfacet
  facet normal 0 0 1
    outer loop
      vertex 9.05867 33.8074 3
      vertex 11.9707 -32.8892 3
      vertex 11.9707 32.8892 3
    endloop
  endfacet
  facet normal 0 0 1
    outer loop
      vertex 9.05867 33.8074 3
      vertex 9.05867 -33.8074 3
      vertex 11.9707 -32.8892 3
    endloop
  endfacet
  facet normal 0 0 1
    outer loop
      vertex 6.07769 34.4683 3
      vertex 9.05867 -33.8074 3
      vertex 9.05867 33.8074 3
    endloop
  endfacet
  facet normal 0 0 1
    outer loop
      vertex 6.07769 34.4683 3
      vertex 6.07769 -34.4683 3
      vertex 9.05867 -33.8074 3
    endloop
  endfacet
  facet normal 0 0 1
    outer loop
      vertex 3.05045 34.8668 3
      vertex 6.07769 -34.4683 3
      vertex 6.07769 34.4683 3
    endloop
  endfacet
  facet normal 0 0 1
    outer loop
      vertex 3.05045 34.8668 3
      vertex 3.05045 -34.8668 3
      vertex 6.07769 -34.4683 3
    endloop
  endfacet
  facet normal 0 0 1
    outer loop
      vertex 0 35 3
      vertex 3.05045 -34.8668 3
      vertex 3.05045 34.8668 3
    endloop
  endfacet
  facet normal 0 0 1
    outer loop
      vertex 0 35 3
      vertex 0 -35 3
      vertex 3.05045 -34.8668 3
    endloop
  endfacet
  facet normal -0 0 1
    outer loop
      vertex -3.05045 34.8668 3
      vertex 0 -35 3
      vertex 0 35 3
    endloop
  endfacet
  facet normal 0 0 1
    outer loop
      vertex -3.05045 34.8668 3
      vertex -3.05045 -34.8668 3
      vertex 0 -35 3
    endloop
  endfacet
  facet normal -0 0 1
    outer loop
      vertex -6.07769 34.4683 3
      vertex -3.05045 -34.8668 3
      vertex -3.05045 34.8668 3
    endloop
  endfacet
  facet normal 0 0 1
    outer loop
      vertex -6.07769 34.4683 3
      vertex -6.07769 -34.4683 3
      vertex -3.05045 -34.8668 3
    endloop
  endfacet
  facet normal -0 0 1
    outer loop
      vertex -9.05867 33.8074 3
      vertex -6.07769 -34.4683 3
      vertex -6.07769 34.4683 3
    endloop
  endfacet
  facet normal 0 0 1
    outer loop
      vertex -9.05867 33.8074 3
      vertex -9.05867 -33.8074 3
      vertex -6.07769 -34.4683 3
    endloop
  endfacet
  facet normal -0 0 1
    outer loop
      vertex -11.9707 32.8892 3
      vertex -9.05867 -33.8074 3
      vertex -9.05867 33.8074 3
    endloop
  endfacet
  facet normal 0 0 1
    outer loop
      vertex -11.9707 32.8892 3
      vertex -11.9707 -32.8892 3
      vertex -9.05867 -33.8074 3
    endloop
  endfacet
  facet normal -0 0 1
    outer loop
      vertex -14.7916 31.7208 3
      vertex -11.9707 -32.8892 3
      vertex -11.9707 32.8892 3
    endloop
  endfacet
  facet normal 0 0 1
    outer loop
      vertex -14.7916 31.7208 3
      vertex -14.7916 -31.7208 3
      vertex -11.9707 -32.8892 3
    endloop
  endfacet
  facet normal -0 0 1
    outer loop
      vertex -17.5 30.3109 3
      vertex -14.7916 -31.7208 3
      vertex -14.7916 31.7208 3
    endloop
  endfacet
  facet normal 0 0 1
    outer loop
      vertex -17.5 30.3109 3
      vertex -17.5 -30.3109 3
      vertex -14.7916 -31.7208 3
    endloop
  endfacet
  facet normal -0 0 1
    outer loop
      vertex -20.0752 28.6703 3
      vertex -17.5 -30.3109 3
      vertex -17.5 30.3109 3
    endloop
  endfacet
  facet normal 0 0 1
    outer loop
      vertex -20.0752 28.6703 3
      vertex -20.0752 -28.6703 3
      vertex -17.5 -30.3109 3
    endloop
  endfacet
  facet normal -0 0 1
    outer loop
      vertex -22.4976 26.8116 3
      vertex -20.0752 -28.6703 3
      vertex -20.0752 28.6703 3
    endloop
  endfacet
  facet normal 0 0 1
    outer loop
      vertex -22.4976 26.8116 3
      vertex -22.4976 -26.8116 3
      vertex -20.0752 -28.6703 3
    endloop
  endfacet
  facet normal -0 0 1
    outer loop
      vertex -24.7487 24.7487 3
      vertex -22.4976 -26.8116 3
      vertex -22.4976 26.8116 3
    endloop
  endfacet
  facet normal 0 0 1
    outer loop
      vertex -24.7487 24.7487 3
      vertex -24.7487 -24.7487 3
      vertex -22.4976 -26.8116 3
    endloop
  endfacet
  facet normal -0 0 1
    outer loop
      vertex -26.8116 22.4976 3
      vertex -24.7487 -24.7487 3
      vertex -24.7487 24.7487 3
    endloop
  endfacet
  facet normal 0 0 1
    outer loop
      vertex -26.8116 22.4976 3
      vertex -26.8116 -22.4976 3
      vertex -24.7487 -24.7487 3
    endloop
  endfacet
  facet normal -0 0 1
    outer loop
      vertex -28.6703 20.0752 3
      vertex -26.8116 -22.4976 3
      vertex -26.8116 22.4976 3
    endloop
  endfacet
  facet normal 0 0 1
    outer loop
      vertex -28.6703 20.0752 3
      vertex -28.6703 -20.0752 3
      vertex -26.8116 -22.4976 3
    endloop
  endfacet
  facet normal -0 0 1
    outer loop
      vertex -30.3109 17.5 3
      vertex -28.6703 -20.0752 3
      vertex -28.6703 20.0752 3
    endloop
  endfacet
  facet normal 0 0 1
    outer loop
      vertex -30.3109 17.5 3
      vertex -30.3109 -17.5 3
      vertex -28.6703 -20.0752 3
    endloop
  endfacet
  facet normal -0 0 1
    outer loop
      vertex -31.7208 14.7916 3
      vertex -30.3109 -17.5 3
      vertex -30.3109 17.5 3
    endloop
  endfacet
  facet normal 0 0 1
    outer loop
      vertex -31.7208 14.7916 3
      vertex -31.7208 -14.7916 3
      vertex -30.3109 -17.5 3
    endloop
  endfacet
  facet normal -0 0 1
    outer loop
      vertex -32.8892 11.9707 3
      vertex -31.7208 -14.7916 3
      vertex -31.7208 14.7916 3
    endloop
  endfacet
  facet normal 0 0 1
    outer loop
      vertex -32.8892 11.9707 3
      vertex -32.8892 -11.9707 3
      vertex -31.7208 -14.7916 3
    endloop
  endfacet
  facet normal -0 0 1
    outer loop
      vertex -33.8074 9.05867 3
      vertex -32.8892 -11.9707 3
      vertex -32.8892 11.9707 3
    endloop
  endfacet
  facet normal 0 0 1
    outer loop
      vertex -33.8074 9.05867 3
      vertex -33.8074 -9.05867 3
      vertex -32.8892 -11.9707 3
    endloop
  endfacet
  facet normal -0 0 1
    outer loop
      vertex -34.4683 6.07769 3
      vertex -33.8074 -9.05867 3
      vertex -33.8074 9.05867 3
    endloop
  endfacet
  facet normal 0 0 1
    outer loop
      vertex -34.4683 6.07769 3
      vertex -34.4683 -6.07769 3
      vertex -33.8074 -9.05867 3
    endloop
  endfacet
  facet normal -0 0 1
    outer loop
      vertex -34.8668 3.05045 3
      vertex -34.4683 -6.07769 3
      vertex -34.4683 6.07769 3
    endloop
  endfacet
  facet normal 0 0 1
    outer loop
      vertex -34.8668 3.05045 3
      vertex -34.8668 -3.05045 3
      vertex -34.4683 -6.07769 3
    endloop
  endfacet
  facet normal 0 -0 1
    outer loop
      vertex -34.8668 -3.05045 3
      vertex -34.8668 3.05045 3
      vertex -35 0 3
    endloop
  endfacet
  facet normal 0.923886 0.382668 0
    outer loop
      vertex -31.7208 -14.7916 118
      vertex -32.8892 -11.9707 3
      vertex -32.8892 -11.9707 118
    endloop
  endfacet
  facet normal 0.923886 0.382668 0
    outer loop
      vertex -32.8892 -11.9707 3
      vertex -31.7208 -14.7916 118
      vertex -31.7208 -14.7916 3
    endloop
  endfacet
  facet normal 0.953713 -0.300718 0
    outer loop
      vertex -33.8074 9.05867 118
      vertex -32.8892 11.9707 3
      vertex -32.8892 11.9707 118
    endloop
  endfacet
  facet normal 0.953713 -0.300718 0
    outer loop
      vertex -32.8892 11.9707 3
      vertex -33.8074 9.05867 118
      vertex -33.8074 9.05867 3
    endloop
  endfacet
  facet normal 0.382668 0.923886 -0
    outer loop
      vertex -11.9707 -32.8892 3
      vertex -14.7916 -31.7208 118
      vertex -11.9707 -32.8892 118
    endloop
  endfacet
  facet normal 0.382668 0.923886 0
    outer loop
      vertex -14.7916 -31.7208 118
      vertex -11.9707 -32.8892 3
      vertex -14.7916 -31.7208 3
    endloop
  endfacet
  facet normal 0.939691 -0.342024 0
    outer loop
      vertex 34.2984 6.84384 118
      vertex 36.0934 11.7755 3
      vertex 36.0934 11.7755 118
    endloop
  endfacet
  facet normal 0.939691 -0.342024 0
    outer loop
      vertex 36.0934 11.7755 3
      vertex 34.2984 6.84384 118
      vertex 34.2984 6.84384 3
    endloop
  endfacet
  facet normal -0.939695 0.342014 0
    outer loop
      vertex 35 0 3
      vertex 37.4147 6.63447 118
      vertex 37.4147 6.63447 3
    endloop
  endfacet
  facet normal -0.939695 0.342014 0
    outer loop
      vertex 37.4147 6.63447 118
      vertex 35 0 3
      vertex 35 0 118
    endloop
  endfacet
endsolid OpenSCAD_Model
